<svg width="1351" height="660" viewBox="0 0 1351 660" fill="none" xmlns="http://www.w3.org/2000/svg">
<path d="M143.133 679.023V584.369" stroke="#DDDEE2" stroke-miterlimit="1.5" stroke-linecap="round" stroke-linejoin="round"/>
<path d="M143.133 431.124V393.873" stroke="#DDDEE2" stroke-miterlimit="1.5" stroke-linecap="round" stroke-linejoin="round"/>
<path d="M86.75 633.971V484.995" stroke="#DDDEE2" stroke-miterlimit="1.5" stroke-linecap="round" stroke-linejoin="round"/>
<path d="M199.523 680.053V625.265" stroke="#DDDEE2" stroke-miterlimit="1.5" stroke-linecap="round" stroke-linejoin="round"/>
<path d="M196.477 445.102V372.317" stroke="#DDDEE2" stroke-miterlimit="1.5" stroke-linecap="round" stroke-linejoin="round"/>
<path d="M255.906 680.053V649.705" stroke="#DDDEE2" stroke-miterlimit="1.5" stroke-linecap="round" stroke-linejoin="round"/>
<path d="M312.289 680.053V641.161" stroke="#DDDEE2" stroke-miterlimit="1.5" stroke-linecap="round" stroke-linejoin="round"/>
<path d="M368.672 680.053V641.161" stroke="#DDDEE2" stroke-miterlimit="1.5" stroke-linecap="round" stroke-linejoin="round"/>
<path d="M370.609 393.056V363.731" stroke="#DDDEE2" stroke-miterlimit="1.5" stroke-linecap="round" stroke-linejoin="round"/>
<path d="M428.141 518V405.884" stroke="#DDDEE2" stroke-miterlimit="1.5" stroke-linecap="round" stroke-linejoin="round"/>
<path d="M425.422 632.826V596.736" stroke="#DDDEE2" stroke-miterlimit="1.5" stroke-linecap="round" stroke-linejoin="round"/>
<path d="M68.5 706.661V413.785" stroke="#DDDEE2" stroke-miterlimit="1.5" stroke-linejoin="round"/>
<path d="M61.7109 615.888H68.3921" stroke="#DDDEE2" stroke-miterlimit="1.5" stroke-linejoin="round"/>
<path d="M61.7109 557.414H68.3921" stroke="#DDDEE2" stroke-miterlimit="1.5" stroke-linejoin="round"/>
<path d="M61.7109 498.941H68.3921" stroke="#DDDEE2" stroke-miterlimit="1.5" stroke-linejoin="round"/>
<path d="M61.7109 440.47H68.3921" stroke="#DDDEE2" stroke-miterlimit="1.5" stroke-linejoin="round"/>
<path d="M416.766 441.562H459.829" stroke="#DDDEE2" stroke-miterlimit="1.5" stroke-linecap="round" stroke-linejoin="round"/>
<path d="M95.9453 441.562H206.085" stroke="#DDDEE2" stroke-miterlimit="1.5" stroke-linecap="round" stroke-linejoin="round"/>
<path d="M348.656 383.942H449.345" stroke="#DDDEE2" stroke-miterlimit="1.5" stroke-linecap="round" stroke-linejoin="round"/>
<path d="M82.9688 500.033H123.305" stroke="#DDDEE2" stroke-miterlimit="1.5" stroke-linecap="round" stroke-linejoin="round"/>
<path d="M82.9688 558.508H123.305" stroke="#DDDEE2" stroke-miterlimit="1.5" stroke-linecap="round" stroke-linejoin="round"/>
<path d="M82.9688 615.664H179.109" stroke="#DDDEE2" stroke-miterlimit="1.5" stroke-linecap="round" stroke-linejoin="round"/>
<path d="M408.938 616.979H441.639" stroke="#DDDEE2" stroke-miterlimit="1.5" stroke-linecap="round" stroke-linejoin="round"/>
<path d="M954.133 663.023V568.369" stroke="#DDDEE2" stroke-miterlimit="1.5" stroke-linecap="round" stroke-linejoin="round"/>
<path d="M954.133 415.124V377.873" stroke="#DDDEE2" stroke-miterlimit="1.5" stroke-linecap="round" stroke-linejoin="round"/>
<path d="M897.75 617.971V468.995" stroke="#DDDEE2" stroke-miterlimit="1.5" stroke-linecap="round" stroke-linejoin="round"/>
<path d="M1010.52 664.053V609.265" stroke="#DDDEE2" stroke-miterlimit="1.5" stroke-linecap="round" stroke-linejoin="round"/>
<path d="M1007.48 429.102V356.317" stroke="#DDDEE2" stroke-miterlimit="1.5" stroke-linecap="round" stroke-linejoin="round"/>
<path d="M1066.91 664.053V633.705" stroke="#DDDEE2" stroke-miterlimit="1.5" stroke-linecap="round" stroke-linejoin="round"/>
<path d="M1123.29 664.053V625.161" stroke="#DDDEE2" stroke-miterlimit="1.5" stroke-linecap="round" stroke-linejoin="round"/>
<path d="M1179.67 664.053V625.161" stroke="#DDDEE2" stroke-miterlimit="1.5" stroke-linecap="round" stroke-linejoin="round"/>
<path d="M1181.61 377.056V347.731" stroke="#DDDEE2" stroke-miterlimit="1.5" stroke-linecap="round" stroke-linejoin="round"/>
<path d="M1239.14 502V389.884" stroke="#DDDEE2" stroke-miterlimit="1.5" stroke-linecap="round" stroke-linejoin="round"/>
<path d="M1236.42 616.826V580.736" stroke="#DDDEE2" stroke-miterlimit="1.5" stroke-linecap="round" stroke-linejoin="round"/>
<path d="M879.5 690.661V397.785" stroke="#DDDEE2" stroke-miterlimit="1.5" stroke-linejoin="round"/>
<path d="M872.711 599.888H879.392" stroke="#DDDEE2" stroke-miterlimit="1.5" stroke-linejoin="round"/>
<path d="M872.711 658.36H879.392" stroke="#DDDEE2" stroke-miterlimit="1.5" stroke-linejoin="round"/>
<path d="M872.711 541.414H879.392" stroke="#DDDEE2" stroke-miterlimit="1.5" stroke-linejoin="round"/>
<path d="M872.711 482.941H879.392" stroke="#DDDEE2" stroke-miterlimit="1.5" stroke-linejoin="round"/>
<path d="M872.711 424.47H879.392" stroke="#DDDEE2" stroke-miterlimit="1.5" stroke-linejoin="round"/>
<path d="M1227.77 425.562H1270.83" stroke="#DDDEE2" stroke-miterlimit="1.5" stroke-linecap="round" stroke-linejoin="round"/>
<path d="M906.945 425.562H1017.09" stroke="#DDDEE2" stroke-miterlimit="1.5" stroke-linecap="round" stroke-linejoin="round"/>
<path d="M1159.66 367.942H1260.34" stroke="#DDDEE2" stroke-miterlimit="1.5" stroke-linecap="round" stroke-linejoin="round"/>
<path d="M893.969 484.033H934.305" stroke="#DDDEE2" stroke-miterlimit="1.5" stroke-linecap="round" stroke-linejoin="round"/>
<path d="M893.969 542.508H934.305" stroke="#DDDEE2" stroke-miterlimit="1.5" stroke-linecap="round" stroke-linejoin="round"/>
<path d="M893.969 599.664H990.109" stroke="#DDDEE2" stroke-miterlimit="1.5" stroke-linecap="round" stroke-linejoin="round"/>
<path d="M1219.94 600.979H1252.64" stroke="#DDDEE2" stroke-miterlimit="1.5" stroke-linecap="round" stroke-linejoin="round"/>
<path d="M943.906 659.452H1079.55" stroke="#DDDEE2" stroke-miterlimit="1.5" stroke-linecap="round" stroke-linejoin="round"/>
<path d="M1137.69 659.452H1197.74" stroke="#DDDEE2" stroke-miterlimit="1.5" stroke-linecap="round" stroke-linejoin="round"/>
<path d="M364.602 241.351H737.137" stroke="#DDDEE2" stroke-miterlimit="1.5" stroke-linejoin="round"/>
<path d="M452.133 248.396V241.468" stroke="#DDDEE2" stroke-miterlimit="1.5" stroke-linejoin="round"/>
<path d="M395.75 248.396V241.468" stroke="#DDDEE2" stroke-miterlimit="1.5" stroke-linejoin="round"/>
<path d="M508.523 248.396V241.468" stroke="#DDDEE2" stroke-miterlimit="1.5" stroke-linejoin="round"/>
<path d="M564.906 248.396V241.468" stroke="#DDDEE2" stroke-miterlimit="1.5" stroke-linejoin="round"/>
<path d="M621.289 248.396V241.468" stroke="#DDDEE2" stroke-miterlimit="1.5" stroke-linejoin="round"/>
<path d="M677.672 248.396V241.468" stroke="#DDDEE2" stroke-miterlimit="1.5" stroke-linejoin="round"/>
<path d="M452.133 228.023V133.369" stroke="#DDDEE2" stroke-miterlimit="1.5" stroke-linecap="round" stroke-linejoin="round"/>
<path d="M395.75 182.971V33.9953" stroke="#DDDEE2" stroke-miterlimit="1.5" stroke-linecap="round" stroke-linejoin="round"/>
<path d="M508.523 229.053V174.265" stroke="#DDDEE2" stroke-miterlimit="1.5" stroke-linecap="round" stroke-linejoin="round"/>
<path d="M564.906 229.053V198.705" stroke="#DDDEE2" stroke-miterlimit="1.5" stroke-linecap="round" stroke-linejoin="round"/>
<path d="M621.289 229.053V190.161" stroke="#DDDEE2" stroke-miterlimit="1.5" stroke-linecap="round" stroke-linejoin="round"/>
<path d="M677.672 229.053V190.161" stroke="#DDDEE2" stroke-miterlimit="1.5" stroke-linecap="round" stroke-linejoin="round"/>
<path d="M737.141 67V-45.1162" stroke="#DDDEE2" stroke-miterlimit="1.5" stroke-linecap="round" stroke-linejoin="round"/>
<path d="M734.422 181.826V145.736" stroke="#DDDEE2" stroke-miterlimit="1.5" stroke-linecap="round" stroke-linejoin="round"/>
<path d="M377.5 255.661V-37.2146" stroke="#DDDEE2" stroke-miterlimit="1.5" stroke-linejoin="round"/>
<path d="M370.711 164.888H377.392" stroke="#DDDEE2" stroke-miterlimit="1.5" stroke-linejoin="round"/>
<path d="M370.711 223.36H377.392" stroke="#DDDEE2" stroke-miterlimit="1.5" stroke-linejoin="round"/>
<path d="M370.711 106.414H377.392" stroke="#DDDEE2" stroke-miterlimit="1.5" stroke-linejoin="round"/>
<path d="M370.711 47.9414H377.392" stroke="#DDDEE2" stroke-miterlimit="1.5" stroke-linejoin="round"/>
<path d="M391.969 49.0332H432.305" stroke="#DDDEE2" stroke-miterlimit="1.5" stroke-linecap="round" stroke-linejoin="round"/>
<path d="M391.969 107.508H432.305" stroke="#DDDEE2" stroke-miterlimit="1.5" stroke-linecap="round" stroke-linejoin="round"/>
<path d="M391.969 164.664H488.109" stroke="#DDDEE2" stroke-miterlimit="1.5" stroke-linecap="round" stroke-linejoin="round"/>
<path d="M717.938 165.979H750.639" stroke="#DDDEE2" stroke-miterlimit="1.5" stroke-linecap="round" stroke-linejoin="round"/>
<path d="M441.906 224.452H577.554" stroke="#DDDEE2" stroke-miterlimit="1.5" stroke-linecap="round" stroke-linejoin="round"/>
<path d="M635.688 224.452H695.738" stroke="#DDDEE2" stroke-miterlimit="1.5" stroke-linecap="round" stroke-linejoin="round"/>
</svg>
