<svg width="355" height="307" viewBox="0 0 355 307" fill="none" xmlns="http://www.w3.org/2000/svg">
<path fill-rule="evenodd" clip-rule="evenodd" d="M309.791 291.608C309.883 289.685 309.874 287.701 309.845 286.693C309.834 286.307 309.767 285.906 309.617 285.558C309.467 285.21 309.142 284.874 308.947 284.606C308.785 284.385 308.609 284.102 308.445 283.953C308.313 283.833 307.967 283.893 307.966 283.714C307.899 275.104 307.917 240.875 308.041 232.297C308.044 232.074 308.491 232.296 308.707 232.242C309.066 232.153 309.72 231.956 310.192 231.76C310.658 231.567 311.122 231.353 311.539 231.069C312.028 230.735 312.653 230.254 313.129 229.759C313.625 229.243 314.109 228.604 314.515 227.972C314.921 227.34 315.273 226.579 315.565 225.967C315.823 225.424 316.097 224.83 316.26 224.303C316.41 223.818 316.472 223.309 316.538 222.805C316.608 222.285 316.699 221.727 316.672 221.185C316.645 220.621 316.529 219.884 316.374 219.417C316.245 219.034 316.016 218.678 315.737 218.385C315.438 218.071 314.874 217.745 314.578 217.533C314.375 217.388 314.172 217.244 313.958 217.115C313.553 216.872 312.743 216.428 312.145 216.069C311.547 215.709 310.812 215.232 310.372 214.956C310.084 214.775 309.599 214.694 309.508 214.414C309.416 214.134 309.844 213.288 309.821 213.278C309.798 213.266 309.924 211.84 309.908 211.819C309.892 211.797 309.834 207.409 309.808 207.384C309.783 207.358 309.632 206.582 309.645 206.525C309.658 206.467 309.334 206.061 309.254 205.92C309.173 205.779 308.772 205.268 308.691 205.219C308.61 205.17 307.939 204.744 307.86 204.73C307.782 204.717 307.01 204.209 306.927 204.205C306.844 204.201 303.787 203.701 303.698 203.747C303.609 203.795 301.87 204.064 301.864 204.062C301.858 204.06 300.713 204.629 300.636 204.603C300.561 204.576 299.917 204.904 299.786 204.967C299.654 205.029 298.63 206.216 298.627 206.216C298.622 206.217 298.349 207.145 298.314 207.189C298.279 207.233 298.347 207.859 298.258 207.874C298.17 207.89 294.423 205.621 294.369 205.674C294.315 205.727 293.028 205.453 293.031 205.444C293.035 205.435 292.092 205.582 292.077 205.578C292.062 205.574 290.437 206.291 290.403 206.291C290.369 206.29 289.408 205.61 289.374 205.619C289.341 205.629 253.139 184.768 253.093 184.604C253.047 184.441 291.152 114.333 291.171 114.24C291.19 114.147 291.766 113.584 291.76 113.574C291.753 113.564 293.302 112.366 293.266 112.343C293.23 112.32 293.806 111.596 293.791 111.507C293.777 111.418 294.119 110.367 294.085 110.359C294.051 110.351 294.11 109.326 294.121 109.148C294.133 108.97 294.146 86.7352 294.12 86.8235C294.094 86.9113 294.26 85.4653 294.243 85.4647C294.226 85.4647 293.371 83.6248 293.342 83.6306C293.312 83.6365 291.604 81.9967 291.58 81.9653C291.556 81.9339 281.444 76.1661 281.449 76.2416C281.455 76.3172 280.071 76.2347 279.929 76.115C279.787 75.9947 278.469 76.2874 278.447 76.2821C278.425 76.2768 276.887 77.3444 276.834 77.3444C276.781 77.3444 275.05 78.3402 274.958 78.3514C274.867 78.3626 273.949 79.0518 273.862 79.0385C273.775 79.0252 273.015 79.7767 272.947 79.8119C272.879 79.847 272.458 80.8944 272.387 81.0089C272.315 81.1233 272.06 82.25 271.985 82.2692C271.91 82.2884 269.738 82.407 269.742 82.3975C269.747 82.3879 267.142 82.8994 267.047 82.8621C266.951 82.8248 264.913 83.4944 264.822 83.4566C264.732 83.4188 263.056 84.3806 262.941 84.3891C262.827 84.3976 261.236 85.2571 261.176 85.238C261.115 85.2188 259.825 86.2476 259.819 86.2466C259.812 86.245 257.846 86.081 257.852 85.9954C257.858 85.9102 255.376 86.518 255.251 86.535C255.126 86.5515 253.31 87.2621 253.214 87.269C253.119 87.2759 251.401 88.4825 251.225 88.5107C251.049 88.5384 249.378 89.6949 249.241 89.7785C249.104 89.8626 247.752 91.1591 247.663 91.2144C247.573 91.2698 246.065 92.8718 246.001 92.8777C245.938 92.8841 244.834 94.2924 244.755 94.3434C244.675 94.3945 242.776 97.7455 242.68 97.7822C242.585 97.8189 241.653 99.3837 241.592 99.4279C241.531 99.4715 240.681 101.309 240.62 101.435C240.559 101.562 240.018 103.225 239.948 103.325C239.879 103.425 239.418 104.835 239.365 105.006C239.311 105.175 238.896 107.224 238.854 107.247C238.813 107.271 238.599 109.839 238.56 109.957C238.521 110.074 238.621 112.157 238.611 112.233C238.602 112.311 238.903 113.548 238.922 113.78C238.942 114.012 239.308 115.392 239.223 115.438C239.138 115.485 199.051 138.897 199.026 138.921C199.001 138.944 197.296 136.758 197.23 136.821C197.165 136.883 195.223 135.56 195.21 135.561C195.198 135.563 193.131 134.38 193.073 134.351C193.015 134.323 189.742 132.411 189.693 132.428C189.643 132.445 186.475 131.649 186.469 131.615C186.463 131.58 183.51 131.647 183.423 131.638C183.336 131.629 181.091 132.269 181.046 132.223C181 132.176 179.507 132.884 179.383 132.829C179.259 132.773 177.101 133.961 177.036 133.851C176.971 133.739 174.53 135.336 174.453 135.335C174.377 135.335 172.8 135.42 172.764 135.363C172.728 135.305 169.537 135.844 169.447 135.861C169.356 135.878 167.675 136.769 167.621 136.748C167.566 136.727 165.881 137.767 165.794 137.775C165.708 137.783 164.282 138.928 164.124 138.929C163.965 138.93 162.588 140.063 162.508 140.161C162.428 140.26 160.729 142.404 160.661 142.318C160.592 142.233 159.21 144.009 159.104 144.092C158.998 144.175 157.534 146.771 157.47 146.736C157.407 146.702 156.613 148.306 156.523 148.336C156.434 148.367 155.891 149.803 155.835 149.843C155.779 149.883 154.973 152.056 154.887 152.101C154.802 152.147 154.355 153.817 154.296 153.844C154.238 153.871 153.977 155.078 153.946 155.102C153.916 155.127 153.607 156.27 153.624 156.44C153.641 156.609 153.481 158.171 153.432 158.268C153.384 158.365 153.269 160.43 153.238 160.469C153.207 160.508 148.874 157.896 148.808 157.877C148.742 157.857 144.326 155.696 144.313 155.696C144.3 155.696 143.171 155.201 143.099 155.193C143.028 155.185 141.853 155.384 141.775 155.387C141.698 155.389 141.002 155.79 140.897 155.78C140.791 155.769 140.097 156.218 140.027 156.279C139.958 156.339 137.839 157.445 137.813 157.417C137.787 157.388 136.548 158.166 136.453 158.194C136.359 158.222 135.737 159.022 135.656 159.128C135.575 159.233 135.126 160.294 135.098 160.364C135.07 160.434 134.93 161.503 134.92 161.534C134.911 161.565 134.93 162.515 134.875 162.535C134.821 162.554 134.717 163.939 134.684 163.977C134.651 164.014 134.812 176.392 134.78 176.46C134.748 176.528 134.857 177.64 134.857 177.663C134.857 177.685 135.833 178.749 135.862 178.73C135.889 178.71 137.067 179.744 137.127 179.649C137.187 179.555 145.543 184.667 145.581 184.621C145.617 184.575 149.426 186.996 149.516 186.849C149.606 186.703 150.53 187.211 150.537 187.231C150.544 187.25 151.394 187.706 151.407 187.704C151.42 187.703 153.067 188.264 152.98 188.275C152.893 188.285 155.216 188.645 155.214 188.676C155.213 188.707 157.693 188.823 157.678 188.791C157.663 188.76 159.757 188.65 159.699 188.599C159.64 188.549 161.314 188.472 161.294 188.484C161.275 188.496 162.481 188.097 162.537 188.02C162.593 187.943 163.77 187.625 163.748 187.573C163.726 187.521 164.897 186.964 164.865 186.966C164.833 186.968 165.376 187.421 165.345 187.382C165.314 187.342 165.334 188.141 165.337 188.15C165.34 188.159 166.289 190.779 166.21 190.774C166.131 190.768 169.646 202.227 169.59 202.208C169.534 202.19 170.445 204.342 170.445 204.342C170.445 204.342 171.099 206.011 171.066 206.003C171.034 205.995 171.901 207.616 171.873 207.662C171.844 207.709 172.604 209.148 172.606 209.054C172.609 208.959 173.481 210.314 173.416 210.308C173.35 210.302 174.217 211.465 174.235 211.497C174.253 211.529 175.576 213.035 175.568 213.023C175.561 213.011 177.538 215.141 177.522 215.084C177.506 215.026 179.064 216.218 179.061 216.27C179.057 216.322 181.061 217.688 181.055 217.723C181.049 217.758 183.326 218.664 183.299 218.686C183.271 218.707 184.906 219.09 184.9 219.026C184.893 218.962 186.18 219.301 186.184 219.259C186.189 219.217 187.71 219.203 187.644 219.152C187.579 219.101 188.762 218.644 188.819 218.664C188.875 218.684 190.011 218.225 190.033 218.13C190.056 218.036 191.374 217.372 191.248 217.38C191.121 217.387 195.933 214.892 195.846 214.867C195.76 214.842 197.003 214.017 197.1 213.894C197.197 213.772 198.143 213.154 198.093 213.11C198.042 213.068 198.367 212.749 198.585 212.387C198.803 212.025 199.2 211.125 199.17 211.083C199.14 211.039 203.841 213.949 203.781 213.982C203.721 214.015 212.486 220.181 212.475 220.184C212.463 220.188 215.024 221.954 214.97 221.956C214.915 221.957 216.84 223.148 216.902 223.189C216.964 223.23 219.424 223.825 219.389 223.76C219.355 223.695 221.957 223.903 221.975 223.768C221.994 223.633 225.123 223.051 225.142 222.954C225.16 222.857 226.921 222.282 226.987 222.12C227.053 221.957 229.249 220.863 229.191 220.867C229.133 220.87 230.149 220.207 230.371 219.934C230.592 219.66 231.772 218.928 231.756 218.844C231.741 218.76 233.241 217.573 233.236 217.483C233.231 217.393 246.775 225.213 246.733 225.167C246.692 225.119 261.643 233.732 261.569 233.841C261.496 233.951 263.261 234.458 263.203 234.469C263.145 234.48 263.901 236.066 263.825 236.169C263.748 236.274 264.443 237.402 264.473 237.509C264.503 237.615 265.269 238.388 265.372 238.529C265.475 238.671 266.735 239.947 266.731 239.901C266.727 239.856 268.618 240.817 268.603 240.823C268.588 240.829 270.249 241.901 270.282 241.893C270.315 241.885 271.371 242.491 271.397 242.515C271.422 242.539 273.708 243.079 273.755 243.03C273.804 242.98 276.633 242.821 276.658 242.824C276.682 242.827 279.298 242.312 279.284 242.301C279.271 242.29 280.9 241.498 280.91 241.452C280.921 241.407 282.473 240.819 282.531 240.749C282.59 240.678 284.893 239.602 284.826 239.517C284.758 239.431 286.251 238.335 286.195 238.336C286.139 238.337 287.078 237.55 287.069 237.503C287.06 237.455 289.941 235.053 289.898 234.984C289.854 234.914 292.08 232.371 292.063 232.351C292.045 232.33 293.302 230.859 293.221 230.789C293.14 230.718 294.432 229.169 294.354 229.169C294.277 229.168 295.385 227.322 295.358 227.294C295.331 227.267 296.284 225.922 296.273 225.912C296.261 225.903 299.304 227.46 299.24 227.467C299.175 227.474 300.426 228.3 300.389 228.28C300.353 228.259 300.372 230.937 300.311 230.926C300.25 230.915 300.318 234.979 300.284 234.972C300.25 234.966 300.293 242.689 300.251 242.651C300.208 242.613 300.143 245.044 300.145 245.141C300.147 245.238 300.359 255.091 300.222 255.102C300.086 255.114 300.375 263.088 300.304 263.104C300.232 263.121 300.235 270.876 300.202 270.883C300.17 270.889 300.258 277.191 300.202 277.262C300.146 277.332 300.263 282.059 300.238 282.073C300.212 282.087 300.128 283.785 300.104 283.779C300.079 283.772 299.228 284.216 299.224 284.216C299.219 284.217 298.775 284.895 298.747 284.918C298.719 284.942 298.439 285.613 298.429 285.635C298.419 285.657 298.329 287.02 298.327 287.054C298.324 287.089 298.307 287.921 298.297 287.959C298.287 287.997 298.354 288.389 298.345 288.416C298.335 288.442 298.266 292.024 298.256 292.018C298.246 292.011 298.497 292.636 298.555 292.715C298.613 292.793 299.288 293.78 299.323 293.813C299.358 293.844 300.475 294.715 300.467 294.707C300.46 294.7 302.156 295.45 302.143 295.455C302.129 295.461 303.962 295.571 303.961 295.599C303.959 295.628 305.56 295.59 305.537 295.596C305.515 295.601 307.14 295.066 307.107 295.066C307.075 295.067 308.418 294.286 308.361 294.284C308.305 294.281 309.56 293.085 309.496 293.032C309.432 292.977 309.808 292.349 309.783 292.337C309.758 292.325 309.789 291.64 309.791 291.608Z" fill="white" fill-opacity="0.1"/>
<path fill-rule="evenodd" clip-rule="evenodd" d="M75.0061 141.773C75.0183 141.848 232.718 50.7177 232.719 50.6224C232.72 50.5271 231.843 48.7953 231.741 48.8288C231.64 48.8618 229.577 46.3209 229.474 46.3475C229.371 46.3747 227.617 45.1186 227.494 45.1101C227.371 45.1016 226.298 44.5959 226.271 44.4304C226.244 44.2649 221.047 41.4999 220.954 41.3733C220.861 41.246 218.138 39.6206 218.098 39.635C218.059 39.6493 214.948 38.8143 214.921 38.8004C214.894 38.7861 212.921 38.6088 212.879 38.5982C212.836 38.587 210.452 38.6413 210.336 38.6541C210.219 38.6668 207.922 39.0538 207.879 39.0564C207.835 39.0591 205.623 39.7446 205.545 39.7287C205.468 39.7122 204.257 40.4642 204.25 40.4637C204.243 40.4631 202.847 41.3312 202.81 41.3216C202.774 41.3126 201.47 40.7846 201.414 40.7085C201.358 40.6329 199.666 40.2731 199.603 40.1975C199.541 40.122 197.655 40.0395 197.576 40.0145C197.496 39.9894 195.318 39.9948 195.177 40.0395C195.036 40.0842 193.279 40.3801 193.154 40.4307C193.03 40.4812 190.879 41.1971 190.753 41.2652C190.626 41.3333 188.655 42.4303 188.6 42.3925C188.544 42.3552 186.972 43.5277 186.887 43.5283C186.803 43.5288 185.192 44.6758 185.116 44.6529C185.039 44.6305 183.868 45.943 183.734 45.9212C183.601 45.8988 181.888 47.3593 181.817 47.3769C181.746 47.3939 180.455 49.0395 180.4 49.0305C180.345 49.0215 179.353 50.0018 179.262 50.0226C179.172 50.0439 177.718 51.8513 177.643 51.9631C177.567 52.0749 176.3 53.8595 176.176 54.008C176.053 54.157 175.295 55.4407 175.191 55.4987C175.087 55.5573 174.225 57.2918 174.088 57.3711C173.952 57.4499 173.351 58.3089 173.339 58.2956C173.327 58.2829 167.844 61.6311 167.764 61.5364C167.686 61.4411 117.661 90.7422 117.619 90.7167C117.577 90.6906 116.231 90.1498 116.156 90.0439C116.081 89.938 113.77 89.2791 113.643 89.2881C113.515 89.2967 111.047 89.145 110.882 89.2062C110.717 89.2679 108.086 89.9045 108.002 89.863C107.918 89.8214 105.069 90.7624 104.963 90.8311C104.857 90.9003 103.072 91.9738 103.018 91.9472C102.963 91.9206 101.141 92.8408 101.003 92.9345C100.864 93.0282 99.4026 94.2938 99.2882 94.3167C99.1732 94.3401 98.1652 95.3684 98.0566 95.3934C97.9485 95.4184 94.4417 93.142 94.414 93.1389C94.3863 93.1362 94.2336 91.3734 94.1729 91.3953C94.1127 91.4171 93.7098 90.7592 93.6539 90.6996C93.5981 90.64 92.7917 89.863 92.7406 89.8795C92.689 89.8954 91.9072 89.3621 91.855 89.3659C91.8023 89.3701 90.5569 88.5643 90.5063 88.5952C90.4558 88.6255 89.1917 88.0257 89.1449 87.9645C89.0986 87.9033 87.9133 87.5834 87.8271 87.6531C87.7408 87.7223 86.3091 88.0789 86.2149 88.1199C86.1207 88.1603 84.8806 89.0534 84.8002 89.0721C84.7193 89.0907 83.3169 90.3893 83.2355 90.4245C83.1535 90.4596 82.2615 91.7625 82.1934 91.8115C82.1247 91.8604 81.2651 93.5183 81.2183 93.5657C81.172 93.6125 80.5732 95.2449 80.5386 95.2987C80.5046 95.3529 80.1805 96.9417 80.1618 97.0125C80.1432 97.0827 80.2363 98.2504 80.2012 98.252C80.1655 98.2536 80.4695 99.5416 80.4764 99.6912C80.4828 99.8407 81.0608 100.562 81.0895 100.617C81.1177 100.673 81.9602 101.378 81.9767 101.354C81.9938 101.33 83.1801 102.311 83.1455 102.308C83.1104 102.304 85.1717 103.199 85.0914 103.284C85.011 103.369 86.488 103.953 86.4619 103.944C86.4358 103.935 87.8143 103.516 87.7749 103.547C87.7355 103.579 88.7207 103.362 88.668 103.344C88.6153 103.327 89.5382 103.62 89.4961 103.63C89.4536 103.641 90.1742 104.217 90.1705 104.15C90.1662 104.082 89.4009 105.262 89.3961 105.29C89.3908 105.318 88.6206 106.687 88.5238 106.746C88.4269 106.806 88.1725 107.458 88.1214 107.499C88.0708 107.54 87.6014 108.025 87.5146 107.987C87.4273 107.948 78.4933 113.118 78.4406 113.11C78.3884 113.103 76.4495 114.592 76.4085 114.534C76.3675 114.476 70.9834 117.775 70.9457 117.769C70.9073 117.762 69.4613 118.617 69.3772 118.714C69.2931 118.81 69.292 120.877 69.2532 120.966C69.2138 121.056 69.2947 122.802 69.2739 122.827C69.2537 122.852 70.2027 124.839 70.1761 124.839C70.1494 124.84 71.3975 126.432 71.348 126.481C71.2991 126.531 72.4647 127.43 72.4694 127.436C72.4748 127.442 73.5515 128.373 73.535 128.37C73.5179 128.367 74.5691 128.906 74.5654 128.933C74.5617 128.961 75.0641 129.166 75.0375 129.169C75.0109 129.173 74.9981 141.725 75.0061 141.773Z" fill="white" fill-opacity="0.1"/>
<path d="M74.5468 203.785C74.2125 203.572 73.544 203.146 73.082 202.773C72.603 202.387 72.1144 201.931 71.6738 201.466C71.2224 200.99 70.7769 200.457 70.3756 199.916C69.9695 199.368 69.5831 198.779 69.2383 198.181C68.8928 197.583 68.5756 196.954 68.3047 196.328C68.0365 195.71 67.7975 195.058 67.6107 194.429C67.4281 193.815 67.2786 193.163 67.1833 192.555C67.0918 191.969 67.0566 191.177 67.0391 190.781" stroke="white" stroke-width="0.5" stroke-linecap="round" stroke-linejoin="round"/>
<path d="M99.2899 218.07C91.0424 213.309 82.7944 208.547 74.5469 203.786" stroke="white" stroke-width="0.5" stroke-linecap="round" stroke-linejoin="round"/>
<path d="M99.2891 224.375V218.07" stroke="white" stroke-width="0.5" stroke-linecap="round" stroke-linejoin="round"/>
<path d="M31.0312 184.971C53.7832 198.106 76.5351 211.24 99.287 224.375" stroke="white" stroke-width="0.5" stroke-linecap="round" stroke-linejoin="round"/>
<path d="M31.0312 178.666V184.971" stroke="white" stroke-width="0.5" stroke-linecap="round" stroke-linejoin="round"/>
<path d="M55.7737 192.95C47.5262 188.189 39.2787 183.427 31.0312 178.666" stroke="white" stroke-width="0.5" stroke-linecap="round" stroke-linejoin="round"/>
<path d="M63.2817 188.614C63.2652 188.984 63.2327 189.724 63.1374 190.223C63.0469 190.696 62.8969 191.19 62.71 191.603C62.5317 191.997 62.2874 192.389 62.0165 192.701C61.751 193.006 61.4279 193.276 61.0825 193.475C60.737 193.675 60.3416 193.82 59.9446 193.897C59.5385 193.976 59.0775 193.991 58.6464 193.949C58.1951 193.904 57.6927 193.788 57.2381 193.63C56.7591 193.463 56.1024 193.121 55.7734 192.95" stroke="white" stroke-width="0.5" stroke-linecap="round" stroke-linejoin="round"/>
<path d="M63.2812 148.416V188.614" stroke="white" stroke-width="0.5" stroke-linecap="round" stroke-linejoin="round"/>
<path d="M63.2812 148.416C64.5325 149.138 65.7838 149.86 67.0351 150.583" stroke="white" stroke-width="0.5" stroke-linecap="round" stroke-linejoin="round"/>
<path d="M67.0391 190.782V150.583" stroke="white" stroke-width="0.5" stroke-linecap="round" stroke-linejoin="round"/>
<path d="M305.935 12.6709C226.303 58.6415 146.671 104.612 67.0391 150.582" stroke="white" stroke-width="0.5" stroke-linecap="round" stroke-linejoin="round"/>
<path d="M63.2812 148.416C142.913 102.445 222.545 56.4746 302.177 10.5039" stroke="white" stroke-width="0.5" stroke-linecap="round" stroke-linejoin="round"/>
<path d="M305.934 12.6712C304.682 11.9489 303.431 11.2261 302.18 10.5039" stroke="white" stroke-width="0.5" stroke-linecap="round" stroke-linejoin="round"/>
<path d="M305.93 52.8689V12.6709" stroke="white" stroke-width="0.5" stroke-linecap="round" stroke-linejoin="round"/>
<path d="M99.2891 218.07C116.76 207.983 134.231 197.897 151.702 187.812" stroke="white" stroke-width="0.5" stroke-linecap="round" stroke-linejoin="round"/>
<path d="M294.195 105.55C308.858 97.086 323.52 88.6219 338.182 80.1572" stroke="white" stroke-width="0.5" stroke-linecap="round" stroke-linejoin="round"/>
<path d="M338.18 80.1576C329.932 75.3962 321.685 70.6349 313.438 65.874" stroke="white" stroke-width="0.5" stroke-linecap="round" stroke-linejoin="round"/>
<path d="M99.2891 224.375C120.273 212.26 141.258 200.147 162.242 188.033" stroke="white" stroke-width="0.5" stroke-linecap="round" stroke-linejoin="round"/>
<path d="M292.984 112.559C308.052 103.86 323.119 95.1617 338.187 86.4629" stroke="white" stroke-width="0.5" stroke-linecap="round" stroke-linejoin="round"/>
<path d="M338.18 86.4626V80.1572" stroke="white" stroke-width="0.5" stroke-linecap="round" stroke-linejoin="round"/>
<path d="M313.438 65.8737C313.104 65.6603 312.435 65.2345 311.973 64.862C311.495 64.4756 311.006 64.0205 310.565 63.5553C310.114 63.0795 309.669 62.5462 309.267 62.0049C308.861 61.4567 308.474 60.867 308.129 60.2688C307.784 59.6711 307.466 59.042 307.195 58.4166C306.927 57.7982 306.689 57.1462 306.502 56.5171C306.319 55.9029 306.169 55.2514 306.074 54.6436C305.982 54.0571 305.947 53.2651 305.93 52.8691" stroke="white" stroke-width="0.5" stroke-linecap="round" stroke-linejoin="round"/>
<path d="M31.0312 178.666C41.7813 172.46 52.5319 166.254 63.282 160.048" stroke="white" stroke-width="0.5" stroke-linecap="round" stroke-linejoin="round"/>
<path d="M309.798 207.638C309.801 207.53 309.808 207.314 309.765 207.161C309.702 206.932 309.572 206.543 309.419 206.265C309.266 205.987 309.069 205.724 308.848 205.491C308.622 205.252 308.347 205.019 308.062 204.829C307.763 204.629 307.404 204.437 307.051 204.291C306.682 204.139 306.259 204.007 305.848 203.916C305.431 203.824 304.858 203.77 304.547 203.738C304.36 203.719 304.109 203.722 303.984 203.724" stroke="white" stroke-linecap="round" stroke-linejoin="round"/>
<path d="M303.981 203.724C303.819 203.725 303.495 203.729 303.255 203.76C302.918 203.805 302.376 203.876 301.957 203.988C301.54 204.099 301.124 204.244 300.741 204.432C300.357 204.62 299.959 204.877 299.659 205.116C299.388 205.333 299.139 205.602 298.942 205.869C298.75 206.129 298.588 206.424 298.476 206.719C298.365 207.013 298.301 207.446 298.269 207.639C298.257 207.717 298.278 207.823 298.289 207.876" stroke="white" stroke-linecap="round" stroke-linejoin="round"/>
<path d="M309.836 212.618V207.889" stroke="white" stroke-linecap="round" stroke-linejoin="round"/>
<path d="M298.266 207.884V212.613" stroke="white" stroke-linecap="round" stroke-linejoin="round"/>
<path d="M298.297 212.628C298.296 212.795 298.295 213.13 298.356 213.37C298.425 213.642 298.555 213.985 298.711 214.262C298.866 214.539 299.067 214.8 299.29 215.032C299.519 215.269 299.797 215.5 300.085 215.689C300.387 215.887 300.748 216.078 301.104 216.222C301.475 216.372 301.9 216.501 302.311 216.589C302.73 216.679 303.178 216.738 303.615 216.761C304.054 216.784 304.506 216.772 304.944 216.726C305.38 216.68 305.822 216.601 306.239 216.483C306.654 216.367 307.086 216.204 307.449 216.025C307.791 215.855 308.133 215.636 308.415 215.408C308.686 215.19 308.942 214.925 309.143 214.66C309.338 214.401 309.504 214.107 309.62 213.813C309.735 213.521 309.804 213.103 309.837 212.896C309.853 212.79 309.828 212.647 309.815 212.574" stroke="white" stroke-linecap="round" stroke-linejoin="round"/>
<path d="M309.822 286.693C309.831 286.649 309.849 286.56 309.838 286.494C309.806 286.302 309.74 285.835 309.628 285.536C309.518 285.238 309.357 284.957 309.171 284.701C308.983 284.441 308.708 284.166 308.499 283.981C308.323 283.824 308.05 283.664 307.914 283.584" stroke="white" stroke-linecap="round" stroke-linejoin="round"/>
<path d="M300.193 283.558C300.187 283.559 300.177 283.562 300.171 283.567C300.025 283.683 299.559 284.006 299.315 284.253C299.08 284.492 298.868 284.771 298.708 285.052C298.55 285.328 298.424 285.66 298.354 285.937C298.289 286.187 298.284 286.536 298.281 286.711" stroke="white" stroke-linecap="round" stroke-linejoin="round"/>
<path d="M309.844 291.432V286.702" stroke="white" stroke-linecap="round" stroke-linejoin="round"/>
<path d="M298.266 286.702V291.432" stroke="white" stroke-linecap="round" stroke-linejoin="round"/>
<path d="M298.287 291.402C298.278 291.447 298.258 291.535 298.268 291.601C298.298 291.795 298.36 292.263 298.468 292.563C298.575 292.862 298.808 293.222 298.915 293.404C298.969 293.496 299.065 293.604 299.113 293.657" stroke="white" stroke-linecap="round" stroke-linejoin="round"/>
<path d="M299.109 293.657C299.217 293.778 299.433 294.019 299.622 294.168C299.861 294.356 300.214 294.61 300.539 294.782C300.879 294.96 301.272 295.122 301.657 295.241C302.054 295.363 302.494 295.459 302.922 295.517C303.353 295.575 303.805 295.6 304.245 295.589C304.686 295.58 305.134 295.536 305.564 295.457C305.992 295.378 306.422 295.265 306.824 295.113C307.224 294.961 307.642 294.752 307.975 294.542C308.283 294.347 308.58 294.1 308.821 293.851C309.053 293.611 309.262 293.33 309.418 293.048C309.573 292.77 309.694 292.429 309.761 292.16C309.82 291.923 309.82 291.596 309.821 291.432" stroke="white" stroke-linecap="round" stroke-linejoin="round"/>
<path d="M73.5938 128.316C74.0674 128.589 74.5411 128.863 75.0148 129.137" stroke="white" stroke-linecap="round" stroke-linejoin="round"/>
<path d="M267.445 240.222C268.355 240.747 269.266 241.272 270.176 241.798" stroke="white" stroke-linecap="round" stroke-linejoin="round"/>
<path d="M92.9132 90.0225C91.7758 89.3663 90.6379 88.7095 89.5 88.0527" stroke="white" stroke-linecap="round" stroke-linejoin="round"/>
<path d="M81.7734 101.429C82.9114 102.085 84.0487 102.742 85.1861 103.398" stroke="white" stroke-linecap="round" stroke-linejoin="round"/>
<path d="M300.195 215.748V216.294" stroke="white" stroke-linecap="round" stroke-linejoin="round"/>
<path d="M300.195 228.076V285.127" stroke="white" stroke-linecap="round" stroke-linejoin="round"/>
<path d="M307.914 285.127V232.241" stroke="white" stroke-linecap="round" stroke-linejoin="round"/>
<path d="M307.914 225.842V224.53" stroke="white" stroke-linecap="round" stroke-linejoin="round"/>
<path d="M314.983 217.665C313.087 216.571 311.192 215.477 309.297 214.383" stroke="white" stroke-linecap="round" stroke-linejoin="round"/>
<path d="M298.265 208.014C297.013 207.291 295.76 206.568 294.508 205.845" stroke="white" stroke-linecap="round" stroke-linejoin="round"/>
<path d="M286.305 220.057C293.13 223.997 299.955 227.937 306.781 231.878" stroke="white" stroke-linecap="round" stroke-linejoin="round"/>
<path d="M225.055 181.912C244.904 193.371 264.753 204.83 284.603 216.289" stroke="white" stroke-linecap="round" stroke-linejoin="round"/>
<path d="M290.392 206.257C270.543 194.798 250.693 183.339 230.844 171.881" stroke="white" stroke-linecap="round" stroke-linejoin="round"/>
<path d="M86.1562 101.727C87.5124 102.509 88.868 103.292 90.2236 104.074" stroke="white" stroke-linecap="round" stroke-linejoin="round"/>
<path d="M98.0889 95.2421C96.0414 94.0595 93.9933 92.8774 91.9453 91.6953" stroke="white" stroke-linecap="round" stroke-linejoin="round"/>
<path d="M207.62 44.2391C205.913 43.254 204.207 42.2693 202.5 41.2842" stroke="white" stroke-linecap="round" stroke-linejoin="round"/>
<path d="M214.571 61.0797C214.546 61.0084 214.495 60.8652 214.434 60.7694C214.253 60.4841 213.835 59.7901 213.488 59.367C213.146 58.9518 212.7 58.5266 212.347 58.2296C212.047 57.9778 211.594 57.7154 211.367 57.584" stroke="white" stroke-linecap="round" stroke-linejoin="round"/>
<path d="M211.321 57.5245C208.477 55.8825 205.633 54.2406 202.789 52.5986" stroke="white" stroke-linecap="round" stroke-linejoin="round"/>
<path d="M280.994 86.5986C279.288 85.6134 277.581 84.6277 275.875 83.6426" stroke="white" stroke-linecap="round" stroke-linejoin="round"/>
<path d="M259.843 86.1613C259.638 86.1188 259.229 86.0336 258.917 86.0219C258.49 86.0059 257.825 86.0054 257.283 86.0645C256.726 86.1246 256.135 86.2364 255.575 86.3849C254.997 86.5387 254.386 86.7473 253.814 86.9863C253.223 87.2322 252.608 87.5366 252.031 87.8629C251.439 88.1982 250.829 88.5899 250.259 88.9987C249.677 89.4165 249.087 89.887 248.533 90.3708C247.97 90.8626 247.409 91.4012 246.881 91.9515C246.346 92.5088 245.819 93.1065 245.325 93.7143C244.825 94.3279 244.341 94.9746 243.887 95.6319C243.431 96.2913 242.995 96.9774 242.588 97.6736C242.182 98.3697 241.798 99.0866 241.447 99.8089C241.098 100.528 240.771 101.268 240.481 102.005C240.193 102.737 239.93 103.49 239.706 104.232C239.484 104.965 239.289 105.721 239.134 106.456C238.982 107.181 238.859 107.928 238.778 108.648C238.699 109.353 238.652 110.081 238.649 110.775C238.645 111.454 238.679 112.152 238.755 112.808C238.829 113.45 239.001 114.262 239.105 114.714C239.169 114.99 239.311 115.344 239.382 115.52" stroke="white" stroke-linecap="round" stroke-linejoin="round"/>
<path d="M122.299 93.494C120.592 92.5089 118.886 91.5242 117.18 90.5391" stroke="white" stroke-linecap="round" stroke-linejoin="round"/>
<path d="M129.243 110.336C129.205 110.235 129.129 110.033 129.042 109.898C128.848 109.594 128.432 108.933 128.078 108.516C127.732 108.109 127.287 107.696 126.924 107.401C126.609 107.147 126.135 106.882 125.898 106.75" stroke="white" stroke-linecap="round" stroke-linejoin="round"/>
<path d="M126 106.779C123.157 105.137 120.313 103.495 117.469 101.854" stroke="white" stroke-linecap="round" stroke-linejoin="round"/>
<path d="M195.673 135.852C193.967 134.867 192.261 133.882 190.555 132.896" stroke="white" stroke-linecap="round" stroke-linejoin="round"/>
<path d="M174.579 135.395C174.252 135.356 173.598 135.278 173.209 135.261C172.889 135.246 172.566 135.255 172.248 135.291C171.803 135.342 171.099 135.432 170.537 135.567C169.96 135.705 169.354 135.899 168.784 136.122C168.195 136.354 167.578 136.642 167.002 136.954C166.409 137.276 165.798 137.654 165.227 138.049C164.641 138.454 164.048 138.913 163.491 139.384C162.924 139.865 162.357 140.393 161.825 140.933C161.285 141.48 160.751 142.069 160.25 142.668C159.745 143.273 159.254 143.913 158.792 144.562C158.329 145.215 157.884 145.895 157.469 146.585C157.054 147.276 156.661 147.988 156.301 148.707C155.941 149.423 155.606 150.16 155.305 150.896C155.007 151.626 154.733 152.378 154.497 153.12C154.264 153.853 154.057 154.609 153.891 155.347C153.727 156.073 153.593 156.822 153.5 157.545C153.408 158.255 153.355 159.172 153.332 159.685C153.318 159.998 153.348 160.416 153.363 160.625" stroke="white" stroke-linecap="round" stroke-linejoin="round"/>
<path d="M189.539 218.353C191.814 217.039 194.09 215.726 196.364 214.412" stroke="white" stroke-linecap="round" stroke-linejoin="round"/>
<path d="M140.876 155.724C139.512 156.512 138.146 157.3 136.781 158.088" stroke="white" stroke-linecap="round" stroke-linejoin="round"/>
<path d="M294.195 109.709V86.0645" stroke="white" stroke-linecap="round" stroke-linejoin="round"/>
<path d="M278.072 76.5225C276.707 77.3107 275.342 78.0989 273.977 78.8872" stroke="white" stroke-linecap="round" stroke-linejoin="round"/>
<path d="M75.0156 117.586V141.231" stroke="white" stroke-linecap="round" stroke-linejoin="round"/>
<path fill-rule="evenodd" clip-rule="evenodd" d="M304.001 204.078C303.621 204.081 303.227 204.119 302.866 204.187C302.514 204.252 302.146 204.358 301.836 204.484C301.542 204.603 301.236 204.77 301.004 204.943C300.788 205.104 300.575 205.317 300.441 205.523C300.315 205.716 300.225 205.954 300.202 206.173C300.179 206.391 300.217 206.629 300.304 206.834C300.394 207.047 300.559 207.274 300.74 207.449C300.934 207.637 301.207 207.825 301.471 207.963C301.753 208.109 302.1 208.24 302.43 208.329C302.774 208.421 303.163 208.487 303.535 208.516C303.911 208.545 304.312 208.542 304.686 208.506C305.056 208.471 305.441 208.399 305.781 208.302C306.106 208.208 306.448 208.071 306.722 207.92C306.979 207.778 307.242 207.585 307.427 207.394C307.599 207.216 307.754 206.986 307.832 206.772C307.91 206.564 307.936 206.327 307.902 206.109C307.868 205.891 307.765 205.654 307.63 205.463C307.486 205.26 307.263 205.051 307.04 204.893C306.799 204.724 306.485 204.563 306.185 204.448C305.869 204.327 305.497 204.228 305.141 204.168C304.777 204.107 304.38 204.076 304.001 204.078Z" stroke="white" stroke-linecap="round" stroke-linejoin="round"/>
<path d="M300.586 286.105C300.723 286.238 300.997 286.503 301.239 286.652C301.499 286.811 301.829 286.959 302.144 287.063C302.473 287.171 302.853 287.255 303.217 287.302C303.587 287.35 303.987 287.366 304.365 287.348C304.742 287.331 305.133 287.278 305.485 287.197C305.826 287.119 306.183 286.999 306.479 286.861C306.757 286.732 307.045 286.553 307.258 286.371C307.454 286.203 307.642 285.979 307.751 285.771C307.855 285.576 307.896 285.277 307.916 285.127" stroke="white" stroke-linecap="round" stroke-linejoin="round"/>
<path d="M300.195 285.127C300.196 285.206 300.198 285.363 300.242 285.471C300.307 285.634 300.493 285.948 300.587 286.105" stroke="white" stroke-linecap="round" stroke-linejoin="round"/>
<path d="M71.9876 120.354C71.0775 119.829 70.1674 119.304 69.2578 118.778" stroke="white" stroke-linecap="round" stroke-linejoin="round"/>
<path d="M71.9844 120.354V124.296" stroke="white" stroke-linecap="round" stroke-linejoin="round"/>
<path d="M71.9876 124.296C71.0775 123.77 70.1674 123.245 69.2578 122.72" stroke="white" stroke-linecap="round" stroke-linejoin="round"/>
<path d="M69.2578 118.778V122.72" stroke="white" stroke-linecap="round" stroke-linejoin="round"/>
<path d="M71.9844 120.354C72.9956 119.771 74.0069 119.188 75.0181 118.604" stroke="white" stroke-linecap="round" stroke-linejoin="round"/>
<path d="M69.2578 118.778C71.5768 117.439 73.8957 116.101 76.2146 114.762" stroke="white" stroke-linecap="round" stroke-linejoin="round"/>
<path d="M71.9844 124.296C72.1488 124.717 72.4778 125.559 72.7822 126.126C73.0776 126.677 73.4358 127.225 73.8083 127.697C74.1692 128.156 74.735 128.693 75.0181 128.962" stroke="white" stroke-linecap="round" stroke-linejoin="round"/>
<path d="M69.2578 122.72C69.4223 123.141 69.7507 123.983 70.0546 124.55C70.3505 125.101 70.7034 125.644 71.0818 126.121C71.4527 126.59 71.9035 127.048 72.3229 127.413C72.7163 127.756 73.3049 128.129 73.5998 128.316" stroke="white" stroke-linecap="round" stroke-linejoin="round"/>
<path d="M265.828 232.26C272.763 228.257 279.698 224.253 286.633 220.25" stroke="white" stroke-linecap="round" stroke-linejoin="round"/>
<path d="M265.832 232.261C264.922 231.735 264.012 231.21 263.102 230.685" stroke="white" stroke-linecap="round" stroke-linejoin="round"/>
<path d="M263.102 230.684C270.354 226.497 277.607 222.311 284.859 218.124" stroke="white" stroke-linecap="round" stroke-linejoin="round"/>
<path d="M265.828 236.201C265.993 236.622 266.321 237.464 266.625 238.031C266.921 238.582 267.274 239.125 267.652 239.603C268.023 240.071 268.447 240.515 268.894 240.896C269.337 241.274 269.824 241.61 270.332 241.889C270.842 242.169 271.39 242.399 271.949 242.571C272.514 242.745 273.121 242.867 273.72 242.931C274.332 242.996 274.988 243.006 275.62 242.963C276.271 242.92 276.965 242.816 277.623 242.668C278.304 242.516 279.023 242.301 279.701 242.051C280.401 241.792 281.135 241.469 281.823 241.119C282.533 240.757 283.269 240.331 283.961 239.884C284.671 239.426 285.399 238.903 286.083 238.366C286.783 237.817 287.493 237.207 288.16 236.586C288.84 235.953 289.522 235.266 290.163 234.568C290.814 233.861 291.458 233.106 292.064 232.341C292.676 231.569 293.273 230.759 293.835 229.937C294.399 229.111 295.037 228.072 295.451 227.389C295.758 226.883 296.131 226.188 296.318 225.841" stroke="white" stroke-linecap="round" stroke-linejoin="round"/>
<path d="M265.828 232.261V236.201" stroke="white" stroke-linecap="round" stroke-linejoin="round"/>
<path d="M265.832 236.202C264.922 235.677 264.012 235.151 263.102 234.626" stroke="white" stroke-linecap="round" stroke-linejoin="round"/>
<path d="M263.102 230.685V234.626" stroke="white" stroke-linecap="round" stroke-linejoin="round"/>
<path d="M263.102 234.626C263.265 235.047 263.594 235.889 263.898 236.456C264.194 237.007 264.547 237.55 264.926 238.027C265.296 238.496 265.747 238.954 266.167 239.32C266.559 239.662 267.149 240.036 267.443 240.222" stroke="white" stroke-linecap="round" stroke-linejoin="round"/>
<path d="M84.5156 95.8047C84.6753 95.4694 84.9941 94.7977 85.2773 94.3224C85.5599 93.8471 85.8797 93.3804 86.2145 92.953C86.544 92.532 86.9139 92.1179 87.2843 91.7581C87.6436 91.4095 88.0475 91.0705 88.4366 90.7953C88.8081 90.5324 89.2286 90.286 89.6176 90.1087C89.9859 89.9411 90.4 89.8027 90.771 89.7314C91.1228 89.6638 91.5086 89.643 91.8445 89.6808C92.1697 89.717 92.5023 89.8123 92.7871 89.9576C93.0724 90.1029 93.3385 90.3104 93.5546 90.551C93.7749 90.7969 93.9718 91.1136 94.1113 91.4319C94.2571 91.7672 94.3673 92.2707 94.4311 92.5597C94.4753 92.7593 94.4886 93.0323 94.495 93.1685" stroke="white" stroke-linecap="round" stroke-linejoin="round"/>
<path d="M88.7043 103.2C88.5276 103.286 88.1732 103.459 87.8905 103.54C87.568 103.633 87.1263 103.739 86.7707 103.756C86.4306 103.772 86.0687 103.734 85.7563 103.642C85.4476 103.551 85.1506 103.401 84.8962 103.204C84.6418 103.008 84.4081 102.743 84.2309 102.462C84.0462 102.171 83.8898 101.806 83.7892 101.453C83.6832 101.079 83.6156 100.635 83.5944 100.22C83.572 99.7815 83.5949 99.2855 83.6545 98.8235C83.7162 98.3418 83.8269 97.8187 83.9664 97.329C84.1101 96.826 84.3805 96.1453 84.5157 95.8047" stroke="white" stroke-linecap="round" stroke-linejoin="round"/>
<path d="M81.1094 93.8351C81.2685 93.4998 81.5873 92.8292 81.8705 92.3539C82.1536 91.8786 82.473 91.4108 82.8077 90.9834C83.1372 90.5624 83.5071 90.1484 83.8775 89.7886C84.2368 89.4399 84.6413 89.1009 85.0303 88.8257C85.4018 88.5634 85.8218 88.3175 86.2108 88.1402C86.5791 87.972 86.9932 87.8337 87.3647 87.7618C87.716 87.6942 88.1019 87.6735 88.4377 87.7107C88.7634 87.7474 89.2036 87.9311 89.3808 87.988C89.4234 88.0018 89.4745 88.0359 89.4995 88.0524" stroke="white" stroke-linecap="round" stroke-linejoin="round"/>
<path d="M81.7792 101.429C81.7105 101.391 81.5727 101.316 81.4896 101.235C81.3305 101.079 81.0016 100.774 80.8244 100.493C80.6402 100.201 80.4832 99.8364 80.3831 99.483C80.2772 99.1094 80.2096 98.666 80.1883 98.2509C80.1655 97.8129 80.1889 97.3163 80.2479 96.8538C80.3102 96.3721 80.4204 95.8489 80.5604 95.3593C80.7041 94.8563 80.9744 94.1756 81.1102 93.835" stroke="white" stroke-linecap="round" stroke-linejoin="round"/>
<path d="M85.6484 96.0312C85.7889 95.739 86.07 95.1551 86.3233 94.7485C86.5761 94.3424 86.8683 93.9432 87.1701 93.5893C87.4649 93.2439 87.8034 92.9038 88.1345 92.6254C88.4512 92.3593 88.8168 92.1049 89.1559 91.9197C89.4757 91.7451 89.844 91.5939 90.1708 91.5136C90.4774 91.4375 90.8217 91.4055 91.115 91.4343C91.3976 91.4625 91.791 91.644 91.9288 91.6871C91.9336 91.6887 91.9389 91.6929 91.9416 91.6951" stroke="white" stroke-linecap="round" stroke-linejoin="round"/>
<path d="M86.152 101.727C86.0727 101.681 85.9141 101.588 85.8236 101.488C85.681 101.329 85.426 101.04 85.2967 100.774C85.1605 100.493 85.0572 100.138 85.0061 99.8048C84.9513 99.4498 84.9396 99.0288 84.9683 98.6419C84.9987 98.2336 85.0785 97.777 85.1887 97.3565C85.302 96.9211 85.5346 96.3277 85.6506 96.0312" stroke="white" stroke-linecap="round" stroke-linejoin="round"/>
<path d="M71.9844 120.354C72.9956 120.938 74.0069 121.522 75.0181 122.106" stroke="white" stroke-linecap="round" stroke-linejoin="round"/>
<path d="M210.547 200.344C228.066 210.457 245.585 220.571 263.104 230.684" stroke="white" stroke-linecap="round" stroke-linejoin="round"/>
<path d="M71.9844 120.354C72.9956 119.771 74.0069 119.188 75.0181 118.604" stroke="white" stroke-linecap="round" stroke-linejoin="round"/>
<path d="M263.102 230.684C270.354 226.497 277.607 222.311 284.859 218.124" stroke="white" stroke-linecap="round" stroke-linejoin="round"/>
<path d="M263.102 234.626V230.685" stroke="white" stroke-linecap="round" stroke-linejoin="round"/>
<path d="M71.9844 124.296C72.9956 124.879 74.0069 125.463 75.0181 126.046" stroke="white" stroke-linecap="round" stroke-linejoin="round"/>
<path d="M210.547 204.284C228.066 214.398 245.585 224.511 263.104 234.625" stroke="white" stroke-linecap="round" stroke-linejoin="round"/>
<path d="M71.9844 124.296V120.354" stroke="white" stroke-linecap="round" stroke-linejoin="round"/>
<path d="M302.25 208.278C302.367 208.243 302.6 208.172 302.78 208.144C303.056 208.101 303.531 208.029 303.911 208.021C304.29 208.013 304.729 208.052 305.054 208.095C305.327 208.131 305.682 208.229 305.859 208.278" stroke="white" stroke-linecap="round" stroke-linejoin="round"/>
<path fill-rule="evenodd" clip-rule="evenodd" d="M307.469 226.741C307.469 226.387 307.516 225.978 307.595 225.605C307.678 225.216 307.809 224.795 307.965 224.407C308.124 224.012 308.328 223.607 308.552 223.236C308.776 222.864 309.038 222.499 309.311 222.179C309.577 221.866 309.886 221.559 310.187 221.313C310.473 221.079 310.808 220.857 311.114 220.705C311.401 220.562 311.735 220.446 312.024 220.399C312.296 220.353 312.599 220.355 312.85 220.415C313.096 220.474 313.335 220.593 313.529 220.756C313.722 220.919 313.896 221.153 314.011 221.394C314.134 221.648 314.223 221.977 314.262 222.283C314.304 222.61 314.302 223.001 314.262 223.356C314.22 223.731 314.13 224.151 314.011 224.535C313.889 224.93 313.721 225.346 313.529 225.73C313.335 226.117 313.1 226.506 312.85 226.855C312.602 227.2 312.313 227.539 312.024 227.825C311.745 228.1 311.421 228.367 311.114 228.568C310.826 228.758 310.488 228.93 310.187 229.031C309.906 229.126 309.583 229.182 309.311 229.176C309.051 229.171 308.776 229.109 308.552 228.996C308.328 228.884 308.12 228.706 307.965 228.502C307.806 228.291 307.673 228.006 307.595 227.731C307.512 227.438 307.469 227.074 307.469 226.741Z" stroke="white" stroke-linecap="round" stroke-linejoin="round"/>
<path fill-rule="evenodd" clip-rule="evenodd" d="M305.078 228.12C305.078 227.656 305.124 227.138 305.205 226.655C305.289 226.152 305.42 225.613 305.58 225.106C305.744 224.587 305.952 224.05 306.186 223.543C306.423 223.031 306.699 222.517 306.998 222.034C307.296 221.552 307.631 221.077 307.979 220.644C308.322 220.217 308.706 219.799 309.088 219.435C309.459 219.082 309.874 218.738 310.274 218.459C310.656 218.191 311.087 217.94 311.487 217.758C311.866 217.585 312.29 217.442 312.673 217.365C313.036 217.291 313.433 217.264 313.781 217.295C314.118 217.325 314.464 217.413 314.762 217.552C315.061 217.69 315.341 217.888 315.574 218.124C315.811 218.363 316.024 218.672 316.181 218.987C316.344 219.316 316.476 219.718 316.555 220.102C316.639 220.508 316.682 220.98 316.682 221.422C316.682 221.887 316.636 222.405 316.555 222.889C316.471 223.39 316.34 223.93 316.181 224.436C316.017 224.955 315.808 225.492 315.574 225.999C315.337 226.512 315.061 227.026 314.762 227.509C314.464 227.991 314.129 228.465 313.781 228.899C313.438 229.325 313.055 229.744 312.673 230.108C312.302 230.462 311.886 230.805 311.487 231.084C311.104 231.352 310.674 231.602 310.274 231.784C309.895 231.957 309.47 232.101 309.088 232.178C308.725 232.252 308.328 232.279 307.979 232.248C307.643 232.218 307.297 232.13 306.998 231.992C306.699 231.854 306.419 231.654 306.186 231.419C305.95 231.18 305.736 230.871 305.58 230.556C305.417 230.226 305.284 229.825 305.205 229.44C305.121 229.034 305.078 228.562 305.078 228.12Z" stroke="white" stroke-linecap="round" stroke-linejoin="round"/>
<path d="M299.72 215.388C299.719 215.397 299.717 215.414 299.723 215.425C299.825 215.618 300.068 216.247 300.333 216.542C300.595 216.834 300.969 217.053 301.312 217.196C301.653 217.337 302.03 217.384 302.398 217.398C302.79 217.414 303.249 217.368 303.666 217.288C304.126 217.201 304.778 216.999 305.156 216.875C305.426 216.787 305.768 216.625 305.939 216.544" stroke="white" stroke-linecap="round" stroke-linejoin="round"/>
<path d="M307.914 225.361C307.977 225.44 308.04 225.518 308.103 225.597" stroke="white" stroke-linecap="round" stroke-linejoin="round"/>
<path d="M284.602 216.3C284.617 215.972 284.647 215.317 284.728 214.833C284.812 214.331 284.943 213.791 285.103 213.285C285.267 212.766 285.475 212.229 285.71 211.722C285.946 211.21 286.222 210.695 286.521 210.212C286.819 209.73 287.154 209.256 287.503 208.823C287.845 208.397 288.228 207.978 288.61 207.613C288.981 207.26 289.396 206.917 289.797 206.637C290.179 206.37 290.609 206.119 291.01 205.937C291.389 205.764 291.813 205.621 292.196 205.544C292.558 205.47 292.956 205.442 293.304 205.474C293.64 205.503 294.085 205.668 294.285 205.73C294.364 205.755 294.459 205.814 294.505 205.844" stroke="white" stroke-linecap="round" stroke-linejoin="round"/>
<path d="M286.301 220.055C286.16 219.965 285.877 219.783 285.71 219.598C285.51 219.378 285.259 219.05 285.103 218.735C284.94 218.405 284.807 218.004 284.728 217.62C284.645 217.214 284.616 216.604 284.602 216.3" stroke="white" stroke-linecap="round" stroke-linejoin="round"/>
<path d="M300.196 215.756C300.189 215.761 300.175 215.771 300.17 215.781C300.146 215.828 300.085 215.966 300.055 216.035" stroke="white" stroke-linecap="round" stroke-linejoin="round"/>
<path d="M308.421 223.505C308.448 223.704 308.504 224.103 308.462 224.397C308.412 224.742 308.276 225.251 308.121 225.575C307.982 225.866 307.682 226.185 307.531 226.343" stroke="white" stroke-linecap="round" stroke-linejoin="round"/>
<path d="M200.188 51.75C200.541 51.8171 201.249 51.9512 201.683 52.0928C202.068 52.2184 202.548 52.4717 202.788 52.5984" stroke="white" stroke-linecap="round" stroke-linejoin="round"/>
<path d="M179.962 81.0561C179.882 80.7336 179.723 80.0885 179.656 79.5962C179.577 79.0193 179.503 78.2651 179.489 77.5961C179.473 76.9047 179.5 76.1617 179.564 75.448C179.629 74.714 179.74 73.9375 179.882 73.1913C180.027 72.4276 180.218 71.6319 180.437 70.8654C180.659 70.0852 180.925 69.2842 181.218 68.5108C181.513 67.729 181.85 66.9381 182.211 66.1722C182.575 65.4021 182.974 64.6335 183.4 63.8884C183.825 63.1438 184.284 62.4088 184.763 61.7025C185.239 60.9994 185.749 60.3065 186.274 59.6518C186.792 59.0041 187.348 58.3659 187.909 57.7741C188.459 57.1924 189.049 56.6202 189.636 56.1023C190.209 55.5957 190.824 55.1012 191.426 54.6664C192.012 54.2432 192.64 53.8366 193.247 53.4923C193.834 53.1591 194.465 52.8477 195.065 52.6002C195.644 52.3613 196.265 52.1526 196.849 52.0063C197.412 51.8647 198.01 51.7641 198.567 51.7215C199.105 51.68 199.827 51.7274 200.187 51.7508" stroke="white" stroke-linecap="round" stroke-linejoin="round"/>
<path d="M203.719 42.9658C204.134 43.0334 204.965 43.1691 205.552 43.3469C206.133 43.5225 206.706 43.7541 207.241 44.0319C207.775 44.3097 208.288 44.6408 208.763 45.0139C209.24 45.3885 209.696 45.8202 210.103 46.2806C210.516 46.7479 210.906 47.2764 211.243 47.8177C211.588 48.3723 211.908 48.9891 212.172 49.6065C212.445 50.2409 212.686 50.9392 212.877 51.6263C213.074 52.3342 213.236 53.1038 213.351 53.8537C213.47 54.6271 213.551 55.4574 213.588 56.2632C213.628 57.0918 213.592 58.3059 213.586 58.8243C213.584 59.0079 213.565 59.2522 213.555 59.3741" stroke="white" stroke-linecap="round" stroke-linejoin="round"/>
<path d="M172.979 85.0896C172.966 85.022 172.94 84.8868 172.93 84.7841C172.882 84.3317 172.731 83.181 172.692 82.3752C172.653 81.5465 172.655 80.6662 172.695 79.813C172.736 78.9386 172.82 78.0194 172.938 77.1284C173.058 76.2183 173.222 75.2704 173.417 74.3512C173.615 73.4161 173.857 72.4522 174.128 71.516C174.402 70.5671 174.718 69.5979 175.061 68.6553C175.407 67.7026 175.794 66.7398 176.206 65.8014C176.621 64.8567 177.073 63.912 177.55 62.9891C178.028 62.0641 178.54 61.1465 179.076 60.2513C179.613 59.3572 180.181 58.4742 180.769 57.6199C181.354 56.7694 181.972 55.929 182.605 55.1254C183.232 54.3281 183.895 53.5409 184.565 52.7974C185.227 52.0624 185.926 51.338 186.626 50.6626C187.314 49.9984 188.042 49.3453 188.763 48.7471C189.469 48.16 190.217 47.5868 190.951 47.0721C191.668 46.5692 192.428 46.0838 193.165 45.659C193.884 45.245 194.646 44.8527 195.379 44.5222C196.092 44.2013 196.846 43.9085 197.567 43.677C198.266 43.4524 199.003 43.2629 199.702 43.132C200.381 43.0053 201.091 42.9218 201.761 42.8941C202.413 42.8669 203.283 42.9329 203.719 42.9659" stroke="white" stroke-linecap="round" stroke-linejoin="round"/>
<path d="M198.602 40.0107C199.017 40.0783 199.848 40.2135 200.435 40.3913C201.016 40.5675 201.778 40.9278 202.123 41.0768C202.255 41.1338 202.419 41.2338 202.501 41.2844" stroke="white" stroke-linecap="round" stroke-linejoin="round"/>
<path d="M169.478 87.1086C169.36 86.8829 169.124 86.431 168.984 86.076C168.784 85.5672 168.469 84.7433 168.279 84.0562C168.082 83.3483 167.92 82.5787 167.804 81.8283C167.686 81.056 167.605 80.2257 167.567 79.4199C167.528 78.5918 167.53 77.7109 167.57 76.8577C167.611 75.9833 167.695 75.0641 167.813 74.1731C167.933 73.263 168.098 72.3151 168.292 71.3965C168.49 70.4613 168.733 69.4975 169.002 68.5613C169.277 67.6118 169.593 66.6426 169.936 65.7C170.283 64.7473 170.668 63.7845 171.081 62.8461C171.495 61.902 171.948 60.9572 172.426 60.0343C172.904 59.1093 173.415 58.1918 173.952 57.2965C174.488 56.4019 175.056 55.5194 175.644 54.6646C176.229 53.8141 176.848 52.9737 177.48 52.1701C178.108 51.3733 178.77 50.5861 179.441 49.8421C180.103 49.1076 180.801 48.3827 181.501 47.7078C182.19 47.0436 182.918 46.3905 183.638 45.7918C184.345 45.2052 185.093 44.632 185.827 44.1174C186.543 43.6144 187.303 43.129 188.041 42.7043C188.759 42.2902 189.521 41.8979 190.254 41.5674C190.967 41.2465 191.721 40.9538 192.441 40.7222C193.141 40.4971 193.878 40.3076 194.578 40.1772C195.257 40.0506 195.967 39.9665 196.637 39.9388C197.289 39.9122 198.159 39.9782 198.594 40.0112" stroke="white" stroke-linecap="round" stroke-linejoin="round"/>
<path d="M275.874 83.6425C275.751 83.5691 275.503 83.4222 275.305 83.3386C274.925 83.18 274.184 82.8532 273.598 82.6893C273.006 82.5238 272.373 82.4067 271.749 82.3444C271.112 82.2816 270.434 82.271 269.778 82.3098C269.104 82.3497 268.391 82.4461 267.709 82.5845C267.007 82.7271 266.267 82.9288 265.566 83.1657C264.843 83.4089 264.088 83.7133 263.374 84.0454C262.639 84.3877 261.877 84.7911 261.158 85.2158C260.42 85.6517 259.663 86.1483 258.946 86.6614C258.214 87.1862 257.467 87.7689 256.762 88.365C256.043 88.9729 255.319 89.6355 254.633 90.3082C253.937 90.9916 253.241 91.724 252.583 92.4664C251.917 93.218 251.26 94.0126 250.637 94.8163C250.009 95.6269 249.396 96.472 248.816 97.3284C248.233 98.1885 247.672 99.0757 247.143 99.9747C246.613 100.874 246.108 101.795 245.637 102.723C245.167 103.648 244.723 104.596 244.316 105.541C243.911 106.481 243.533 107.445 243.195 108.398C242.86 109.34 242.553 110.31 242.287 111.258C242.026 112.192 241.723 113.588 241.604 114.088C241.591 114.143 241.577 114.218 241.57 114.256" stroke="white" stroke-linecap="round" stroke-linejoin="round"/>
<path d="M284.248 89.6173C284.055 89.3544 283.667 88.8275 283.328 88.4746C282.947 88.0786 282.45 87.605 281.966 87.2414C281.483 86.879 280.964 86.5602 280.423 86.2941C279.881 86.0274 279.303 85.8081 278.717 85.6442C278.124 85.4787 277.491 85.3621 276.867 85.2999C276.23 85.2371 275.552 85.2259 274.896 85.2647C274.223 85.3046 273.508 85.401 272.826 85.5394C272.124 85.682 271.385 85.8842 270.684 86.1206C269.961 86.3638 269.206 86.6688 268.492 87.0009C267.758 87.3426 266.996 87.746 266.277 88.1707C265.539 88.6066 264.78 89.1032 264.064 89.6163C263.331 90.1411 262.586 90.7244 261.881 91.3205C261.162 91.9283 260.437 92.5904 259.751 93.2631C259.054 93.9471 258.359 94.6799 257.701 95.4224C257.035 96.1739 256.377 96.9675 255.755 97.7712C255.127 98.5812 254.514 99.4275 253.934 100.284C253.352 101.143 252.791 102.031 252.261 102.93C251.731 103.829 251.226 104.75 250.755 105.677C250.285 106.603 249.763 107.761 249.434 108.496C249.199 109.021 248.921 109.735 248.781 110.092" stroke="white" stroke-linecap="round" stroke-linejoin="round"/>
<path d="M128.117 103.717C128.169 104.261 128.274 105.35 128.292 106.169C128.311 107.003 128.257 108.151 128.229 108.725" stroke="white" stroke-linecap="round" stroke-linejoin="round"/>
<path d="M88.2266 123.021C88.2329 122.989 88.2468 122.923 88.2596 122.875C88.3937 122.376 88.7396 120.968 89.0292 120.029C89.3224 119.078 89.6577 118.11 90.0191 117.167C90.3837 116.215 90.7877 115.256 91.2172 114.321C91.6488 113.381 92.1167 112.442 92.6095 111.525C93.1034 110.607 93.6303 109.697 94.1807 108.812C94.7299 107.927 95.3117 107.055 95.912 106.213C96.5092 105.375 97.1399 104.548 97.7828 103.759C98.4204 102.977 99.0927 102.205 99.7713 101.478C100.441 100.761 101.148 100.054 101.854 99.3974C102.548 98.7528 103.282 98.1195 104.007 97.5425C104.717 96.9773 105.469 96.4264 106.205 95.9346C106.923 95.4546 107.683 94.9915 108.421 94.5908C109.139 94.2006 109.9 93.8339 110.63 93.529C111.341 93.2325 112.091 92.9664 112.807 92.7609C113.502 92.5614 114.233 92.399 114.926 92.2952C115.598 92.1941 116.3 92.1388 116.96 92.1377C117.605 92.1372 118.266 92.1872 118.887 92.2894C119.498 92.39 120.112 92.5459 120.686 92.7503C121.256 92.9526 121.812 93.2101 122.332 93.5135C122.853 93.8169 123.352 94.1746 123.81 94.5705C124.271 94.9697 124.71 95.4269 125.099 95.9086C125.495 96.3988 125.868 96.9507 126.186 97.5127C126.513 98.0886 126.812 98.7273 127.058 99.3638C127.311 100.018 127.532 100.736 127.703 101.44C127.88 102.166 128.038 103.2 128.116 103.717" stroke="white" stroke-linecap="round" stroke-linejoin="round"/>
<path d="M83.1016 120.066C83.1085 120.033 83.1223 119.968 83.1351 119.919C83.2692 119.421 83.6152 118.013 83.9042 117.074C84.1974 116.122 84.5327 115.154 84.8941 114.211C85.2587 113.26 85.6627 112.301 86.0922 111.366C86.5238 110.425 86.9917 109.486 87.485 108.569C87.9795 107.651 88.5064 106.741 89.0567 105.855C89.606 104.972 90.1877 104.099 90.7881 103.257C91.3853 102.419 92.0154 101.591 92.6589 100.802C93.2954 100.021 93.9682 99.2489 94.6468 98.5218C95.3163 97.8049 96.0237 97.0981 96.7299 96.4419C97.424 95.7973 98.1579 95.164 98.8834 94.587C99.5934 94.0213 100.344 93.4704 101.08 92.9781C101.798 92.498 102.559 92.036 103.297 91.6353C104.015 91.2451 104.775 90.8784 105.506 90.5735C106.216 90.277 106.967 90.0109 107.683 89.8054C108.378 89.6058 109.109 89.4435 109.801 89.3392C110.474 89.2381 111.175 89.1822 111.835 89.1817C112.48 89.1806 113.142 89.2317 113.764 89.3339C114.373 89.4339 114.992 89.5936 115.561 89.7943C116.119 89.9912 116.822 90.3558 117.174 90.5383" stroke="white" stroke-linecap="round" stroke-linejoin="round"/>
<path d="M94.2216 127.823C94.2142 127.747 94.1987 127.595 94.1977 127.481C94.1939 127.073 94.1588 126.076 94.1982 125.375C94.2392 124.653 94.3249 123.885 94.443 123.147C94.5638 122.391 94.7299 121.6 94.9252 120.838C95.1243 120.061 95.3675 119.261 95.6379 118.489C95.912 117.705 96.2271 116.91 96.5682 116.14C96.9121 115.364 97.2926 114.588 97.6992 113.834C98.1059 113.08 98.5471 112.334 99.0107 111.614C99.4726 110.897 99.9676 110.19 100.479 109.518C100.986 108.852 101.529 108.196 102.079 107.584C102.621 106.981 103.201 106.387 103.781 105.845C104.348 105.315 104.957 104.796 105.555 104.334C106.138 103.885 106.763 103.45 107.369 103.077C107.957 102.715 108.588 102.374 109.192 102.096C109.775 101.828 110.4 101.587 110.99 101.41C111.559 101.238 112.165 101.104 112.732 101.029C113.279 100.957 113.854 100.932 114.386 100.962C114.904 100.991 115.434 101.075 115.922 101.209C116.404 101.341 117.056 101.658 117.314 101.765C117.37 101.788 117.437 101.832 117.471 101.854" stroke="white" stroke-linecap="round" stroke-linejoin="round"/>
<path d="M185.461 131.542C185.011 131.552 184.108 131.572 183.438 131.661C182.75 131.752 182.022 131.901 181.329 132.089C180.616 132.282 179.867 132.536 179.159 132.82C178.429 133.113 177.67 133.468 176.953 133.847C176.215 134.236 175.453 134.686 174.735 135.156C173.998 135.636 173.245 136.177 172.533 136.732C171.806 137.299 171.07 137.922 170.374 138.558C169.665 139.205 168.954 139.902 168.281 140.611C167.599 141.329 166.921 142.094 166.28 142.868C165.631 143.65 164.995 144.47 164.392 145.301C163.787 146.137 163.199 147.006 162.643 147.884C162.086 148.765 161.552 149.67 161.051 150.585C160.55 151.499 160.075 152.434 159.635 153.373C159.197 154.306 158.785 155.264 158.412 156.214C158.042 157.157 157.689 158.159 157.395 159.077C157.116 159.948 156.804 161.129 156.648 161.72" stroke="white" stroke-linecap="round" stroke-linejoin="round"/>
<path d="M190.554 132.897C190.249 132.734 189.639 132.409 189.154 132.231C188.623 132.038 187.979 131.846 187.374 131.733C186.758 131.618 185.893 131.567 185.461 131.542" stroke="white" stroke-linecap="round" stroke-linejoin="round"/>
<path d="M190.58 134.498C190.129 134.509 189.227 134.529 188.557 134.618C187.869 134.709 187.14 134.857 186.448 135.045C185.734 135.237 184.986 135.492 184.278 135.776C183.548 136.069 182.788 136.424 182.071 136.803C181.333 137.192 180.572 137.642 179.854 138.111C179.118 138.592 178.365 139.133 177.653 139.688C176.926 140.255 176.189 140.878 175.493 141.513C174.784 142.16 174.073 142.858 173.4 143.567C172.718 144.285 172.041 145.05 171.399 145.823C170.75 146.605 170.114 147.427 169.511 148.257C168.905 149.094 168.318 149.962 167.761 150.84C167.205 151.721 166.671 152.626 166.169 153.541C165.668 154.455 165.193 155.39 164.753 156.328C164.316 157.262 163.746 158.667 163.53 159.17C163.505 159.228 163.476 159.307 163.461 159.346" stroke="white" stroke-linecap="round" stroke-linejoin="round"/>
<path d="M198.927 138.871C198.862 138.775 198.732 138.583 198.618 138.453C198.355 138.154 197.806 137.491 197.352 137.08C196.903 136.673 196.411 136.303 195.898 135.988C195.384 135.672 194.835 135.403 194.271 135.187C193.703 134.971 193.097 134.802 192.492 134.689C191.876 134.574 191.011 134.524 190.578 134.498" stroke="white" stroke-linecap="round" stroke-linejoin="round"/>
<path d="M185.633 206.064V201.628" stroke="white" stroke-linecap="round" stroke-linejoin="round"/>
<path d="M176.078 194.881V200.546" stroke="white" stroke-linecap="round" stroke-linejoin="round"/>
<path d="M176.078 200.546C176.093 200.836 176.122 201.416 176.198 201.843C176.277 202.287 176.401 202.766 176.551 203.213C176.705 203.671 176.901 204.143 177.12 204.588C177.342 205.036 177.6 205.484 177.877 205.899C178.152 206.311 178.464 206.717 178.783 207.079C179.095 207.432 179.447 207.779 179.793 208.07C180.125 208.35 180.502 208.617 180.856 208.822C181.192 209.016 181.573 209.189 181.919 209.297C182.245 209.4 182.61 209.466 182.929 209.472C183.235 209.479 183.558 209.434 183.835 209.338C184.111 209.244 184.372 209.092 184.592 208.901C184.813 208.708 185.014 208.451 185.161 208.183C185.315 207.904 185.441 207.555 185.515 207.221C185.593 206.868 185.621 206.331 185.634 206.063" stroke="white" stroke-linecap="round" stroke-linejoin="round"/>
<path d="M192.203 215.286C193.198 213.086 194.194 210.886 195.189 208.686" stroke="white" stroke-linecap="round" stroke-linejoin="round"/>
<path d="M169.5 202.182C169.669 202.704 170.007 203.75 170.312 204.515C170.621 205.288 170.974 206.069 171.353 206.822C171.734 207.578 172.154 208.331 172.6 209.054C173.044 209.776 173.525 210.487 174.025 211.16C174.52 211.829 175.054 212.487 175.597 213.098C176.132 213.698 176.709 214.289 177.284 214.823C177.846 215.344 178.454 215.853 179.048 216.298C179.625 216.73 180.25 217.145 180.85 217.492C181.431 217.827 182.059 218.138 182.654 218.379C183.225 218.611 183.842 218.81 184.417 218.941C184.97 219.066 185.561 219.146 186.104 219.163C186.629 219.179 187.177 219.139 187.676 219.042C188.167 218.947 188.657 218.789 189.102 218.58C189.547 218.371 189.969 218.102 190.348 217.788C190.729 217.472 191.087 217.089 191.389 216.682C191.698 216.265 192.033 215.613 192.201 215.287" stroke="white" stroke-linecap="round" stroke-linejoin="round"/>
<path d="M165.203 187.713C166.636 192.536 168.07 197.359 169.503 202.182" stroke="white" stroke-linecap="round" stroke-linejoin="round"/>
<path d="M196.367 214.412C196.556 214.297 196.933 214.068 197.177 213.848C197.486 213.569 197.917 213.148 198.218 212.741C198.526 212.324 198.863 211.673 199.03 211.347" stroke="white" stroke-linecap="round" stroke-linejoin="round"/>
<path d="M149.797 163.294C150.149 163.477 150.852 163.843 151.406 164.056C151.98 164.278 152.619 164.474 153.242 164.623C153.88 164.776 154.564 164.895 155.234 164.972C155.911 165.049 156.614 165.089 157.305 165.089C157.995 165.089 158.699 165.049 159.377 164.972C160.046 164.895 160.731 164.776 161.368 164.623C161.991 164.474 162.63 164.278 163.204 164.056C163.758 163.843 164.461 163.477 164.813 163.294" stroke="white" stroke-linecap="round" stroke-linejoin="round"/>
<path d="M153.891 160.931C154.05 161.014 154.37 161.18 154.622 161.277C154.883 161.377 155.173 161.466 155.456 161.534C155.746 161.603 156.057 161.658 156.362 161.693C156.669 161.728 156.989 161.747 157.303 161.747C157.617 161.747 157.937 161.728 158.245 161.693C158.549 161.658 158.861 161.603 159.15 161.534C159.433 161.466 159.723 161.377 159.984 161.277C160.236 161.18 160.556 161.014 160.716 160.931" stroke="white" stroke-linecap="round" stroke-linejoin="round"/>
<path d="M164.813 186.94C164.461 187.124 163.758 187.489 163.204 187.703C162.63 187.924 161.991 188.12 161.368 188.269C160.731 188.422 160.046 188.541 159.377 188.618C158.699 188.696 157.995 188.736 157.305 188.736C156.614 188.736 155.911 188.696 155.234 188.618C154.564 188.541 153.88 188.422 153.242 188.269C152.619 188.12 151.98 187.924 151.406 187.703C150.852 187.489 150.149 187.124 149.797 186.94" stroke="white" stroke-linecap="round" stroke-linejoin="round"/>
<path d="M291.087 90.3984C248.995 114.697 206.904 138.996 164.812 163.294" stroke="white" stroke-linecap="round" stroke-linejoin="round"/>
<path d="M286.993 88.0342C244.902 112.333 202.81 136.631 160.719 160.93" stroke="white" stroke-linecap="round" stroke-linejoin="round"/>
<path d="M210.547 199.95C218.173 195.547 225.799 191.145 233.424 186.742" stroke="white" stroke-linecap="round" stroke-linejoin="round"/>
<path d="M210.547 199.95V204.285" stroke="white" stroke-linecap="round" stroke-linejoin="round"/>
<path d="M164.812 186.94C181.64 198.71 198.467 210.48 215.294 222.249" stroke="white" stroke-linecap="round" stroke-linejoin="round"/>
<path d="M252.992 184.667C265.689 161.125 278.387 137.585 291.084 114.044" stroke="white" stroke-linecap="round" stroke-linejoin="round"/>
<path d="M215.297 222.249C215.611 222.445 216.241 222.838 216.75 223.055C217.261 223.274 217.811 223.445 218.363 223.559C218.922 223.676 219.525 223.74 220.111 223.752C220.713 223.764 221.357 223.722 221.972 223.632C222.606 223.54 223.28 223.389 223.917 223.2C224.575 223.005 225.268 222.748 225.92 222.462C226.592 222.167 227.294 221.81 227.952 221.43C228.629 221.039 229.328 220.585 229.983 220.116C230.656 219.635 231.442 218.996 231.987 218.542C232.425 218.177 232.978 217.654 233.254 217.394" stroke="white" stroke-linecap="round" stroke-linejoin="round"/>
<path d="M223.852 179.261C223.868 178.981 223.899 178.422 223.98 178.011C224.064 177.582 224.198 177.119 224.358 176.691C224.521 176.253 224.729 175.803 224.961 175.383C225.193 174.963 225.466 174.546 225.753 174.171C226.035 173.801 226.358 173.438 226.681 173.13C226.993 172.834 227.35 172.546 227.69 172.326C228.01 172.117 228.381 171.928 228.715 171.809C229.027 171.697 229.383 171.622 229.69 171.611C229.983 171.601 230.366 171.701 230.557 171.746C230.659 171.77 230.781 171.844 230.842 171.881" stroke="white" stroke-linecap="round" stroke-linejoin="round"/>
<path d="M225.051 181.913C225.029 181.902 224.986 181.882 224.961 181.858C224.845 181.746 224.515 181.486 224.358 181.247C224.194 180.998 224.059 180.673 223.98 180.362C223.895 180.032 223.866 179.518 223.852 179.261" stroke="white" stroke-linecap="round" stroke-linejoin="round"/>
<path d="M141.607 158.566C141.308 158.411 140.71 158.1 140.275 157.949C139.861 157.805 139.404 157.698 138.994 157.658C138.603 157.619 138.184 157.633 137.814 157.705C137.454 157.775 137.094 157.907 136.78 158.088C136.466 158.27 136.173 158.515 135.931 158.793C135.685 159.077 135.463 159.432 135.301 159.791C135.131 160.166 134.995 160.615 134.912 161.046C134.825 161.498 134.796 162.172 134.781 162.508" stroke="white" stroke-linecap="round" stroke-linejoin="round"/>
<path d="M149.8 163.294C147.07 161.718 144.34 160.142 141.609 158.565" stroke="white" stroke-linecap="round" stroke-linejoin="round"/>
<path d="M136.148 179.06C140.699 181.686 145.25 184.313 149.8 186.94" stroke="white" stroke-linecap="round" stroke-linejoin="round"/>
<path d="M134.781 176.695C134.784 176.767 134.791 176.911 134.807 177.018C134.824 177.129 134.852 177.247 134.885 177.358C134.919 177.473 134.962 177.592 135.011 177.704C135.06 177.818 135.118 177.932 135.181 178.041C135.244 178.149 135.313 178.257 135.387 178.356C135.46 178.455 135.542 178.552 135.624 178.638C135.704 178.723 135.792 178.806 135.88 178.876C135.964 178.943 136.085 179.021 136.146 179.06" stroke="white" stroke-linecap="round" stroke-linejoin="round"/>
<path d="M134.781 162.508V176.695" stroke="white" stroke-linecap="round" stroke-linejoin="round"/>
<path d="M153.893 160.931C151.163 159.355 148.433 157.778 145.703 156.202" stroke="white" stroke-linecap="round" stroke-linejoin="round"/>
<path d="M140.875 155.723C141.1 155.619 141.548 155.411 141.909 155.34C142.278 155.269 142.698 155.255 143.09 155.294C143.499 155.334 143.956 155.44 144.37 155.584C144.805 155.735 145.403 156.046 145.701 156.201" stroke="white" stroke-linecap="round" stroke-linejoin="round"/>
<path d="M291.086 90.3985C291.398 90.1995 292.023 89.8008 292.407 89.4692C292.771 89.1547 293.124 88.7779 293.388 88.4096C293.641 88.0583 293.858 87.6511 293.992 87.2599C294.124 86.8778 294.196 86.4632 294.196 86.0645C294.196 85.6659 294.124 85.2507 293.992 84.8681C293.858 84.4769 293.641 84.0697 293.388 83.7179C293.124 83.3496 292.771 82.9728 292.407 82.6577C292.023 82.3267 291.398 81.9285 291.086 81.7295" stroke="white" stroke-linecap="round" stroke-linejoin="round"/>
<path d="M294.196 109.709C294.172 109.98 294.124 110.523 293.992 110.905C293.858 111.297 293.641 111.703 293.388 112.055C293.124 112.423 292.771 112.8 292.407 113.115C292.023 113.446 291.398 113.844 291.086 114.044" stroke="white" stroke-linecap="round" stroke-linejoin="round"/>
<path d="M286.992 88.0344C287.134 87.9434 287.418 87.7624 287.592 87.6118C287.758 87.4686 287.918 87.2967 288.038 87.1296C288.153 86.9699 288.251 86.7847 288.313 86.607C288.373 86.4335 288.406 86.245 288.406 86.0641C288.406 85.8826 288.373 85.6942 288.313 85.5201C288.251 85.3424 288.153 85.1572 288.038 84.9975C287.918 84.8298 287.758 84.659 287.592 84.5158C287.418 84.3652 287.134 84.1842 286.992 84.0938" stroke="white" stroke-linecap="round" stroke-linejoin="round"/>
<path d="M278.797 79.3643C281.527 80.9407 284.257 82.5172 286.987 84.0937" stroke="white" stroke-linecap="round" stroke-linejoin="round"/>
<path d="M282.898 77.001C285.629 78.5775 288.359 80.1534 291.089 81.7293" stroke="white" stroke-linecap="round" stroke-linejoin="round"/>
<path d="M278.799 79.3641C278.5 79.2092 277.902 78.8989 277.467 78.7472C277.053 78.6035 276.596 78.4971 276.186 78.4566C275.794 78.4178 275.375 78.4321 275.007 78.504C274.646 78.5737 274.286 78.7057 273.972 78.8872C273.658 79.0682 273.365 79.314 273.124 79.5913C272.877 79.875 272.654 80.2311 272.492 80.5898C272.322 80.965 272.182 81.5468 272.104 81.8443C272.059 82.0173 272.035 82.2562 272.023 82.3755" stroke="white" stroke-linecap="round" stroke-linejoin="round"/>
<path d="M278.07 76.523C278.295 76.4187 278.744 76.2101 279.104 76.1398C279.473 76.0685 279.893 76.0547 280.284 76.0935C280.695 76.134 281.151 76.2404 281.565 76.3841C282 76.5353 282.598 76.8461 282.897 77.001" stroke="white" stroke-linecap="round" stroke-linejoin="round"/>
<path d="M86.3161 126.648C83.5857 125.072 80.8554 123.496 78.125 121.92" stroke="white" stroke-linecap="round" stroke-linejoin="round"/>
<path d="M91.3936 132.188C91.3414 132.088 91.2366 131.887 91.1455 131.744C90.9321 131.407 90.4803 130.664 90.1114 130.167C89.7463 129.674 89.3418 129.19 88.932 128.757C88.5312 128.334 88.0863 127.92 87.6514 127.569C87.2315 127.23 86.6237 126.843 86.3203 126.648" stroke="white" stroke-linecap="round" stroke-linejoin="round"/>
<path d="M90.4141 124.285C90.718 124.479 91.3258 124.866 91.7452 125.205C92.1806 125.557 92.6255 125.97 93.0257 126.393C93.4356 126.826 93.8411 127.31 94.2062 127.803C94.5751 128.3 95.0264 129.043 95.2398 129.38C95.3308 129.523 95.4357 129.724 95.4879 129.824" stroke="white" stroke-linecap="round" stroke-linejoin="round"/>
<path d="M90.4182 124.285C87.6878 122.709 84.9575 121.133 82.2266 119.557" stroke="white" stroke-linecap="round" stroke-linejoin="round"/>
<path d="M78.1255 113.252C77.813 113.451 77.1887 113.849 76.805 114.181C76.4409 114.496 76.0886 114.873 75.8241 115.241C75.5718 115.593 75.3541 115.999 75.2195 116.391C75.088 116.773 75.0156 117.188 75.0156 117.586C75.0156 117.985 75.088 118.4 75.2195 118.782C75.3541 119.173 75.5718 119.581 75.8241 119.933C76.0886 120.301 76.4409 120.678 76.805 120.992C77.1887 121.324 77.813 121.721 78.1255 121.92" stroke="white" stroke-linecap="round" stroke-linejoin="round"/>
<path d="M75.0374 141.628C75.0305 141.496 75.0231 141.364 75.0156 141.231" stroke="white" stroke-linecap="round" stroke-linejoin="round"/>
<path d="M82.2256 115.616C82.084 115.707 81.8003 115.887 81.6258 116.038C81.4602 116.181 81.3 116.352 81.1797 116.52C81.0653 116.68 80.9668 116.865 80.9056 117.043C80.8455 117.216 80.8125 117.405 80.8125 117.586C80.8125 117.767 80.8455 117.955 80.9056 118.129C80.9668 118.307 81.0653 118.492 81.1797 118.653C81.3 118.82 81.4602 118.991 81.6258 119.134C81.8003 119.285 82.084 119.466 82.2256 119.556" stroke="white" stroke-linecap="round" stroke-linejoin="round"/>
<path d="M82.2266 115.616C83.1415 115.088 84.0559 114.56 84.9702 114.032" stroke="white" stroke-linecap="round" stroke-linejoin="round"/>
<path d="M121.422 92.9873C137.71 83.5843 153.999 74.1813 170.287 64.7783" stroke="white" stroke-linecap="round" stroke-linejoin="round"/>
<path d="M206.742 43.7336C207.328 43.3957 207.913 43.0577 208.498 42.7197" stroke="white" stroke-linecap="round" stroke-linejoin="round"/>
<path d="M78.125 113.252C81.4413 111.338 84.7572 109.423 88.073 107.509" stroke="white" stroke-linecap="round" stroke-linejoin="round"/>
<path d="M117.328 90.6232C136.018 79.8338 154.708 69.0443 173.398 58.2549" stroke="white" stroke-linecap="round" stroke-linejoin="round"/>
<path d="M202.648 41.3699C203.234 41.0319 203.819 40.694 204.404 40.3555" stroke="white" stroke-linecap="round" stroke-linejoin="round"/>
<path d="M215.32 42.7197C218.05 44.2962 220.781 45.8721 223.511 47.4486" stroke="white" stroke-linecap="round" stroke-linejoin="round"/>
<path d="M228.59 52.9867C228.538 52.8866 228.433 52.686 228.342 52.5428C228.129 52.2064 227.677 51.4634 227.308 50.9658C226.943 50.4735 226.538 49.9886 226.128 49.5559C225.728 49.1333 225.284 48.7192 224.848 48.3679C224.428 48.0289 223.82 47.642 223.516 47.4482" stroke="white" stroke-linecap="round" stroke-linejoin="round"/>
<path d="M227.609 45.084C227.913 45.2777 228.521 45.6652 228.94 46.0042C229.376 46.3555 229.821 46.769 230.221 47.1916C230.631 47.6249 231.036 48.1087 231.402 48.601C231.77 49.0986 232.222 49.8411 232.435 50.1785C232.526 50.3217 232.63 50.5224 232.683 50.6229" stroke="white" stroke-linecap="round" stroke-linejoin="round"/>
<path d="M219.414 40.3555C222.144 41.9319 224.875 43.5079 227.605 45.0844" stroke="white" stroke-linecap="round" stroke-linejoin="round"/>
<path d="M215.325 42.7192C215.166 42.6362 214.846 42.4701 214.594 42.3733C214.333 42.2727 214.043 42.1833 213.76 42.1157C213.47 42.0465 213.159 41.9922 212.855 41.9571C212.547 41.9219 212.227 41.9033 211.913 41.9033C211.599 41.9033 211.279 41.9219 210.972 41.9571C210.667 41.9922 210.356 42.0465 210.066 42.1157C209.783 42.1833 209.492 42.2727 209.231 42.3733C208.98 42.4701 208.66 42.6362 208.5 42.7192" stroke="white" stroke-linecap="round" stroke-linejoin="round"/>
<path d="M219.415 40.3558C219.063 40.1732 218.359 39.8076 217.806 39.5936C217.232 39.3722 216.593 39.1763 215.97 39.0273C215.332 38.8746 214.648 38.7553 213.979 38.6787C213.301 38.601 212.597 38.5605 211.907 38.5605C211.216 38.5605 210.513 38.601 209.836 38.6787C209.166 38.7553 208.481 38.8746 207.844 39.0273C207.22 39.1763 206.582 39.3722 206.007 39.5936C205.454 39.8076 204.75 40.1732 204.398 40.3558" stroke="white" stroke-linecap="round" stroke-linejoin="round"/>
<path d="M34.8984 130.349L91.6117 97.6055" stroke="white" stroke-width="0.5" stroke-miterlimit="1.5" stroke-linecap="round" stroke-linejoin="round"/>
<path d="M35.3828 171.507L63.348 155.361" stroke="white" stroke-width="0.5" stroke-miterlimit="1.5" stroke-linecap="round" stroke-linejoin="round"/>
<path d="M38.3281 168.303V130.797" stroke="white" stroke-width="0.5" stroke-miterlimit="1.5" stroke-linecap="round" stroke-linejoin="round"/>
<path fill-rule="evenodd" clip-rule="evenodd" d="M38.2135 128.745C38.2311 128.696 38.2774 128.663 38.3295 128.663C38.3812 128.663 38.4275 128.696 38.445 128.745C38.6558 129.333 39.0944 130.558 39.253 131.001C39.2668 131.038 39.261 131.08 39.2381 131.113C39.2147 131.146 39.1774 131.165 39.1375 131.165C38.7644 131.165 37.8942 131.165 37.5211 131.165C37.4812 131.165 37.4439 131.146 37.421 131.113C37.3976 131.08 37.3923 131.038 37.4056 131.001C37.5642 130.558 38.0033 129.333 38.2135 128.745Z" fill="white"/>
<path fill-rule="evenodd" clip-rule="evenodd" d="M38.445 169.473C38.4275 169.521 38.3812 169.554 38.3295 169.554C38.2774 169.554 38.2311 169.521 38.2135 169.473C38.0033 168.885 37.5642 167.659 37.4056 167.216C37.3923 167.178 37.3976 167.136 37.421 167.104C37.4439 167.071 37.4812 167.052 37.5211 167.052C37.8942 167.052 38.7644 167.052 39.1375 167.052C39.1774 167.052 39.2147 167.071 39.2381 167.104C39.261 167.136 39.2668 167.178 39.253 167.216C39.0944 167.659 38.6558 168.885 38.445 169.473Z" fill="white"/>
<path d="M33.0963 148.67C34.0081 148.67 34.7473 147.931 34.7473 147.019C34.7473 146.107 34.0081 145.368 33.0963 145.368C32.1845 145.368 31.4453 146.107 31.4453 147.019C31.4453 147.931 32.1845 148.67 33.0963 148.67Z" fill="white"/>
<path d="M33.0963 154.963C34.0081 154.963 34.7473 154.224 34.7473 153.312C34.7473 152.4 34.0081 151.661 33.0963 151.661C32.1845 151.661 31.4453 152.4 31.4453 153.312C31.4453 154.224 32.1845 154.963 33.0963 154.963Z" fill="white"/>
<path d="M16.5547 193.445L31.0277 185.089" stroke="white" stroke-width="0.5" stroke-miterlimit="1.5" stroke-linecap="round" stroke-linejoin="round"/>
<path d="M84.7188 232.875L99.1918 224.519" stroke="white" stroke-width="0.5" stroke-miterlimit="1.5" stroke-linecap="round" stroke-linejoin="round"/>
<path d="M86.0153 229.699L21.9375 192.704" stroke="white" stroke-width="0.5" stroke-miterlimit="1.5" stroke-linecap="round" stroke-linejoin="round"/>
<path fill-rule="evenodd" clip-rule="evenodd" d="M20.0993 191.778C20.0658 191.738 20.061 191.681 20.0866 191.637C20.1126 191.591 20.1643 191.568 20.2154 191.577C20.8296 191.689 22.1101 191.921 22.5732 192.006C22.6125 192.013 22.6461 192.039 22.6631 192.075C22.6796 192.111 22.678 192.154 22.6578 192.188C22.4715 192.511 22.0361 193.265 21.8499 193.587C21.8296 193.622 21.794 193.645 21.7546 193.649C21.7147 193.652 21.6753 193.636 21.6497 193.605C21.3453 193.247 20.5033 192.254 20.0993 191.778Z" fill="white"/>
<path fill-rule="evenodd" clip-rule="evenodd" d="M87.7781 230.533C87.8117 230.573 87.8164 230.63 87.7909 230.674C87.7648 230.72 87.7132 230.743 87.6621 230.734C87.0479 230.622 85.7668 230.39 85.3043 230.306C85.2649 230.298 85.2314 230.273 85.2144 230.236C85.1979 230.2 85.1995 230.158 85.2197 230.123C85.406 229.801 85.8413 229.046 86.0276 228.724C86.0478 228.689 86.0835 228.666 86.1229 228.663C86.1628 228.659 86.2022 228.675 86.2277 228.706C86.5322 229.064 87.3742 230.057 87.7781 230.533Z" fill="white"/>
<path fill-rule="evenodd" clip-rule="evenodd" d="M42.9036 210.409C43.3645 209.611 44.3864 209.337 45.1847 209.798C45.9831 210.259 46.2572 211.281 45.7963 212.079C45.3354 212.878 44.3129 213.152 43.5146 212.691C42.7162 212.23 42.4427 211.207 42.9036 210.409Z" fill="white"/>
<path fill-rule="evenodd" clip-rule="evenodd" d="M48.4191 213.593C48.88 212.795 49.9024 212.521 50.7008 212.982C51.4991 213.443 51.7727 214.465 51.3118 215.263C50.8508 216.061 49.829 216.335 49.0306 215.874C48.2323 215.413 47.9581 214.391 48.4191 213.593Z" fill="white"/>
<path fill-rule="evenodd" clip-rule="evenodd" d="M53.9347 216.776C54.3956 215.977 55.418 215.703 56.2164 216.164C57.0142 216.625 57.2883 217.648 56.8274 218.446C56.3665 219.244 55.3441 219.518 54.5457 219.057C53.7479 218.596 53.4738 217.574 53.9347 216.776Z" fill="white"/>
<path d="M134.25 130.394H155.561L168.637 143.483" stroke="white" stroke-width="0.5" stroke-miterlimit="1.5" stroke-linecap="round" stroke-linejoin="round"/>
<path fill-rule="evenodd" clip-rule="evenodd" d="M140.109 125.192C140.109 124.284 140.847 123.546 141.755 123.546C142.663 123.546 143.4 124.284 143.4 125.192C143.4 126.1 142.663 126.837 141.755 126.837C140.847 126.837 140.109 126.1 140.109 125.192Z" fill="white"/>
<path fill-rule="evenodd" clip-rule="evenodd" d="M146.375 125.192C146.375 124.284 147.112 123.546 148.021 123.546C148.929 123.546 149.666 124.284 149.666 125.192C149.666 126.1 148.929 126.837 148.021 126.837C147.112 126.837 146.375 126.1 146.375 125.192Z" fill="white"/>
<path fill-rule="evenodd" clip-rule="evenodd" d="M167.906 143.725C167.906 143.131 168.388 142.649 168.982 142.649C169.576 142.649 170.058 143.131 170.058 143.725C170.058 144.318 169.576 144.801 168.982 144.801C168.388 144.801 167.906 144.318 167.906 143.725Z" fill="white"/>
<path d="M324.769 162.401H290.203L258.789 193.846" stroke="white" stroke-width="0.5" stroke-miterlimit="1.5" stroke-linecap="round" stroke-linejoin="round"/>
<path fill-rule="evenodd" clip-rule="evenodd" d="M308.182 157.199C308.182 156.291 307.444 155.554 306.536 155.554C305.628 155.554 304.891 156.291 304.891 157.199C304.891 158.107 305.628 158.845 306.536 158.845C307.444 158.845 308.182 158.107 308.182 157.199Z" fill="white"/>
<path fill-rule="evenodd" clip-rule="evenodd" d="M314.33 157.199C314.33 156.291 313.593 155.554 312.685 155.554C311.776 155.554 311.039 156.291 311.039 157.199C311.039 158.107 311.776 158.845 312.685 158.845C313.593 158.845 314.33 158.107 314.33 157.199Z" fill="white"/>
<path fill-rule="evenodd" clip-rule="evenodd" d="M301.909 157.199C301.909 156.291 301.171 155.554 300.263 155.554C299.355 155.554 298.617 156.291 298.617 157.199C298.617 158.107 299.355 158.845 300.263 158.845C301.171 158.845 301.909 158.107 301.909 157.199Z" fill="white"/>
<path fill-rule="evenodd" clip-rule="evenodd" d="M259.862 193.846C259.862 193.253 259.381 192.771 258.787 192.771C258.193 192.771 257.711 193.253 257.711 193.846C257.711 194.44 258.193 194.922 258.787 194.922C259.381 194.922 259.862 194.44 259.862 193.846Z" fill="white"/>
<path d="M127.141 29.8828H161.241L192.654 61.3277" stroke="white" stroke-width="0.5" stroke-miterlimit="1.5" stroke-linecap="round" stroke-linejoin="round"/>
<path fill-rule="evenodd" clip-rule="evenodd" d="M142.297 24.3873C142.297 23.4793 143.034 22.7422 143.943 22.7422C144.851 22.7422 145.588 23.4793 145.588 24.3873C145.588 25.2958 144.851 26.033 143.943 26.033C143.034 26.033 142.297 25.2958 142.297 24.3873Z" fill="white"/>
<path fill-rule="evenodd" clip-rule="evenodd" d="M136.148 24.3873C136.148 23.4793 136.886 22.7422 137.794 22.7422C138.702 22.7422 139.439 23.4793 139.439 24.3873C139.439 25.2958 138.702 26.033 137.794 26.033C136.886 26.033 136.148 25.2958 136.148 24.3873Z" fill="white"/>
<path fill-rule="evenodd" clip-rule="evenodd" d="M148.57 24.3873C148.57 23.4793 149.307 22.7422 150.216 22.7422C151.124 22.7422 151.861 23.4793 151.861 24.3873C151.861 25.2958 151.124 26.033 150.216 26.033C149.307 26.033 148.57 25.2958 148.57 24.3873Z" fill="white"/>
<path fill-rule="evenodd" clip-rule="evenodd" d="M191.578 61.3286C191.578 60.7346 192.06 60.2529 192.654 60.2529C193.248 60.2529 193.73 60.7346 193.73 61.3286C193.73 61.922 193.248 62.4042 192.654 62.4042C192.06 62.4042 191.578 61.922 191.578 61.3286Z" fill="white"/>
<path d="M130.953 228.634H156.015L180.865 203.771" stroke="white" stroke-width="0.5" stroke-miterlimit="1.5" stroke-linecap="round" stroke-linejoin="round"/>
<path fill-rule="evenodd" clip-rule="evenodd" d="M139.195 223.342C139.195 224.251 139.933 224.989 140.843 224.989C141.752 224.989 142.49 224.251 142.49 223.342C142.49 222.432 141.752 221.694 140.843 221.694C139.933 221.694 139.195 222.432 139.195 223.342Z" fill="white"/>
<path fill-rule="evenodd" clip-rule="evenodd" d="M145.477 223.342C145.477 224.251 146.215 224.989 147.124 224.989C148.033 224.989 148.771 224.251 148.771 223.342C148.771 222.432 148.033 221.694 147.124 221.694C146.215 221.694 145.477 222.432 145.477 223.342Z" fill="white"/>
<path fill-rule="evenodd" clip-rule="evenodd" d="M179.789 203.771C179.789 204.364 180.271 204.846 180.865 204.846C181.459 204.846 181.94 204.364 181.94 203.771C181.94 203.177 181.459 202.694 180.865 202.694C180.271 202.694 179.789 203.177 179.789 203.771Z" fill="white"/>
</svg>
