<svg width="1320" height="356" viewBox="0 0 1320 356" fill="none" xmlns="http://www.w3.org/2000/svg">
<mask id="mask0_918_32167" style="mask-type:alpha" maskUnits="userSpaceOnUse" x="0" y="0" width="1320" height="356">
<rect width="1320" height="356" rx="24" fill="white"/>
</mask>
<g mask="url(#mask0_918_32167)">
<path fill-rule="evenodd" clip-rule="evenodd" d="M1231.07 431.896C1231.24 428.283 1231.22 424.556 1231.17 422.662C1231.15 421.937 1231.02 421.182 1230.74 420.528C1230.46 419.875 1229.85 419.244 1229.48 418.741C1229.18 418.325 1228.85 417.793 1228.54 417.514C1228.29 417.288 1227.64 417.4 1227.64 417.064C1227.51 400.888 1227.55 336.576 1227.78 320.458C1227.78 320.039 1228.62 320.456 1229.03 320.355C1229.7 320.187 1230.93 319.817 1231.82 319.45C1232.7 319.087 1233.57 318.685 1234.35 318.151C1235.27 317.524 1236.44 316.62 1237.34 315.69C1238.27 314.72 1239.18 313.519 1239.94 312.332C1240.71 311.144 1241.37 309.714 1241.91 308.565C1242.4 307.545 1242.92 306.429 1243.22 305.439C1243.5 304.527 1243.62 303.57 1243.74 302.623C1243.87 301.647 1244.05 300.598 1244 299.581C1243.94 298.521 1243.73 297.135 1243.43 296.258C1243.19 295.538 1242.76 294.869 1242.24 294.32C1241.68 293.73 1240.62 293.116 1240.06 292.718C1239.68 292.446 1239.3 292.176 1238.9 291.934C1238.13 291.476 1236.61 290.643 1235.49 289.967C1234.37 289.291 1232.98 288.395 1232.16 287.877C1231.62 287.537 1230.71 287.384 1230.53 286.858C1230.36 286.332 1231.17 284.743 1231.12 284.723C1231.08 284.702 1231.32 282.022 1231.29 281.982C1231.26 281.942 1231.15 273.697 1231.1 273.649C1231.05 273.601 1230.77 272.143 1230.79 272.035C1230.82 271.927 1230.21 271.165 1230.06 270.9C1229.91 270.635 1229.15 269.675 1229 269.582C1228.85 269.49 1227.59 268.69 1227.44 268.664C1227.29 268.638 1225.84 267.685 1225.69 267.677C1225.53 267.669 1219.79 266.729 1219.62 266.817C1219.45 266.906 1216.18 267.412 1216.17 267.409C1216.16 267.405 1214.01 268.473 1213.87 268.424C1213.72 268.374 1212.52 268.99 1212.27 269.108C1212.02 269.226 1210.1 271.455 1210.09 271.456C1210.08 271.458 1209.57 273.201 1209.5 273.284C1209.44 273.366 1209.56 274.542 1209.4 274.571C1209.23 274.6 1202.19 270.337 1202.09 270.437C1201.99 270.537 1199.57 270.021 1199.58 270.004C1199.58 269.988 1197.81 270.264 1197.78 270.256C1197.76 270.249 1194.7 271.597 1194.64 271.596C1194.58 271.594 1192.77 270.317 1192.71 270.334C1192.64 270.352 1124.62 231.157 1124.54 230.85C1124.45 230.543 1196.05 98.8186 1196.08 98.6436C1196.12 98.4686 1197.2 97.4106 1197.19 97.3916C1197.18 97.3736 1200.09 95.1226 1200.02 95.0796C1199.95 95.0356 1201.03 93.6756 1201.01 93.5086C1200.98 93.3406 1201.62 91.3666 1201.56 91.3516C1201.49 91.3366 1201.6 89.4106 1201.63 89.0766C1201.65 88.7416 1201.67 46.9656 1201.62 47.1316C1201.57 47.2966 1201.89 44.5796 1201.85 44.5786C1201.82 44.5786 1200.22 41.1216 1200.16 41.1326C1200.11 41.1436 1196.9 38.0626 1196.85 38.0036C1196.81 37.9446 1177.81 27.1076 1177.82 27.2496C1177.83 27.3916 1175.23 27.2366 1174.96 27.0116C1174.69 26.7856 1172.22 27.3356 1172.18 27.3256C1172.13 27.3156 1169.24 29.3216 1169.14 29.3216C1169.05 29.3216 1165.79 31.1926 1165.62 31.2136C1165.45 31.2346 1163.72 32.5296 1163.56 32.5046C1163.4 32.4796 1161.97 33.8916 1161.84 33.9576C1161.71 34.0236 1160.92 35.9916 1160.79 36.2066C1160.65 36.4216 1160.18 38.5386 1160.03 38.5746C1159.89 38.6106 1155.81 38.8336 1155.82 38.8156C1155.83 38.7976 1150.93 39.7586 1150.76 39.6886C1150.58 39.6186 1146.75 40.8766 1146.58 40.8056C1146.41 40.7346 1143.26 42.5416 1143.04 42.5576C1142.83 42.5736 1139.84 44.1886 1139.72 44.1526C1139.61 44.1166 1137.19 46.0496 1137.18 46.0476C1137.16 46.0446 1133.47 45.7366 1133.48 45.5756C1133.49 45.4156 1128.83 46.5576 1128.59 46.5896C1128.36 46.6206 1124.95 47.9556 1124.77 47.9686C1124.59 47.9816 1121.36 50.2486 1121.03 50.3016C1120.7 50.3536 1117.56 52.5266 1117.3 52.6836C1117.04 52.8416 1114.5 55.2776 1114.34 55.3816C1114.17 55.4856 1111.33 58.4956 1111.21 58.5066C1111.09 58.5186 1109.02 61.1646 1108.87 61.2606C1108.72 61.3566 1105.15 67.6526 1104.97 67.7216C1104.79 67.7906 1103.04 70.7306 1102.93 70.8136C1102.82 70.8956 1101.22 74.3486 1101.1 74.5856C1100.99 74.8236 1099.97 77.9486 1099.84 78.1366C1099.71 78.3246 1098.85 80.9736 1098.75 81.2936C1098.64 81.6126 1097.86 85.4606 1097.79 85.5056C1097.71 85.5496 1097.31 90.3756 1097.23 90.5966C1097.16 90.8166 1097.35 94.7296 1097.33 94.8736C1097.31 95.0186 1097.88 97.3436 1097.91 97.7796C1097.95 98.2146 1098.64 100.808 1098.48 100.895C1098.32 100.983 1023 144.971 1022.95 145.016C1022.91 145.06 1019.7 140.952 1019.58 141.07C1019.46 141.188 1015.81 138.701 1015.78 138.704C1015.76 138.707 1011.88 136.484 1011.77 136.431C1011.66 136.378 1005.51 132.786 1005.42 132.817C1005.32 132.849 999.372 131.353 999.36 131.289C999.348 131.224 993.8 131.35 993.637 131.332C993.474 131.315 989.256 132.518 989.17 132.431C989.084 132.344 986.28 133.674 986.047 133.57C985.814 133.465 981.758 135.698 981.636 135.49C981.515 135.281 976.928 138.28 976.784 138.279C976.64 138.279 973.678 138.439 973.61 138.331C973.542 138.223 967.547 139.236 967.377 139.268C967.206 139.3 964.049 140.973 963.947 140.934C963.844 140.895 960.677 142.848 960.515 142.863C960.353 142.878 957.674 145.03 957.376 145.032C957.077 145.033 954.49 147.162 954.34 147.347C954.189 147.533 950.997 151.56 950.869 151.4C950.741 151.239 948.143 154.577 947.944 154.733C947.745 154.889 944.995 159.765 944.875 159.7C944.756 159.636 943.264 162.65 943.096 162.707C942.928 162.765 941.907 165.463 941.802 165.538C941.697 165.613 940.183 169.696 940.022 169.781C939.861 169.866 939.021 173.005 938.911 173.055C938.801 173.105 938.312 175.373 938.254 175.419C938.196 175.466 937.616 177.614 937.649 177.932C937.681 178.25 937.379 181.184 937.288 181.367C937.197 181.55 936.982 185.43 936.923 185.503C936.864 185.575 928.724 180.669 928.6 180.632C928.476 180.595 920.179 176.535 920.154 176.535C920.129 176.535 918.009 175.605 917.874 175.589C917.739 175.574 915.532 175.949 915.386 175.954C915.24 175.958 913.933 176.711 913.735 176.692C913.537 176.672 912.232 177.516 912.102 177.63C911.972 177.743 907.991 179.821 907.942 179.768C907.893 179.714 905.565 181.176 905.387 181.228C905.21 181.28 904.041 182.784 903.889 182.983C903.737 183.181 902.893 185.173 902.84 185.305C902.787 185.436 902.524 187.446 902.506 187.503C902.489 187.561 902.525 189.347 902.422 189.384C902.319 189.42 902.125 192.022 902.063 192.093C902 192.163 902.303 215.419 902.242 215.547C902.182 215.676 902.387 217.765 902.387 217.807C902.387 217.85 904.222 219.849 904.275 219.812C904.327 219.775 906.54 221.717 906.653 221.539C906.766 221.362 922.466 230.967 922.536 230.881C922.605 230.795 929.76 235.343 929.93 235.067C930.099 234.792 931.835 235.747 931.848 235.784C931.862 235.82 933.459 236.677 933.483 236.674C933.508 236.672 936.602 237.726 936.439 237.746C936.275 237.766 940.639 238.441 940.636 238.5C940.633 238.558 945.293 238.776 945.266 238.716C945.238 238.657 949.172 238.451 949.062 238.356C948.952 238.261 952.096 238.116 952.06 238.139C952.023 238.162 954.29 237.412 954.394 237.267C954.499 237.122 956.712 236.526 956.67 236.428C956.628 236.33 958.829 235.284 958.768 235.287C958.708 235.29 959.729 236.142 959.67 236.068C959.612 235.993 959.65 237.494 959.656 237.511C959.661 237.528 961.445 242.452 961.296 242.441C961.147 242.43 967.752 263.96 967.647 263.925C967.542 263.89 969.252 267.934 969.252 267.934C969.252 267.934 970.481 271.071 970.42 271.055C970.359 271.04 971.989 274.085 971.936 274.173C971.882 274.26 973.309 276.965 973.313 276.787C973.318 276.609 974.957 279.154 974.834 279.143C974.71 279.133 976.339 281.317 976.373 281.378C976.407 281.438 978.894 284.268 978.879 284.245C978.865 284.223 982.579 288.225 982.549 288.117C982.519 288.008 985.447 290.247 985.441 290.346C985.434 290.444 989.198 293.009 989.187 293.075C989.176 293.142 993.455 294.843 993.404 294.884C993.352 294.925 996.424 295.643 996.411 295.523C996.398 295.404 998.817 296.041 998.825 295.962C998.834 295.882 1001.69 295.856 1001.57 295.76C1001.45 295.665 1003.67 294.805 1003.78 294.843C1003.88 294.882 1006.02 294.019 1006.06 293.841C1006.1 293.664 1008.58 292.416 1008.34 292.431C1008.1 292.445 1017.14 287.756 1016.98 287.71C1016.82 287.663 1019.15 286.112 1019.33 285.882C1019.52 285.652 1021.29 284.49 1021.2 284.409C1021.1 284.329 1021.72 283.73 1022.12 283.05C1022.53 282.37 1023.28 280.679 1023.22 280.599C1023.17 280.518 1032 285.985 1031.89 286.046C1031.78 286.108 1048.24 297.693 1048.22 297.699C1048.2 297.706 1053.01 301.025 1052.91 301.028C1052.81 301.03 1056.42 303.268 1056.54 303.345C1056.66 303.422 1061.28 304.54 1061.21 304.418C1061.15 304.297 1066.04 304.686 1066.07 304.433C1066.11 304.18 1071.99 303.086 1072.02 302.904C1072.06 302.722 1075.37 301.642 1075.49 301.336C1075.61 301.03 1079.74 298.975 1079.63 298.982C1079.52 298.989 1081.43 297.743 1081.85 297.229C1082.26 296.714 1084.48 295.34 1084.45 295.182C1084.42 295.023 1087.24 292.794 1087.23 292.625C1087.22 292.456 1112.67 307.149 1112.59 307.061C1112.51 306.972 1140.6 323.154 1140.46 323.359C1140.33 323.565 1143.64 324.519 1143.53 324.539C1143.42 324.559 1144.85 327.539 1144.7 327.734C1144.56 327.93 1145.86 330.049 1145.92 330.25C1145.98 330.45 1147.42 331.902 1147.61 332.168C1147.8 332.435 1150.17 334.832 1150.16 334.746C1150.16 334.66 1153.71 336.467 1153.68 336.477C1153.65 336.488 1156.77 338.503 1156.83 338.488C1156.9 338.472 1158.88 339.611 1158.93 339.656C1158.98 339.701 1163.27 340.717 1163.36 340.624C1163.45 340.53 1168.77 340.231 1168.81 340.237C1168.86 340.242 1173.77 339.275 1173.75 339.254C1173.72 339.233 1176.78 337.745 1176.8 337.66C1176.82 337.575 1179.74 336.47 1179.85 336.338C1179.96 336.205 1184.29 334.184 1184.16 334.023C1184.03 333.862 1186.84 331.802 1186.73 331.805C1186.63 331.807 1188.39 330.328 1188.38 330.239C1188.36 330.149 1193.77 325.637 1193.69 325.506C1193.61 325.375 1197.79 320.598 1197.76 320.56C1197.72 320.521 1200.09 317.756 1199.93 317.624C1199.78 317.492 1202.21 314.582 1202.06 314.581C1201.92 314.58 1204 311.11 1203.95 311.059C1203.9 311.007 1205.69 308.48 1205.67 308.462C1205.65 308.445 1211.36 311.37 1211.24 311.383C1211.12 311.396 1213.47 312.948 1213.4 312.91C1213.33 312.871 1213.37 317.902 1213.25 317.882C1213.14 317.861 1213.27 325.498 1213.2 325.485C1213.14 325.472 1213.22 339.983 1213.14 339.912C1213.06 339.84 1212.94 344.409 1212.94 344.59C1212.95 344.772 1213.35 363.285 1213.09 363.306C1212.83 363.328 1213.38 378.31 1213.24 378.341C1213.11 378.372 1213.11 392.944 1213.05 392.956C1212.99 392.967 1213.16 404.809 1213.05 404.941C1212.94 405.073 1213.17 413.955 1213.12 413.981C1213.07 414.007 1212.91 417.198 1212.87 417.186C1212.82 417.173 1211.22 418.008 1211.21 418.008C1211.2 418.009 1210.37 419.283 1210.32 419.327C1210.26 419.372 1209.74 420.633 1209.72 420.674C1209.7 420.714 1209.53 423.275 1209.53 423.34C1209.52 423.405 1209.49 424.969 1209.47 425.04C1209.45 425.111 1209.58 425.847 1209.56 425.898C1209.54 425.948 1209.41 432.677 1209.39 432.666C1209.38 432.654 1209.85 433.827 1209.96 433.975C1210.07 434.122 1211.33 435.977 1211.4 436.038C1211.46 436.098 1213.56 437.733 1213.55 437.719C1213.53 437.705 1216.72 439.114 1216.7 439.124C1216.67 439.135 1220.11 439.342 1220.11 439.395C1220.11 439.449 1223.12 439.378 1223.07 439.388C1223.03 439.398 1226.09 438.393 1226.02 438.394C1225.96 438.395 1228.49 436.927 1228.38 436.923C1228.28 436.919 1230.63 434.672 1230.51 434.571C1230.39 434.469 1231.1 433.288 1231.05 433.266C1231 433.244 1231.06 431.957 1231.07 431.896Z" fill="white" fill-opacity="0.1"/>
<path fill-rule="evenodd" clip-rule="evenodd" d="M789.931 150.374C789.954 150.515 1086.25 -20.7066 1086.25 -20.8856C1086.26 -21.0646 1084.61 -24.3186 1084.42 -24.2556C1084.23 -24.1936 1080.35 -28.9676 1080.16 -28.9176C1079.96 -28.8666 1076.67 -31.2266 1076.44 -31.2426C1076.21 -31.2586 1074.19 -32.2086 1074.14 -32.5196C1074.09 -32.8306 1064.32 -38.0256 1064.15 -38.2636C1063.97 -38.5026 1058.86 -41.5566 1058.78 -41.5296C1058.71 -41.5026 1052.86 -43.0716 1052.81 -43.0976C1052.76 -43.1246 1049.06 -43.4576 1048.98 -43.4776C1048.9 -43.4986 1044.42 -43.3966 1044.2 -43.3726C1043.98 -43.3486 1039.66 -42.6216 1039.58 -42.6166C1039.5 -42.6116 1035.34 -41.3236 1035.2 -41.3536C1035.05 -41.3846 1032.78 -39.9716 1032.76 -39.9726C1032.75 -39.9736 1030.13 -38.3426 1030.06 -38.3606C1029.99 -38.3776 1027.54 -39.3696 1027.44 -39.5126C1027.33 -39.6546 1024.15 -40.3306 1024.03 -40.4726C1023.92 -40.6146 1020.37 -40.7696 1020.22 -40.8166C1020.08 -40.8636 1015.98 -40.8536 1015.72 -40.7696C1015.45 -40.6856 1012.15 -40.1296 1011.92 -40.0346C1011.68 -39.9396 1007.64 -38.5946 1007.4 -38.4666C1007.17 -38.3386 1003.46 -36.2776 1003.36 -36.3486C1003.25 -36.4186 1000.3 -34.2156 1000.14 -34.2146C999.983 -34.2136 996.956 -32.0586 996.813 -32.1016C996.669 -32.1436 994.468 -29.6776 994.217 -29.7186C993.967 -29.7606 990.748 -27.0166 990.615 -26.9836C990.482 -26.9516 988.057 -23.8596 987.953 -23.8766C987.85 -23.8936 985.985 -22.0516 985.815 -22.0126C985.645 -21.9726 982.913 -18.5766 982.772 -18.3666C982.63 -18.1566 980.249 -14.8036 980.017 -14.5246C979.785 -14.2446 978.361 -11.8326 978.166 -11.7236C977.971 -11.6136 976.351 -8.35464 976.094 -8.20564C975.838 -8.05764 974.708 -6.44364 974.686 -6.46864C974.664 -6.49264 964.361 -0.201637 964.212 -0.379639C964.064 -0.55864 870.074 54.4944 869.995 54.4464C869.916 54.3974 867.387 53.3814 867.246 53.1824C867.105 52.9834 862.763 51.7454 862.524 51.7624C862.285 51.7784 857.647 51.4934 857.337 51.6084C857.027 51.7244 852.084 52.9204 851.927 52.8424C851.769 52.7644 846.415 54.5324 846.217 54.6614C846.018 54.7914 842.663 56.8084 842.561 56.7584C842.458 56.7084 839.035 58.4374 838.775 58.6134C838.515 58.7894 835.769 61.1674 835.554 61.2104C835.338 61.2544 833.444 63.1864 833.24 63.2334C833.037 63.2804 826.448 59.0033 826.396 58.9974C826.344 58.9924 826.057 55.6804 825.943 55.7214C825.83 55.7624 825.073 54.5264 824.968 54.4144C824.863 54.3024 823.348 52.8424 823.252 52.8734C823.155 52.9034 821.686 51.9014 821.588 51.9084C821.489 51.9164 819.149 50.4024 819.054 50.4604C818.959 50.5174 816.584 49.3904 816.496 49.2754C816.409 49.1604 814.182 48.5594 814.02 48.6904C813.858 48.8204 811.168 49.4904 810.991 49.5674C810.814 49.6434 808.484 51.3214 808.333 51.3564C808.181 51.3914 805.546 53.8314 805.393 53.8974C805.239 53.9634 803.563 56.4114 803.435 56.5034C803.306 56.5954 801.691 59.7104 801.603 59.7994C801.516 59.8874 800.391 62.9544 800.326 63.0554C800.262 63.1573 799.653 66.1423 799.618 66.2754C799.583 66.4074 799.758 68.6014 799.692 68.6044C799.625 68.6074 800.196 71.0274 800.209 71.3084C800.221 71.5894 801.307 72.9444 801.361 73.0484C801.414 73.1534 802.997 74.4784 803.028 74.4324C803.06 74.3874 805.289 76.2304 805.224 76.2244C805.158 76.2174 809.031 77.8984 808.88 78.0584C808.729 78.2184 811.504 79.3164 811.455 79.2994C811.406 79.2814 813.996 78.4944 813.922 78.5534C813.848 78.6124 815.699 78.2054 815.6 78.1724C815.501 78.1404 817.235 78.6894 817.156 78.7094C817.076 78.7304 818.43 79.8124 818.423 79.6854C818.415 79.5574 816.977 81.7744 816.968 81.8274C816.958 81.8804 815.511 84.4523 815.329 84.5643C815.147 84.6763 814.669 85.9004 814.573 85.9774C814.478 86.0544 813.596 86.9673 813.433 86.8943C813.269 86.8223 796.483 96.5354 796.384 96.5213C796.286 96.5073 792.643 99.3053 792.566 99.1964C792.489 99.0874 782.373 105.286 782.302 105.273C782.23 105.261 779.513 106.867 779.355 107.049C779.197 107.23 779.195 111.113 779.122 111.281C779.048 111.449 779.2 114.73 779.161 114.778C779.123 114.825 780.906 118.557 780.856 118.558C780.806 118.559 783.151 121.551 783.058 121.643C782.966 121.736 785.156 123.426 785.165 123.437C785.175 123.449 787.198 125.198 787.167 125.192C787.135 125.186 789.11 126.198 789.103 126.25C789.096 126.303 790.04 126.688 789.99 126.694C789.94 126.7 789.916 150.285 789.931 150.374Z" fill="white" fill-opacity="0.1"/>
<path d="M789.059 266.888C788.431 266.487 787.175 265.687 786.307 264.986C785.407 264.26 784.489 263.404 783.661 262.53C782.813 261.636 781.976 260.635 781.222 259.618C780.459 258.589 779.733 257.481 779.085 256.358C778.436 255.234 777.84 254.052 777.331 252.877C776.827 251.715 776.378 250.49 776.027 249.308C775.684 248.155 775.403 246.93 775.224 245.788C775.052 244.687 774.986 243.199 774.953 242.455" stroke="white" stroke-width="0.5" stroke-linecap="round" stroke-linejoin="round"/>
<path d="M835.551 293.727C820.055 284.781 804.559 275.835 789.062 266.889" stroke="white" stroke-width="0.5" stroke-linecap="round" stroke-linejoin="round"/>
<path d="M835.547 305.573V293.727" stroke="white" stroke-width="0.5" stroke-linecap="round" stroke-linejoin="round"/>
<path d="M707.305 231.537C750.053 256.216 792.801 280.894 835.549 305.572" stroke="white" stroke-width="0.5" stroke-linecap="round" stroke-linejoin="round"/>
<path d="M707.305 219.691V231.537" stroke="white" stroke-width="0.5" stroke-linecap="round" stroke-linejoin="round"/>
<path d="M753.793 246.529C738.297 237.583 722.801 228.637 707.305 219.691" stroke="white" stroke-width="0.5" stroke-linecap="round" stroke-linejoin="round"/>
<path d="M767.896 238.383C767.865 239.078 767.804 240.469 767.625 241.405C767.455 242.294 767.173 243.222 766.822 243.998C766.487 244.739 766.028 245.475 765.519 246.061C765.02 246.635 764.413 247.142 763.764 247.516C763.115 247.891 762.372 248.164 761.626 248.309C760.863 248.457 759.997 248.486 759.187 248.406C758.339 248.322 757.395 248.103 756.541 247.806C755.641 247.493 754.407 246.851 753.789 246.53" stroke="white" stroke-width="0.5" stroke-linecap="round" stroke-linejoin="round"/>
<path d="M767.898 162.855V238.382" stroke="white" stroke-width="0.5" stroke-linecap="round" stroke-linejoin="round"/>
<path d="M767.898 162.855C770.249 164.212 772.6 165.569 774.951 166.926" stroke="white" stroke-width="0.5" stroke-linecap="round" stroke-linejoin="round"/>
<path d="M774.953 242.456V166.927" stroke="white" stroke-width="0.5" stroke-linecap="round" stroke-linejoin="round"/>
<path d="M1223.81 -92.1914C1074.19 -5.81841 924.571 80.5546 774.953 166.927" stroke="white" stroke-width="0.5" stroke-linecap="round" stroke-linejoin="round"/>
<path d="M767.898 162.855C917.516 76.4823 1067.13 -9.89067 1216.75 -96.2637" stroke="white" stroke-width="0.5" stroke-linecap="round" stroke-linejoin="round"/>
<path d="M835.547 293.726C868.373 274.775 901.198 255.825 934.024 236.875" stroke="white" stroke-width="0.5" stroke-linecap="round" stroke-linejoin="round"/>
<path d="M1201.76 82.3164C1229.31 66.4134 1256.85 50.5104 1284.4 34.6064" stroke="white" stroke-width="0.5" stroke-linecap="round" stroke-linejoin="round"/>
<path d="M1284.4 34.6065C1268.91 25.6605 1253.41 16.7145 1237.91 7.76953" stroke="white" stroke-width="0.5" stroke-linecap="round" stroke-linejoin="round"/>
<path d="M835.547 305.572C874.974 282.811 914.401 260.051 953.827 237.291" stroke="white" stroke-width="0.5" stroke-linecap="round" stroke-linejoin="round"/>
<path d="M1199.48 95.4841C1227.79 79.1401 1256.1 62.7971 1284.41 46.4531" stroke="white" stroke-width="0.5" stroke-linecap="round" stroke-linejoin="round"/>
<path d="M1284.41 46.4534V34.6064" stroke="white" stroke-width="0.5" stroke-linecap="round" stroke-linejoin="round"/>
<path d="M1237.92 7.76896C1237.29 7.36796 1236.04 6.56796 1235.17 5.86796C1234.27 5.14196 1233.35 4.28696 1232.52 3.41296C1231.67 2.51896 1230.84 1.51696 1230.08 0.499962C1229.32 -0.530038 1228.59 -1.63804 1227.94 -2.76204C1227.3 -3.88504 1226.7 -5.06703 1226.19 -6.24203C1225.69 -7.40403 1225.24 -8.62904 1224.89 -9.81104C1224.54 -10.965 1224.26 -12.189 1224.08 -13.331C1223.91 -14.433 1223.85 -15.921 1223.81 -16.665" stroke="white" stroke-width="0.5" stroke-linecap="round" stroke-linejoin="round"/>
<path d="M707.305 219.691C727.503 208.031 747.702 196.371 767.9 184.71" stroke="white" stroke-width="0.5" stroke-linecap="round" stroke-linejoin="round"/>
<path d="M1231.07 274.126C1231.08 273.923 1231.09 273.518 1231.01 273.229C1230.89 272.799 1230.65 272.068 1230.36 271.546C1230.07 271.023 1229.7 270.529 1229.29 270.092C1228.86 269.643 1228.35 269.206 1227.81 268.849C1227.25 268.473 1226.57 268.111 1225.91 267.838C1225.22 267.552 1224.42 267.304 1223.65 267.133C1222.87 266.96 1221.79 266.858 1221.21 266.798C1220.85 266.762 1220.38 266.769 1220.15 266.772" stroke="white" stroke-linecap="round" stroke-linejoin="round"/>
<path d="M1220.14 266.772C1219.84 266.775 1219.23 266.782 1218.78 266.841C1218.15 266.924 1217.13 267.058 1216.34 267.268C1215.56 267.478 1214.78 267.75 1214.06 268.103C1213.34 268.457 1212.59 268.939 1212.02 269.389C1211.52 269.795 1211.05 270.301 1210.68 270.803C1210.32 271.291 1210.01 271.846 1209.8 272.4C1209.59 272.952 1209.47 273.765 1209.41 274.128C1209.39 274.275 1209.43 274.475 1209.45 274.574" stroke="white" stroke-linecap="round" stroke-linejoin="round"/>
<path d="M1231.14 283.483V274.597" stroke="white" stroke-linecap="round" stroke-linejoin="round"/>
<path d="M1209.4 274.587V283.473" stroke="white" stroke-linecap="round" stroke-linejoin="round"/>
<path d="M1209.46 283.502C1209.46 283.816 1209.46 284.445 1209.57 284.897C1209.7 285.408 1209.95 286.052 1210.24 286.572C1210.53 287.092 1210.91 287.583 1211.33 288.018C1211.76 288.465 1212.28 288.899 1212.82 289.253C1213.39 289.626 1214.07 289.984 1214.74 290.254C1215.43 290.536 1216.23 290.779 1217 290.945C1217.79 291.114 1218.63 291.225 1219.45 291.267C1220.28 291.31 1221.13 291.289 1221.95 291.202C1222.77 291.115 1223.6 290.966 1224.38 290.746C1225.16 290.527 1225.97 290.22 1226.66 289.884C1227.3 289.565 1227.94 289.153 1228.47 288.725C1228.98 288.315 1229.46 287.818 1229.84 287.319C1230.21 286.834 1230.52 286.281 1230.74 285.729C1230.95 285.18 1231.08 284.394 1231.14 284.006C1231.17 283.807 1231.13 283.537 1231.1 283.401" stroke="white" stroke-linecap="round" stroke-linejoin="round"/>
<path d="M787.281 125.092C788.171 125.605 789.061 126.119 789.951 126.633" stroke="white" stroke-linecap="round" stroke-linejoin="round"/>
<path d="M1151.49 335.348C1153.2 336.335 1154.91 337.322 1156.62 338.309" stroke="white" stroke-linecap="round" stroke-linejoin="round"/>
<path d="M823.569 53.1414C821.432 51.9084 819.294 50.6744 817.156 49.4404" stroke="white" stroke-linecap="round" stroke-linejoin="round"/>
<path d="M802.648 74.5723C804.786 75.8053 806.923 77.0393 809.06 78.2723" stroke="white" stroke-linecap="round" stroke-linejoin="round"/>
<path d="M1213.03 289.363V290.388" stroke="white" stroke-linecap="round" stroke-linejoin="round"/>
<path d="M1213.03 312.527V419.718" stroke="white" stroke-linecap="round" stroke-linejoin="round"/>
<path d="M1227.54 419.719V320.354" stroke="white" stroke-linecap="round" stroke-linejoin="round"/>
<path d="M1227.54 308.329V305.864" stroke="white" stroke-linecap="round" stroke-linejoin="round"/>
<path d="M1240.82 292.967C1237.25 290.911 1233.69 288.855 1230.13 286.8" stroke="white" stroke-linecap="round" stroke-linejoin="round"/>
<path d="M1209.4 274.832C1207.05 273.473 1204.7 272.114 1202.34 270.756" stroke="white" stroke-linecap="round" stroke-linejoin="round"/>
<path d="M1186.93 297.458C1199.75 304.861 1212.58 312.265 1225.4 319.668" stroke="white" stroke-linecap="round" stroke-linejoin="round"/>
<path d="M1071.85 225.791C1109.15 247.32 1146.44 268.85 1183.74 290.38" stroke="white" stroke-linecap="round" stroke-linejoin="round"/>
<path d="M1194.61 271.531C1157.32 250.001 1120.02 228.471 1082.73 206.942" stroke="white" stroke-linecap="round" stroke-linejoin="round"/>
<path d="M810.875 75.1328C813.423 76.6038 815.97 78.0738 818.517 79.5438" stroke="white" stroke-linecap="round" stroke-linejoin="round"/>
<path d="M833.293 62.9482C829.446 60.7262 825.598 58.5052 821.75 56.2842" stroke="white" stroke-linecap="round" stroke-linejoin="round"/>
<path d="M1176.95 46.7083C1173.74 44.8573 1170.53 43.0053 1167.33 41.1543" stroke="white" stroke-linecap="round" stroke-linejoin="round"/>
<path d="M1137.21 45.8867C1136.82 45.8067 1136.05 45.6467 1135.46 45.6247C1134.66 45.5947 1133.41 45.5937 1132.39 45.7047C1131.35 45.8177 1130.24 46.0277 1129.19 46.3067C1128.1 46.5957 1126.95 46.9877 1125.88 47.4367C1124.77 47.8987 1123.61 48.4707 1122.53 49.0837C1121.41 49.7137 1120.27 50.4497 1119.2 51.2177C1118.1 52.0027 1117 52.8867 1115.96 53.7957C1114.9 54.7197 1113.84 55.7317 1112.85 56.7657C1111.85 57.8127 1110.86 58.9357 1109.93 60.0777C1108.99 61.2307 1108.08 62.4457 1107.23 63.6807C1106.37 64.9197 1105.55 66.2087 1104.79 67.5167C1104.02 68.8247 1103.3 70.1717 1102.64 71.5287C1101.98 72.8797 1101.37 74.2697 1100.83 75.6557C1100.28 77.0297 1099.79 78.4447 1099.37 79.8387C1098.95 81.2157 1098.59 82.6367 1098.3 84.0187C1098.01 85.3797 1097.78 86.7827 1097.63 88.1357C1097.48 89.4617 1097.39 90.8287 1097.38 92.1317C1097.38 93.4077 1097.44 94.7197 1097.58 95.9527C1097.72 97.1577 1098.04 98.6837 1098.24 99.5327C1098.36 100.053 1098.63 100.717 1098.76 101.049" stroke="white" stroke-linecap="round" stroke-linejoin="round"/>
<path d="M878.783 59.6633C875.576 57.8123 872.37 55.9623 869.164 54.1113" stroke="white" stroke-linecap="round" stroke-linejoin="round"/>
<path d="M891.831 91.3093C891.76 91.1193 891.617 90.7403 891.454 90.4853C891.089 89.9153 890.307 88.6723 889.643 87.8903C888.992 87.1243 888.155 86.3483 887.473 85.7953C886.882 85.3163 885.992 84.8193 885.547 84.5713" stroke="white" stroke-linecap="round" stroke-linejoin="round"/>
<path d="M885.741 84.6251C880.398 81.5401 875.055 78.4551 869.711 75.3711" stroke="white" stroke-linecap="round" stroke-linejoin="round"/>
<path d="M1016.65 139.25C1013.44 137.399 1010.24 135.548 1007.03 133.697" stroke="white" stroke-linecap="round" stroke-linejoin="round"/>
<path d="M977.014 138.39C976.399 138.317 975.17 138.17 974.44 138.137C973.838 138.11 973.232 138.126 972.634 138.195C971.797 138.291 970.475 138.46 969.42 138.713C968.335 138.973 967.197 139.336 966.125 139.756C965.018 140.191 963.86 140.733 962.778 141.319C961.664 141.923 960.516 142.634 959.442 143.377C958.342 144.138 957.227 144.999 956.181 145.885C955.116 146.788 954.05 147.78 953.05 148.794C952.035 149.823 951.033 150.929 950.092 152.055C949.143 153.191 948.219 154.393 947.352 155.614C946.481 156.84 945.646 158.117 944.867 159.414C944.087 160.712 943.348 162.051 942.671 163.401C941.995 164.747 941.365 166.132 940.8 167.514C940.24 168.885 939.725 170.298 939.282 171.692C938.845 173.07 938.456 174.491 938.143 175.877C937.836 177.241 937.583 178.648 937.408 180.007C937.236 181.34 937.136 183.063 937.093 184.027C937.066 184.616 937.123 185.401 937.151 185.794" stroke="white" stroke-linecap="round" stroke-linejoin="round"/>
<path d="M1005.12 294.258C1009.4 291.79 1013.68 289.322 1017.95 286.854" stroke="white" stroke-linecap="round" stroke-linejoin="round"/>
<path d="M913.686 176.585C911.122 178.066 908.557 179.547 905.992 181.028" stroke="white" stroke-linecap="round" stroke-linejoin="round"/>
<path d="M1201.76 90.1301V45.7041" stroke="white" stroke-linecap="round" stroke-linejoin="round"/>
<path d="M1171.46 27.7773C1168.9 29.2583 1166.33 30.7394 1163.77 32.2204" stroke="white" stroke-linecap="round" stroke-linejoin="round"/>
<path d="M789.953 104.931V149.358" stroke="white" stroke-linecap="round" stroke-linejoin="round"/>
<path fill-rule="evenodd" clip-rule="evenodd" d="M1220.18 267.438C1219.47 267.444 1218.73 267.515 1218.05 267.642C1217.39 267.765 1216.7 267.963 1216.11 268.2C1215.56 268.424 1214.99 268.737 1214.55 269.062C1214.14 269.365 1213.74 269.766 1213.49 270.152C1213.26 270.515 1213.09 270.963 1213.04 271.374C1213 271.784 1213.07 272.23 1213.24 272.616C1213.4 273.015 1213.72 273.443 1214.05 273.772C1214.42 274.125 1214.93 274.478 1215.43 274.736C1215.96 275.012 1216.61 275.258 1217.23 275.425C1217.88 275.598 1218.61 275.721 1219.31 275.776C1220.01 275.831 1220.77 275.825 1221.47 275.758C1222.16 275.692 1222.89 275.557 1223.53 275.373C1224.14 275.197 1224.78 274.94 1225.29 274.656C1225.78 274.39 1226.27 274.027 1226.62 273.668C1226.94 273.334 1227.23 272.902 1227.38 272.5C1227.53 272.108 1227.57 271.663 1227.51 271.253C1227.45 270.843 1227.25 270.398 1227 270.04C1226.73 269.659 1226.31 269.265 1225.89 268.969C1225.44 268.651 1224.85 268.348 1224.29 268.133C1223.69 267.906 1222.99 267.72 1222.32 267.607C1221.64 267.492 1220.89 267.433 1220.18 267.438Z" stroke="white" stroke-linecap="round" stroke-linejoin="round"/>
<path d="M784.254 110.131C782.544 109.144 780.834 108.157 779.125 107.17" stroke="white" stroke-linecap="round" stroke-linejoin="round"/>
<path d="M784.25 110.131V117.537" stroke="white" stroke-linecap="round" stroke-linejoin="round"/>
<path d="M784.254 117.537C782.544 116.55 780.834 115.563 779.125 114.576" stroke="white" stroke-linecap="round" stroke-linejoin="round"/>
<path d="M779.125 107.17V114.576" stroke="white" stroke-linecap="round" stroke-linejoin="round"/>
<path d="M784.25 110.132C786.15 109.036 788.05 107.94 789.95 106.844" stroke="white" stroke-linecap="round" stroke-linejoin="round"/>
<path d="M779.125 107.17C783.482 104.655 787.839 102.14 792.196 99.624" stroke="white" stroke-linecap="round" stroke-linejoin="round"/>
<path d="M784.25 117.537C784.559 118.328 785.177 119.91 785.749 120.975C786.304 122.011 786.977 123.04 787.677 123.928C788.355 124.789 789.418 125.799 789.95 126.304" stroke="white" stroke-linecap="round" stroke-linejoin="round"/>
<path d="M779.125 114.576C779.434 115.367 780.051 116.949 780.622 118.014C781.178 119.05 781.841 120.07 782.552 120.967C783.249 121.847 784.096 122.708 784.884 123.395C785.623 124.038 786.729 124.74 787.283 125.091" stroke="white" stroke-linecap="round" stroke-linejoin="round"/>
<path d="M1148.46 320.389C1161.49 312.867 1174.52 305.345 1187.55 297.823" stroke="white" stroke-linecap="round" stroke-linejoin="round"/>
<path d="M1148.47 320.39C1146.76 319.402 1145.05 318.415 1143.34 317.428" stroke="white" stroke-linecap="round" stroke-linejoin="round"/>
<path d="M1143.34 317.426C1156.96 309.56 1170.59 301.694 1184.22 293.828" stroke="white" stroke-linecap="round" stroke-linejoin="round"/>
<path d="M1148.46 327.793C1148.77 328.584 1149.39 330.166 1149.96 331.231C1150.51 332.267 1151.18 333.287 1151.89 334.184C1152.58 335.064 1153.38 335.898 1154.22 336.614C1155.05 337.324 1155.97 337.955 1156.92 338.48C1157.88 339.005 1158.91 339.438 1159.96 339.761C1161.02 340.088 1162.16 340.317 1163.29 340.437C1164.44 340.56 1165.67 340.578 1166.86 340.498C1168.08 340.416 1169.39 340.221 1170.62 339.944C1171.9 339.658 1173.25 339.253 1174.53 338.783C1175.84 338.298 1177.22 337.69 1178.51 337.032C1179.85 336.353 1181.23 335.552 1182.53 334.713C1183.86 333.851 1185.23 332.87 1186.52 331.861C1187.83 330.828 1189.17 329.683 1190.42 328.516C1191.7 327.327 1192.98 326.035 1194.18 324.724C1195.41 323.395 1196.62 321.977 1197.75 320.54C1198.9 319.09 1200.03 317.567 1201.08 316.023C1202.14 314.472 1203.34 312.519 1204.12 311.236C1204.69 310.285 1205.4 308.98 1205.75 308.327" stroke="white" stroke-linecap="round" stroke-linejoin="round"/>
<path d="M1148.46 320.39V327.794" stroke="white" stroke-linecap="round" stroke-linejoin="round"/>
<path d="M1148.47 327.793C1146.76 326.806 1145.05 325.819 1143.34 324.832" stroke="white" stroke-linecap="round" stroke-linejoin="round"/>
<path d="M1143.34 317.428V324.833" stroke="white" stroke-linecap="round" stroke-linejoin="round"/>
<path d="M1143.34 324.832C1143.64 325.623 1144.26 327.205 1144.83 328.27C1145.39 329.306 1146.05 330.326 1146.76 331.223C1147.46 332.103 1148.31 332.964 1149.09 333.651C1149.83 334.294 1150.94 334.996 1151.49 335.347" stroke="white" stroke-linecap="round" stroke-linejoin="round"/>
<path d="M807.797 64.006C808.097 63.376 808.696 62.114 809.228 61.221C809.759 60.328 810.36 59.451 810.989 58.648C811.608 57.857 812.303 57.079 812.999 56.403C813.674 55.748 814.433 55.111 815.164 54.594C815.862 54.1 816.652 53.637 817.383 53.304C818.075 52.989 818.853 52.729 819.55 52.595C820.211 52.468 820.936 52.429 821.567 52.5C822.178 52.568 822.803 52.747 823.338 53.02C823.874 53.293 824.374 53.683 824.78 54.135C825.194 54.597 825.564 55.192 825.826 55.79C826.1 56.42 826.307 57.366 826.427 57.909C826.51 58.284 826.535 58.797 826.547 59.053" stroke="white" stroke-linecap="round" stroke-linejoin="round"/>
<path d="M815.672 77.9009C815.34 78.0629 814.674 78.3869 814.143 78.5399C813.537 78.7139 812.707 78.9139 812.039 78.9449C811.4 78.9759 810.72 78.9039 810.133 78.7319C809.553 78.5609 808.995 78.2789 808.517 77.9089C808.039 77.5399 807.6 77.0429 807.267 76.5149C806.92 75.9669 806.626 75.2819 806.437 74.6179C806.238 73.9149 806.111 73.0819 806.071 72.3019C806.029 71.4779 806.072 70.5459 806.184 69.6779C806.3 68.7729 806.508 67.7899 806.77 66.8699C807.04 65.9249 807.548 64.6459 807.802 64.0059" stroke="white" stroke-linecap="round" stroke-linejoin="round"/>
<path d="M801.391 60.3041C801.69 59.6741 802.289 58.4141 802.821 57.5211C803.353 56.6281 803.953 55.7491 804.582 54.9461C805.201 54.1551 805.896 53.3771 806.592 52.7011C807.267 52.0461 808.027 51.4091 808.758 50.8921C809.456 50.3991 810.245 49.9371 810.976 49.6041C811.668 49.2881 812.446 49.0281 813.144 48.8931C813.804 48.7661 814.529 48.7271 815.16 48.7971C815.772 48.8661 816.599 49.2111 816.932 49.3181C817.012 49.3441 817.108 49.4081 817.155 49.4391" stroke="white" stroke-linecap="round" stroke-linejoin="round"/>
<path d="M802.646 74.5727C802.517 74.5017 802.258 74.3607 802.102 74.2077C801.803 73.9147 801.185 73.3417 800.852 72.8137C800.506 72.2657 800.211 71.5807 800.023 70.9167C799.824 70.2147 799.697 69.3817 799.657 68.6017C799.614 67.7787 799.658 66.8457 799.769 65.9767C799.886 65.0717 800.093 64.0887 800.356 63.1687C800.626 62.2237 801.134 60.9447 801.389 60.3047" stroke="white" stroke-linecap="round" stroke-linejoin="round"/>
<path d="M809.93 64.431C810.194 63.882 810.722 62.785 811.198 62.021C811.673 61.258 812.222 60.508 812.789 59.843C813.343 59.194 813.979 58.555 814.601 58.032C815.196 57.532 815.883 57.054 816.52 56.706C817.121 56.378 817.813 56.094 818.427 55.943C819.003 55.8 819.65 55.74 820.201 55.794C820.732 55.847 821.471 56.188 821.73 56.269C821.739 56.272 821.749 56.28 821.754 56.284" stroke="white" stroke-linecap="round" stroke-linejoin="round"/>
<path d="M810.87 75.1326C810.721 75.0466 810.423 74.8726 810.253 74.6836C809.985 74.3846 809.506 73.8416 809.263 73.3426C809.007 72.8156 808.813 72.1476 808.717 71.5216C808.614 70.8546 808.592 70.0636 808.646 69.3366C808.703 68.5696 808.853 67.7116 809.06 66.9216C809.273 66.1036 809.71 64.9886 809.928 64.4316" stroke="white" stroke-linecap="round" stroke-linejoin="round"/>
<path d="M784.25 110.131C786.15 111.228 788.05 112.325 789.95 113.421" stroke="white" stroke-linecap="round" stroke-linejoin="round"/>
<path d="M1044.59 260.42C1077.5 279.422 1110.42 298.424 1143.33 317.426" stroke="white" stroke-linecap="round" stroke-linejoin="round"/>
<path d="M784.25 110.132C786.15 109.036 788.05 107.94 789.95 106.844" stroke="white" stroke-linecap="round" stroke-linejoin="round"/>
<path d="M1143.34 317.426C1156.96 309.56 1170.59 301.694 1184.22 293.828" stroke="white" stroke-linecap="round" stroke-linejoin="round"/>
<path d="M1143.34 324.833V317.428" stroke="white" stroke-linecap="round" stroke-linejoin="round"/>
<path d="M784.25 117.537C786.15 118.633 788.05 119.73 789.95 120.826" stroke="white" stroke-linecap="round" stroke-linejoin="round"/>
<path d="M1044.59 267.825C1077.5 286.827 1110.42 305.829 1143.33 324.832" stroke="white" stroke-linecap="round" stroke-linejoin="round"/>
<path d="M784.25 117.537V110.131" stroke="white" stroke-linecap="round" stroke-linejoin="round"/>
<path d="M1216.89 275.329C1217.11 275.263 1217.55 275.13 1217.89 275.078C1218.41 274.998 1219.3 274.862 1220.01 274.846C1220.72 274.831 1221.55 274.905 1222.16 274.986C1222.67 275.053 1223.34 275.237 1223.67 275.329" stroke="white" stroke-linecap="round" stroke-linejoin="round"/>
<path fill-rule="evenodd" clip-rule="evenodd" d="M1226.7 310.019C1226.7 309.353 1226.78 308.585 1226.93 307.885C1227.09 307.154 1227.33 306.362 1227.63 305.634C1227.93 304.892 1228.31 304.131 1228.73 303.433C1229.15 302.735 1229.64 302.049 1230.16 301.447C1230.66 300.859 1231.24 300.282 1231.8 299.821C1232.34 299.381 1232.97 298.963 1233.54 298.677C1234.08 298.409 1234.71 298.192 1235.25 298.102C1235.76 298.017 1236.33 298.021 1236.81 298.133C1237.27 298.243 1237.72 298.467 1238.08 298.773C1238.45 299.08 1238.77 299.52 1238.99 299.972C1239.22 300.45 1239.39 301.068 1239.46 301.642C1239.54 302.257 1239.53 302.991 1239.46 303.659C1239.38 304.364 1239.21 305.152 1238.99 305.873C1238.76 306.616 1238.44 307.397 1238.08 308.119C1237.72 308.846 1237.28 309.577 1236.81 310.233C1236.34 310.881 1235.8 311.518 1235.25 312.055C1234.73 312.572 1234.12 313.074 1233.54 313.452C1233 313.808 1232.37 314.131 1231.8 314.321C1231.28 314.499 1230.67 314.605 1230.16 314.594C1229.67 314.584 1229.15 314.467 1228.73 314.256C1228.31 314.045 1227.92 313.711 1227.63 313.327C1227.33 312.931 1227.08 312.395 1226.93 311.879C1226.78 311.328 1226.7 310.644 1226.7 310.019Z" stroke="white" stroke-linecap="round" stroke-linejoin="round"/>
<path fill-rule="evenodd" clip-rule="evenodd" d="M1222.2 312.611C1222.2 311.739 1222.29 310.766 1222.44 309.857C1222.6 308.913 1222.85 307.899 1223.15 306.948C1223.45 305.973 1223.85 304.964 1224.29 304.011C1224.73 303.048 1225.25 302.083 1225.81 301.175C1226.37 300.269 1227 299.377 1227.65 298.563C1228.3 297.762 1229.02 296.976 1229.74 296.292C1230.43 295.629 1231.21 294.983 1231.97 294.458C1232.68 293.955 1233.49 293.484 1234.24 293.142C1234.96 292.817 1235.75 292.547 1236.47 292.402C1237.15 292.264 1237.9 292.213 1238.56 292.271C1239.19 292.328 1239.84 292.494 1240.4 292.754C1240.96 293.014 1241.49 293.386 1241.92 293.829C1242.37 294.278 1242.77 294.858 1243.06 295.45C1243.37 296.069 1243.62 296.824 1243.77 297.546C1243.92 298.309 1244.01 299.196 1244.01 300.026C1244.01 300.899 1243.92 301.872 1243.77 302.781C1243.61 303.724 1243.36 304.738 1243.06 305.689C1242.76 306.664 1242.36 307.673 1241.92 308.626C1241.48 309.589 1240.96 310.554 1240.4 311.462C1239.84 312.368 1239.21 313.259 1238.56 314.073C1237.91 314.874 1237.19 315.661 1236.47 316.346C1235.78 317.01 1235 317.655 1234.24 318.18C1233.52 318.682 1232.72 319.153 1231.97 319.495C1231.25 319.82 1230.46 320.09 1229.74 320.235C1229.06 320.373 1228.31 320.425 1227.65 320.366C1227.02 320.31 1226.37 320.144 1225.81 319.885C1225.25 319.625 1224.72 319.251 1224.29 318.808C1223.84 318.359 1223.44 317.779 1223.15 317.187C1222.84 316.568 1222.59 315.813 1222.44 315.091C1222.28 314.328 1222.2 313.441 1222.2 312.611Z" stroke="white" stroke-linecap="round" stroke-linejoin="round"/>
<path d="M1212.14 288.688C1212.13 288.705 1212.13 288.737 1212.14 288.757C1212.33 289.119 1212.79 290.302 1213.29 290.856C1213.78 291.405 1214.48 291.817 1215.13 292.085C1215.77 292.35 1216.48 292.438 1217.17 292.465C1217.9 292.494 1218.77 292.407 1219.55 292.258C1220.41 292.094 1221.64 291.715 1222.35 291.482C1222.86 291.316 1223.5 291.012 1223.82 290.86" stroke="white" stroke-linecap="round" stroke-linejoin="round"/>
<path d="M1227.54 307.426C1227.66 307.574 1227.78 307.721 1227.89 307.869" stroke="white" stroke-linecap="round" stroke-linejoin="round"/>
<path d="M1183.73 290.401C1183.76 289.786 1183.82 288.555 1183.97 287.646C1184.13 286.701 1184.38 285.688 1184.68 284.736C1184.98 283.762 1185.38 282.752 1185.82 281.799C1186.26 280.837 1186.78 279.871 1187.34 278.963C1187.9 278.057 1188.53 277.167 1189.19 276.353C1189.83 275.552 1190.55 274.765 1191.27 274.08C1191.96 273.417 1192.74 272.771 1193.5 272.246C1194.21 271.744 1195.02 271.273 1195.77 270.931C1196.49 270.606 1197.28 270.337 1198 270.192C1198.68 270.054 1199.43 270.001 1200.09 270.06C1200.72 270.116 1201.55 270.426 1201.93 270.542C1202.08 270.588 1202.25 270.7 1202.34 270.756" stroke="white" stroke-linecap="round" stroke-linejoin="round"/>
<path d="M1186.93 297.457C1186.66 297.287 1186.13 296.945 1185.82 296.598C1185.44 296.185 1184.97 295.568 1184.68 294.977C1184.37 294.357 1184.12 293.603 1183.97 292.881C1183.82 292.118 1183.76 290.973 1183.73 290.401" stroke="white" stroke-linecap="round" stroke-linejoin="round"/>
<path d="M1213.03 289.378C1213.02 289.388 1212.99 289.406 1212.98 289.426C1212.94 289.513 1212.82 289.773 1212.77 289.903" stroke="white" stroke-linecap="round" stroke-linejoin="round"/>
<path d="M1228.48 303.938C1228.54 304.312 1228.64 305.062 1228.56 305.615C1228.47 306.264 1228.21 307.219 1227.92 307.828C1227.66 308.375 1227.1 308.973 1226.81 309.271" stroke="white" stroke-linecap="round" stroke-linejoin="round"/>
<path d="M987.131 36.2944C986.981 35.6884 986.683 34.4764 986.556 33.5514C986.408 32.4674 986.269 31.0504 986.242 29.7934C986.213 28.4944 986.263 27.0984 986.383 25.7574C986.506 24.3784 986.714 22.9194 986.981 21.5174C987.254 20.0824 987.612 18.5874 988.023 17.1474C988.441 15.6814 988.941 14.1764 989.491 12.7234C990.046 11.2544 990.678 9.76837 991.357 8.32937C992.04 6.88237 992.791 5.43837 993.59 4.03837C994.389 2.63937 995.251 1.25836 996.151 -0.0686359C997.046 -1.38964 998.005 -2.69163 998.99 -3.92163C999.965 -5.13863 1001.01 -6.33763 1002.06 -7.44963C1003.1 -8.54263 1004.21 -9.61764 1005.31 -10.5906C1006.38 -11.5426 1007.54 -12.4716 1008.67 -13.2886C1009.77 -14.0836 1010.95 -14.8476 1012.09 -15.4946C1013.2 -16.1206 1014.38 -16.7056 1015.51 -17.1706C1016.6 -17.6196 1017.76 -18.0116 1018.86 -18.2866C1019.92 -18.5526 1021.04 -18.7416 1022.09 -18.8216C1023.1 -18.8996 1024.46 -18.8106 1025.13 -18.7666" stroke="white" stroke-linecap="round" stroke-linejoin="round"/>
<path d="M974.005 43.8731C973.981 43.7461 973.933 43.4921 973.913 43.2991C973.824 42.4491 973.539 40.2871 973.467 38.7731C973.394 37.2161 973.397 35.5621 973.472 33.9591C973.549 32.3161 973.707 30.5891 973.928 28.9151C974.154 27.2051 974.462 25.4241 974.828 23.6971C975.2 21.9401 975.656 20.1291 976.164 18.3701C976.679 16.5871 977.273 14.7661 977.917 12.9951C978.568 11.2051 979.295 9.39607 980.069 7.63307C980.849 5.85807 981.697 4.08307 982.594 2.34907C983.493 0.611068 984.454 -1.11293 985.462 -2.79493C986.47 -4.47493 987.537 -6.13393 988.642 -7.73893C989.741 -9.33693 990.902 -10.9159 992.091 -12.4259C993.27 -13.9239 994.515 -15.4029 995.774 -16.7999C997.018 -18.1809 998.332 -19.5419 999.646 -20.8109C1000.94 -22.0589 1002.31 -23.2859 1003.66 -24.4099C1004.99 -25.5129 1006.39 -26.5899 1007.77 -27.5569C1009.12 -28.5019 1010.55 -29.4139 1011.93 -30.2119C1013.28 -30.9899 1014.72 -31.7269 1016.09 -32.3479C1017.43 -32.9509 1018.85 -33.5009 1020.2 -33.9359C1021.52 -34.3579 1022.9 -34.7139 1024.22 -34.9599C1025.49 -35.1979 1026.83 -35.3549 1028.08 -35.4069C1029.31 -35.4579 1030.94 -35.3339 1031.76 -35.2719" stroke="white" stroke-linecap="round" stroke-linejoin="round"/>
<path d="M967.432 47.6659C967.21 47.2419 966.767 46.3929 966.505 45.7259C966.129 44.7699 965.536 43.2219 965.178 41.9309C964.809 40.6009 964.504 39.1549 964.287 37.7449C964.065 36.2939 963.913 34.7339 963.842 33.2199C963.768 31.6639 963.772 30.0089 963.847 28.4059C963.923 26.7629 964.081 25.0359 964.303 23.3619C964.529 21.6519 964.838 19.8709 965.204 18.1449C965.576 16.3879 966.032 14.5769 966.539 12.8179C967.054 11.0339 967.649 9.21293 968.294 7.44193C968.945 5.65193 969.668 3.84293 970.443 2.07993C971.222 0.305925 972.073 -1.46908 972.97 -3.20308C973.869 -4.94108 974.829 -6.66508 975.837 -8.34708C976.844 -10.0281 977.911 -11.6861 979.016 -13.2921C980.116 -14.8901 981.278 -16.4691 982.467 -17.9791C983.646 -19.4761 984.891 -20.9551 986.15 -22.3531C987.394 -23.7331 988.708 -25.0951 990.022 -26.3631C991.316 -27.6111 992.683 -28.8381 994.037 -29.9631C995.365 -31.0651 996.77 -32.1421 998.149 -33.1091C999.495 -34.0541 1000.92 -34.9661 1002.31 -35.7641C1003.66 -36.5421 1005.09 -37.2791 1006.47 -37.9001C1007.81 -38.5031 1009.22 -39.0531 1010.58 -39.4881C1011.89 -39.9111 1013.28 -40.2671 1014.59 -40.5121C1015.87 -40.7501 1017.2 -40.9081 1018.46 -40.9601C1019.69 -41.0101 1021.32 -40.8861 1022.14 -40.8241" stroke="white" stroke-linecap="round" stroke-linejoin="round"/>
<path d="M1167.33 41.1541C1167.1 41.0161 1166.63 40.7401 1166.26 40.5831C1165.54 40.2851 1164.15 39.6711 1163.05 39.3631C1161.94 39.0521 1160.75 38.8321 1159.58 38.7151C1158.38 38.5971 1157.11 38.5771 1155.87 38.6501C1154.61 38.7251 1153.27 38.9061 1151.99 39.1661C1150.67 39.4341 1149.28 39.8131 1147.96 40.2581C1146.6 40.7151 1145.18 41.2871 1143.84 41.9111C1142.46 42.5541 1141.03 43.3121 1139.68 44.1101C1138.29 44.9291 1136.87 45.8621 1135.52 46.8261C1134.15 47.8121 1132.74 48.9071 1131.42 50.0271C1130.07 51.1691 1128.71 52.4141 1127.42 53.6781C1126.11 54.9621 1124.8 56.3381 1123.57 57.7331C1122.31 59.1451 1121.08 60.6381 1119.91 62.1481C1118.73 63.6711 1117.58 65.2591 1116.49 66.8681C1115.39 68.4841 1114.34 70.1511 1113.34 71.8401C1112.35 73.5291 1111.4 75.2601 1110.51 77.0031C1109.63 78.7411 1108.8 80.5221 1108.03 82.2991C1107.27 84.0651 1106.56 85.8761 1105.93 87.6661C1105.3 89.4371 1104.72 91.2581 1104.22 93.0391C1103.73 94.7951 1103.16 97.4181 1102.94 98.3571C1102.91 98.4611 1102.89 98.6021 1102.88 98.6721" stroke="white" stroke-linecap="round" stroke-linejoin="round"/>
<path d="M1183.07 52.3805C1182.7 51.8865 1181.97 50.8965 1181.34 50.2335C1180.62 49.4895 1179.69 48.5995 1178.78 47.9165C1177.87 47.2355 1176.9 46.6365 1175.88 46.1365C1174.86 45.6355 1173.78 45.2235 1172.67 44.9155C1171.56 44.6045 1170.37 44.3855 1169.2 44.2685C1168 44.1505 1166.73 44.1295 1165.5 44.2025C1164.23 44.2775 1162.89 44.4585 1161.61 44.7185C1160.29 44.9865 1158.9 45.3665 1157.58 45.8105C1156.22 46.2675 1154.8 46.8405 1153.46 47.4645C1152.08 48.1065 1150.65 48.8645 1149.3 49.6625C1147.92 50.4815 1146.49 51.4145 1145.14 52.3785C1143.77 53.3645 1142.37 54.4605 1141.04 55.5805C1139.69 56.7225 1138.33 57.9665 1137.04 59.2305C1135.73 60.5155 1134.43 61.8925 1133.19 63.2875C1131.94 64.6995 1130.7 66.1905 1129.53 67.7005C1128.35 69.2225 1127.2 70.8125 1126.11 72.4215C1125.02 74.0365 1123.96 75.7035 1122.97 77.3925C1121.97 79.0815 1121.02 80.8125 1120.14 82.5555C1119.25 84.2935 1118.27 86.4695 1117.66 87.8515C1117.21 88.8375 1116.69 90.1795 1116.43 90.8505" stroke="white" stroke-linecap="round" stroke-linejoin="round"/>
<path d="M889.711 78.8711C889.809 79.8941 890.005 81.9391 890.04 83.4781C890.075 85.0461 889.973 87.2021 889.921 88.2801" stroke="white" stroke-linecap="round" stroke-linejoin="round"/>
<path d="M814.766 115.141C814.778 115.08 814.804 114.957 814.828 114.866C815.08 113.929 815.73 111.284 816.274 109.52C816.825 107.732 817.455 105.913 818.134 104.141C818.819 102.354 819.578 100.552 820.385 98.7952C821.196 97.0282 822.075 95.2642 823.001 93.5412C823.929 91.8162 824.919 90.1062 825.953 88.4432C826.985 86.7822 828.078 85.1422 829.206 83.5602C830.328 81.9862 831.513 80.4322 832.721 78.9502C833.919 77.4812 835.182 76.0302 836.457 74.6642C837.715 73.3172 839.044 71.9882 840.371 70.7552C841.675 69.5442 843.053 68.3542 844.416 67.2702C845.75 66.2082 847.163 65.1732 848.545 64.2492C849.894 63.3472 851.323 62.4772 852.709 61.7242C854.058 60.9912 855.487 60.3022 856.86 59.7292C858.195 59.1722 859.605 58.6722 860.95 58.2862C862.256 57.9112 863.629 57.6062 864.93 57.4112C866.194 57.2212 867.512 57.1172 868.753 57.1152C869.964 57.1142 871.207 57.2082 872.374 57.4002C873.521 57.5892 874.674 57.8822 875.753 58.2662C876.824 58.6462 877.868 59.1302 878.846 59.7002C879.825 60.2702 880.762 60.9422 881.623 61.6862C882.489 62.4362 883.314 63.2952 884.045 64.2002C884.789 65.1212 885.489 66.1582 886.087 67.2142C886.701 68.2962 887.263 69.4962 887.725 70.6922C888.2 71.9222 888.616 73.2702 888.938 74.5932C889.27 75.9572 889.566 77.9002 889.714 78.8712" stroke="white" stroke-linecap="round" stroke-linejoin="round"/>
<path d="M805.148 109.59C805.161 109.529 805.187 109.406 805.211 109.315C805.463 108.378 806.113 105.733 806.656 103.969C807.207 102.181 807.837 100.361 808.516 98.5895C809.201 96.8025 809.96 95.0005 810.767 93.2435C811.578 91.4765 812.457 89.7125 813.384 87.9895C814.313 86.2645 815.303 84.5545 816.337 82.8905C817.369 81.2305 818.462 79.5905 819.59 78.0085C820.712 76.4345 821.896 74.8785 823.105 73.3965C824.301 71.9275 825.565 70.4775 826.84 69.1115C828.098 67.7645 829.427 66.4365 830.754 65.2035C832.058 63.9925 833.437 62.8025 834.8 61.7185C836.134 60.6555 837.545 59.6205 838.927 58.6955C840.277 57.7935 841.706 56.9255 843.092 56.1725C844.441 55.4395 845.87 54.7505 847.243 54.1775C848.578 53.6205 849.988 53.1205 851.333 52.7345C852.639 52.3595 854.012 52.0545 855.313 51.8585C856.577 51.6685 857.895 51.5635 859.135 51.5625C860.347 51.5605 861.591 51.6565 862.758 51.8485C863.904 52.0365 865.067 52.3365 866.135 52.7135C867.184 53.0835 868.505 53.7685 869.166 54.1115" stroke="white" stroke-linecap="round" stroke-linejoin="round"/>
<path d="M826.032 124.165C826.018 124.022 825.989 123.736 825.987 123.521C825.98 122.755 825.914 120.882 825.988 119.565C826.065 118.208 826.226 116.765 826.448 115.379C826.675 113.959 826.987 112.472 827.354 111.04C827.728 109.581 828.185 108.077 828.693 106.626C829.208 105.154 829.8 103.66 830.441 102.213C831.087 100.756 831.802 99.297 832.566 97.881C833.33 96.464 834.159 95.062 835.03 93.71C835.898 92.363 836.828 91.035 837.789 89.772C838.741 88.521 839.761 87.287 840.795 86.137C841.814 85.004 842.904 83.889 843.993 82.871C845.059 81.875 846.203 80.899 847.326 80.032C848.421 79.188 849.596 78.371 850.735 77.67C851.839 76.99 853.025 76.349 854.159 75.827C855.254 75.323 856.429 74.871 857.537 74.537C858.606 74.215 859.746 73.962 860.81 73.822C861.838 73.686 862.919 73.639 863.918 73.695C864.891 73.75 865.887 73.908 866.804 74.16C867.71 74.408 868.935 75.003 869.42 75.205C869.524 75.248 869.651 75.33 869.715 75.371" stroke="white" stroke-linecap="round" stroke-linejoin="round"/>
<path d="M997.456 131.152C996.609 131.171 994.913 131.209 993.655 131.376C992.361 131.547 990.993 131.827 989.692 132.179C988.352 132.542 986.945 133.019 985.614 133.553C984.243 134.104 982.816 134.771 981.469 135.482C980.083 136.214 978.652 137.06 977.302 137.942C975.918 138.845 974.503 139.86 973.166 140.903C971.8 141.968 970.417 143.14 969.108 144.334C967.777 145.549 966.441 146.86 965.176 148.192C963.894 149.541 962.621 150.978 961.416 152.432C960.198 153.901 959.002 155.443 957.87 157.004C956.732 158.575 955.628 160.206 954.583 161.857C953.537 163.511 952.534 165.213 951.592 166.932C950.651 168.649 949.758 170.406 948.931 172.169C948.109 173.923 947.334 175.722 946.633 177.508C945.938 179.279 945.276 181.162 944.723 182.886C944.199 184.524 943.613 186.743 943.32 187.852" stroke="white" stroke-linecap="round" stroke-linejoin="round"/>
<path d="M1007.02 133.697C1006.45 133.392 1005.3 132.781 1004.39 132.447C1003.4 132.083 1002.19 131.723 1001.05 131.51C999.89 131.294 998.265 131.199 997.453 131.152" stroke="white" stroke-linecap="round" stroke-linejoin="round"/>
<path d="M1007.07 136.705C1006.22 136.725 1004.53 136.763 1003.27 136.93C1001.98 137.101 1000.61 137.379 999.306 137.732C997.966 138.094 996.56 138.572 995.229 139.106C993.858 139.657 992.43 140.323 991.083 141.035C989.697 141.766 988.267 142.612 986.917 143.494C985.534 144.397 984.119 145.413 982.782 146.457C981.416 147.522 980.032 148.693 978.724 149.886C977.392 151.1 976.056 152.413 974.792 153.744C973.51 155.094 972.237 156.53 971.031 157.984C969.813 159.453 968.617 160.996 967.485 162.557C966.346 164.128 965.242 165.759 964.197 167.41C963.151 169.064 962.148 170.766 961.206 172.484C960.264 174.201 959.372 175.958 958.545 177.721C957.723 179.476 956.652 182.116 956.247 183.061C956.2 183.17 956.145 183.318 956.117 183.392" stroke="white" stroke-linecap="round" stroke-linejoin="round"/>
<path d="M1022.76 144.922C1022.64 144.741 1022.4 144.38 1022.18 144.135C1021.69 143.574 1020.66 142.329 1019.81 141.557C1018.96 140.792 1018.04 140.097 1017.07 139.504C1016.11 138.911 1015.08 138.405 1014.02 138C1012.95 137.594 1011.81 137.276 1010.67 137.064C1009.52 136.848 1007.89 136.753 1007.08 136.705" stroke="white" stroke-linecap="round" stroke-linejoin="round"/>
<path d="M997.773 271.167V262.833" stroke="white" stroke-linecap="round" stroke-linejoin="round"/>
<path d="M979.82 250.156V260.801" stroke="white" stroke-linecap="round" stroke-linejoin="round"/>
<path d="M979.82 260.802C979.848 261.347 979.903 262.436 980.046 263.239C980.194 264.074 980.426 264.973 980.708 265.813C980.997 266.673 981.366 267.561 981.778 268.397C982.194 269.238 982.679 270.08 983.2 270.86C983.717 271.634 984.302 272.397 984.902 273.077C985.488 273.741 986.15 274.393 986.8 274.939C987.424 275.464 988.131 275.967 988.797 276.351C989.429 276.716 990.145 277.041 990.795 277.244C991.407 277.437 992.092 277.561 992.692 277.573C993.266 277.586 993.874 277.501 994.394 277.322C994.912 277.144 995.403 276.859 995.816 276.5C996.231 276.138 996.609 275.655 996.886 275.152C997.175 274.626 997.411 273.971 997.55 273.344C997.698 272.68 997.749 271.672 997.774 271.168" stroke="white" stroke-linecap="round" stroke-linejoin="round"/>
<path d="M1010.12 288.498C1012 284.364 1013.87 280.23 1015.74 276.096" stroke="white" stroke-linecap="round" stroke-linejoin="round"/>
<path d="M967.477 263.874C967.795 264.856 968.43 266.821 969.003 268.258C969.584 269.711 970.246 271.177 970.959 272.593C971.675 274.014 972.464 275.428 973.301 276.786C974.136 278.143 975.04 279.478 975.979 280.744C976.909 282 977.913 283.237 978.933 284.384C979.938 285.512 981.022 286.623 982.102 287.625C983.158 288.604 984.3 289.561 985.416 290.397C986.501 291.208 987.674 291.989 988.803 292.641C989.893 293.27 991.074 293.854 992.191 294.307C993.265 294.743 994.424 295.117 995.505 295.362C996.544 295.598 997.653 295.747 998.674 295.779C999.661 295.809 1000.69 295.735 1001.63 295.552C1002.55 295.374 1003.47 295.077 1004.31 294.684C1005.14 294.292 1005.94 293.787 1006.65 293.196C1007.36 292.602 1008.04 291.883 1008.6 291.118C1009.18 290.335 1009.81 289.11 1010.13 288.497" stroke="white" stroke-linecap="round" stroke-linejoin="round"/>
<path d="M959.398 236.689C962.091 245.751 964.784 254.812 967.477 263.874" stroke="white" stroke-linecap="round" stroke-linejoin="round"/>
<path d="M1017.95 286.854C1018.3 286.639 1019.01 286.208 1019.47 285.794C1020.05 285.271 1020.86 284.48 1021.42 283.715C1022 282.932 1022.63 281.708 1022.95 281.095" stroke="white" stroke-linecap="round" stroke-linejoin="round"/>
<path d="M930.445 190.81C931.106 191.154 932.428 191.841 933.468 192.242C934.547 192.659 935.747 193.028 936.917 193.307C938.116 193.594 939.402 193.818 940.66 193.962C941.933 194.108 943.254 194.183 944.551 194.183C945.849 194.183 947.171 194.108 948.444 193.962C949.702 193.818 950.988 193.594 952.186 193.307C953.357 193.028 954.557 192.659 955.636 192.242C956.676 191.841 957.997 191.154 958.658 190.81" stroke="white" stroke-linecap="round" stroke-linejoin="round"/>
<path d="M938.148 186.368C938.448 186.524 939.049 186.836 939.522 187.018C940.012 187.207 940.558 187.374 941.089 187.502C941.634 187.632 942.219 187.734 942.791 187.8C943.369 187.867 943.97 187.901 944.56 187.901C945.15 187.901 945.751 187.867 946.33 187.8C946.901 187.734 947.486 187.632 948.03 187.502C948.562 187.374 949.107 187.207 949.597 187.018C950.07 186.836 950.671 186.524 950.972 186.368" stroke="white" stroke-linecap="round" stroke-linejoin="round"/>
<path d="M958.658 235.237C957.997 235.581 956.676 236.268 955.636 236.669C954.557 237.085 953.356 237.453 952.186 237.733C950.988 238.02 949.702 238.244 948.444 238.389C947.171 238.535 945.849 238.61 944.551 238.61C943.254 238.61 941.933 238.535 940.66 238.389C939.402 238.244 938.116 238.02 936.917 237.733C935.747 237.453 934.547 237.085 933.468 236.669C932.428 236.268 931.106 235.581 930.445 235.237" stroke="white" stroke-linecap="round" stroke-linejoin="round"/>
<path d="M1195.92 53.8477C1116.83 99.5017 1037.75 145.156 958.664 190.81" stroke="white" stroke-linecap="round" stroke-linejoin="round"/>
<path d="M1188.22 49.4062C1109.14 95.0602 1030.05 140.714 950.969 186.368" stroke="white" stroke-linecap="round" stroke-linejoin="round"/>
<path d="M1044.59 259.681C1058.91 251.409 1073.24 243.138 1087.57 234.866" stroke="white" stroke-linecap="round" stroke-linejoin="round"/>
<path d="M1044.59 259.682V267.826" stroke="white" stroke-linecap="round" stroke-linejoin="round"/>
<path d="M958.664 235.237C990.28 257.35 1021.9 279.464 1053.51 301.577" stroke="white" stroke-linecap="round" stroke-linejoin="round"/>
<path d="M1124.34 230.966C1148.2 186.735 1172.06 142.505 1195.91 98.2754" stroke="white" stroke-linecap="round" stroke-linejoin="round"/>
<path d="M1053.52 301.577C1054.11 301.946 1055.29 302.684 1056.25 303.093C1057.21 303.504 1058.24 303.825 1059.28 304.04C1060.33 304.258 1061.46 304.38 1062.56 304.402C1063.69 304.425 1064.9 304.345 1066.06 304.177C1067.25 304.004 1068.51 303.719 1069.71 303.364C1070.95 302.998 1072.25 302.515 1073.48 301.978C1074.74 301.424 1076.06 300.753 1077.29 300.039C1078.57 299.304 1079.88 298.452 1081.11 297.57C1082.37 296.666 1083.85 295.465 1084.87 294.612C1085.7 293.927 1086.74 292.945 1087.26 292.455" stroke="white" stroke-linecap="round" stroke-linejoin="round"/>
<path d="M1069.59 220.808C1069.62 220.282 1069.68 219.231 1069.83 218.459C1069.99 217.654 1070.24 216.784 1070.54 215.979C1070.85 215.156 1071.24 214.311 1071.68 213.522C1072.11 212.733 1072.63 211.949 1073.17 211.244C1073.7 210.55 1074.3 209.867 1074.91 209.289C1075.5 208.732 1076.17 208.191 1076.8 207.778C1077.41 207.386 1078.1 207.03 1078.73 206.807C1079.32 206.597 1079.99 206.455 1080.56 206.435C1081.11 206.416 1081.83 206.604 1082.19 206.688C1082.38 206.733 1082.61 206.872 1082.73 206.942" stroke="white" stroke-linecap="round" stroke-linejoin="round"/>
<path d="M1071.85 225.792C1071.81 225.772 1071.73 225.734 1071.68 225.688C1071.46 225.479 1070.84 224.99 1070.54 224.541C1070.24 224.073 1069.98 223.463 1069.83 222.879C1069.68 222.258 1069.62 221.292 1069.59 220.809" stroke="white" stroke-linecap="round" stroke-linejoin="round"/>
<path d="M915.058 181.925C914.497 181.634 913.374 181.05 912.556 180.766C911.779 180.496 910.92 180.295 910.15 180.219C909.414 180.146 908.627 180.173 907.933 180.307C907.255 180.439 906.579 180.688 905.99 181.028C905.4 181.369 904.848 181.83 904.395 182.352C903.932 182.885 903.515 183.553 903.21 184.227C902.891 184.932 902.635 185.776 902.48 186.585C902.317 187.435 902.262 188.7 902.234 189.332" stroke="white" stroke-linecap="round" stroke-linejoin="round"/>
<path d="M930.451 190.81C925.322 187.849 920.193 184.888 915.062 181.926" stroke="white" stroke-linecap="round" stroke-linejoin="round"/>
<path d="M904.797 220.432C913.347 225.367 921.897 230.303 930.446 235.238" stroke="white" stroke-linecap="round" stroke-linejoin="round"/>
<path d="M902.234 215.988C902.24 216.123 902.252 216.394 902.283 216.594C902.315 216.802 902.366 217.024 902.429 217.234C902.492 217.449 902.573 217.672 902.665 217.883C902.758 218.097 902.867 218.312 902.985 218.516C903.103 218.72 903.234 218.922 903.373 219.109C903.51 219.294 903.663 219.476 903.817 219.638C903.967 219.797 904.134 219.953 904.298 220.085C904.456 220.212 904.684 220.358 904.798 220.431" stroke="white" stroke-linecap="round" stroke-linejoin="round"/>
<path d="M902.234 189.332V215.988" stroke="white" stroke-linecap="round" stroke-linejoin="round"/>
<path d="M938.146 186.368C933.017 183.407 927.887 180.445 922.758 177.484" stroke="white" stroke-linecap="round" stroke-linejoin="round"/>
<path d="M913.688 176.585C914.109 176.389 914.952 175.998 915.63 175.866C916.323 175.732 917.113 175.705 917.849 175.778C918.619 175.854 919.477 176.054 920.254 176.324C921.072 176.608 922.194 177.191 922.755 177.483" stroke="white" stroke-linecap="round" stroke-linejoin="round"/>
<path d="M1195.91 53.8476C1196.5 53.4736 1197.68 52.7246 1198.4 52.1016C1199.08 51.5106 1199.74 50.8026 1200.24 50.1106C1200.71 49.4506 1201.12 48.6856 1201.38 47.9506C1201.62 47.2326 1201.76 46.4536 1201.76 45.7046C1201.76 44.9556 1201.62 44.1756 1201.38 43.4566C1201.12 42.7216 1200.71 41.9566 1200.24 41.2956C1199.74 40.6036 1199.08 39.8956 1198.4 39.3036C1197.68 38.6816 1196.5 37.9336 1195.91 37.5596" stroke="white" stroke-linecap="round" stroke-linejoin="round"/>
<path d="M1201.76 90.1299C1201.71 90.6399 1201.62 91.6589 1201.38 92.3779C1201.12 93.1129 1200.71 93.8769 1200.24 94.5379C1199.74 95.2299 1199.08 95.9379 1198.4 96.5289C1197.68 97.1519 1196.5 97.8999 1195.91 98.2749" stroke="white" stroke-linecap="round" stroke-linejoin="round"/>
<path d="M1188.22 49.406C1188.49 49.235 1189.02 48.895 1189.35 48.612C1189.66 48.343 1189.96 48.0199 1190.18 47.7059C1190.4 47.4059 1190.58 47.058 1190.7 46.724C1190.81 46.398 1190.87 46.0439 1190.87 45.7039C1190.87 45.3629 1190.81 45.009 1190.7 44.682C1190.58 44.348 1190.4 44 1190.18 43.7C1189.96 43.385 1189.66 43.064 1189.35 42.795C1189.02 42.512 1188.49 42.172 1188.22 42.002" stroke="white" stroke-linecap="round" stroke-linejoin="round"/>
<path d="M1172.83 33.1162C1177.96 36.0782 1183.09 39.0402 1188.22 42.0022" stroke="white" stroke-linecap="round" stroke-linejoin="round"/>
<path d="M1180.52 28.6758C1185.65 31.6378 1190.78 34.5988 1195.91 37.5598" stroke="white" stroke-linecap="round" stroke-linejoin="round"/>
<path d="M1172.83 33.1167C1172.27 32.8257 1171.15 32.2427 1170.33 31.9577C1169.55 31.6877 1168.69 31.4877 1167.92 31.4117C1167.19 31.3387 1166.4 31.3657 1165.71 31.5007C1165.03 31.6317 1164.35 31.8797 1163.76 32.2207C1163.17 32.5607 1162.62 33.0227 1162.17 33.5437C1161.7 34.0767 1161.29 34.7457 1160.98 35.4197C1160.66 36.1247 1160.4 37.2177 1160.25 37.7767C1160.17 38.1017 1160.12 38.5507 1160.1 38.7747" stroke="white" stroke-linecap="round" stroke-linejoin="round"/>
<path d="M1171.45 27.7776C1171.88 27.5816 1172.72 27.1896 1173.4 27.0576C1174.09 26.9236 1174.88 26.8976 1175.61 26.9706C1176.38 27.0466 1177.24 27.2466 1178.02 27.5166C1178.84 27.8006 1179.96 28.3846 1180.52 28.6756" stroke="white" stroke-linecap="round" stroke-linejoin="round"/>
<path d="M811.179 121.957C806.049 118.996 800.919 116.035 795.789 113.073" stroke="white" stroke-linecap="round" stroke-linejoin="round"/>
<path d="M820.719 132.365C820.621 132.177 820.424 131.8 820.253 131.531C819.852 130.898 819.004 129.502 818.311 128.567C817.625 127.642 816.864 126.732 816.094 125.918C815.341 125.124 814.506 124.347 813.689 123.687C812.9 123.05 811.757 122.322 811.188 121.957" stroke="white" stroke-linecap="round" stroke-linejoin="round"/>
<path d="M818.875 117.517C819.446 117.881 820.588 118.609 821.376 119.246C822.194 119.906 823.03 120.683 823.782 121.477C824.552 122.291 825.314 123.201 826 124.126C826.693 125.061 827.541 126.456 827.942 127.089C828.113 127.358 828.31 127.735 828.408 127.924" stroke="white" stroke-linecap="round" stroke-linejoin="round"/>
<path d="M818.875 117.517C813.745 114.556 808.615 111.594 803.484 108.633" stroke="white" stroke-linecap="round" stroke-linejoin="round"/>
<path d="M795.796 96.7861C795.209 97.1601 794.036 97.9081 793.315 98.5311C792.631 99.1231 791.969 99.8311 791.472 100.523C790.998 101.184 790.589 101.948 790.336 102.683C790.089 103.401 789.953 104.181 789.953 104.93C789.953 105.679 790.089 106.458 790.336 107.177C790.589 107.911 790.998 108.677 791.472 109.338C791.969 110.03 792.631 110.738 793.315 111.329C794.036 111.952 795.209 112.699 795.796 113.073" stroke="white" stroke-linecap="round" stroke-linejoin="round"/>
<path d="M789.994 150.102C789.981 149.854 789.967 149.606 789.953 149.357" stroke="white" stroke-linecap="round" stroke-linejoin="round"/>
<path d="M803.491 101.229C803.225 101.399 802.692 101.738 802.364 102.021C802.053 102.29 801.752 102.612 801.526 102.927C801.311 103.227 801.126 103.575 801.011 103.909C800.898 104.235 800.836 104.589 800.836 104.93C800.836 105.27 800.898 105.624 801.011 105.951C801.126 106.285 801.311 106.633 801.526 106.934C801.752 107.248 802.053 107.57 802.364 107.839C802.692 108.122 803.225 108.462 803.491 108.632" stroke="white" stroke-linecap="round" stroke-linejoin="round"/>
<path d="M803.484 101.229C805.203 100.237 806.921 99.2449 808.639 98.2529" stroke="white" stroke-linecap="round" stroke-linejoin="round"/>
<path d="M877.133 58.7119C907.737 41.0449 938.341 23.3779 968.945 5.71094" stroke="white" stroke-linecap="round" stroke-linejoin="round"/>
<path d="M795.789 96.7861C802.02 93.1901 808.25 89.5931 814.48 85.9961" stroke="white" stroke-linecap="round" stroke-linejoin="round"/>
<path d="M869.438 54.2701C904.554 33.9981 939.669 13.7261 974.785 -6.5459" stroke="white" stroke-linecap="round" stroke-linejoin="round"/>
<path d="M714.586 128.91L821.143 67.3887" stroke="white" stroke-width="0.5" stroke-miterlimit="1.5" stroke-linecap="round" stroke-linejoin="round"/>
<path d="M715.5 206.239L768.043 175.903" stroke="white" stroke-width="0.5" stroke-miterlimit="1.5" stroke-linecap="round" stroke-linejoin="round"/>
<path d="M721.031 200.22V129.75" stroke="white" stroke-width="0.5" stroke-miterlimit="1.5" stroke-linecap="round" stroke-linejoin="round"/>
<path fill-rule="evenodd" clip-rule="evenodd" d="M720.813 125.894C720.846 125.802 720.933 125.741 721.031 125.741C721.128 125.741 721.215 125.802 721.248 125.894C721.644 126.999 722.468 129.301 722.766 130.133C722.792 130.204 722.781 130.283 722.738 130.344C722.694 130.406 722.624 130.442 722.549 130.442C721.848 130.442 720.213 130.442 719.512 130.442C719.437 130.442 719.367 130.406 719.324 130.344C719.28 130.283 719.27 130.204 719.295 130.133C719.593 129.301 720.418 126.999 720.813 125.894Z" fill="white"/>
<path fill-rule="evenodd" clip-rule="evenodd" d="M721.248 202.418C721.215 202.509 721.128 202.571 721.031 202.571C720.933 202.571 720.846 202.509 720.813 202.418C720.418 201.313 719.593 199.01 719.295 198.178C719.27 198.107 719.28 198.028 719.324 197.967C719.367 197.906 719.437 197.869 719.512 197.869C720.213 197.869 721.848 197.869 722.549 197.869C722.624 197.869 722.694 197.906 722.738 197.967C722.781 198.028 722.792 198.107 722.766 198.178C722.468 199.01 721.644 201.313 721.248 202.418Z" fill="white"/>
<path d="M711.196 163.333C712.909 163.333 714.298 161.944 714.298 160.231C714.298 158.518 712.909 157.129 711.196 157.129C709.483 157.129 708.094 158.518 708.094 160.231C708.094 161.944 709.483 163.333 711.196 163.333Z" fill="white"/>
<path d="M711.196 175.155C712.909 175.155 714.298 173.766 714.298 172.053C714.298 170.34 712.909 168.951 711.196 168.951C709.483 168.951 708.094 170.34 708.094 172.053C708.094 173.766 709.483 175.155 711.196 175.155Z" fill="white"/>
<path d="M680.109 247.46L707.302 231.76" stroke="white" stroke-width="0.5" stroke-miterlimit="1.5" stroke-linecap="round" stroke-linejoin="round"/>
<path d="M808.18 321.544L835.373 305.844" stroke="white" stroke-width="0.5" stroke-miterlimit="1.5" stroke-linecap="round" stroke-linejoin="round"/>
<path d="M810.605 315.575L690.211 246.066" stroke="white" stroke-width="0.5" stroke-miterlimit="1.5" stroke-linecap="round" stroke-linejoin="round"/>
<path fill-rule="evenodd" clip-rule="evenodd" d="M686.765 244.327C686.702 244.252 686.693 244.146 686.741 244.062C686.79 243.977 686.887 243.933 686.983 243.95C688.137 244.16 690.543 244.597 691.413 244.755C691.487 244.769 691.55 244.817 691.582 244.885C691.613 244.953 691.61 245.033 691.572 245.098C691.222 245.704 690.404 247.121 690.054 247.727C690.016 247.792 689.949 247.835 689.875 247.842C689.8 247.849 689.726 247.819 689.678 247.761C689.106 247.087 687.524 245.222 686.765 244.327Z" fill="white"/>
<path fill-rule="evenodd" clip-rule="evenodd" d="M813.932 317.144C813.995 317.219 814.004 317.325 813.956 317.409C813.907 317.494 813.81 317.538 813.714 317.521C812.56 317.311 810.153 316.874 809.284 316.716C809.21 316.702 809.147 316.654 809.115 316.586C809.084 316.518 809.087 316.438 809.125 316.373C809.475 315.767 810.293 314.35 810.643 313.744C810.681 313.678 810.748 313.636 810.822 313.629C810.897 313.622 810.971 313.652 811.019 313.71C811.591 314.384 813.173 316.249 813.932 317.144Z" fill="white"/>
<path fill-rule="evenodd" clip-rule="evenodd" d="M729.616 279.332C730.482 277.832 732.402 277.318 733.902 278.184C735.402 279.05 735.917 280.97 735.051 282.47C734.185 283.97 732.264 284.485 730.764 283.619C729.264 282.753 728.75 280.832 729.616 279.332Z" fill="white"/>
<path fill-rule="evenodd" clip-rule="evenodd" d="M739.975 285.314C740.841 283.815 742.762 283.3 744.262 284.166C745.762 285.032 746.276 286.953 745.41 288.453C744.544 289.952 742.624 290.467 741.124 289.601C739.624 288.735 739.109 286.814 739.975 285.314Z" fill="white"/>
<path fill-rule="evenodd" clip-rule="evenodd" d="M750.334 291.296C751.2 289.796 753.122 289.281 754.622 290.147C756.121 291.013 756.636 292.934 755.77 294.434C754.904 295.934 752.983 296.448 751.483 295.582C749.984 294.716 749.468 292.796 750.334 291.296Z" fill="white"/>
<path d="M901.25 128.994H941.291L965.858 153.587" stroke="white" stroke-width="0.5" stroke-miterlimit="1.5" stroke-linecap="round" stroke-linejoin="round"/>
<path fill-rule="evenodd" clip-rule="evenodd" d="M912.25 119.22C912.25 117.514 913.635 116.128 915.342 116.128C917.048 116.128 918.433 117.514 918.433 119.22C918.433 120.926 917.048 122.311 915.342 122.311C913.635 122.311 912.25 120.926 912.25 119.22Z" fill="white"/>
<path fill-rule="evenodd" clip-rule="evenodd" d="M924.039 119.22C924.039 117.514 925.424 116.128 927.131 116.128C928.837 116.128 930.222 117.514 930.222 119.22C930.222 120.926 928.837 122.311 927.131 122.311C925.424 122.311 924.039 120.926 924.039 119.22Z" fill="white"/>
<path fill-rule="evenodd" clip-rule="evenodd" d="M964.492 154.042C964.492 152.926 965.398 152.021 966.513 152.021C967.629 152.021 968.534 152.926 968.534 154.042C968.534 155.157 967.629 156.062 966.513 156.062C965.398 156.062 964.492 155.157 964.492 154.042Z" fill="white"/>
<path d="M1259.2 189.134H1194.26L1135.23 248.214" stroke="white" stroke-width="0.5" stroke-miterlimit="1.5" stroke-linecap="round" stroke-linejoin="round"/>
<path fill-rule="evenodd" clip-rule="evenodd" d="M1228.04 179.359C1228.04 177.653 1226.65 176.268 1224.94 176.268C1223.24 176.268 1221.85 177.653 1221.85 179.359C1221.85 181.066 1223.24 182.451 1224.94 182.451C1226.65 182.451 1228.04 181.066 1228.04 179.359Z" fill="white"/>
<path fill-rule="evenodd" clip-rule="evenodd" d="M1239.59 179.359C1239.59 177.653 1238.2 176.268 1236.5 176.268C1234.79 176.268 1233.41 177.653 1233.41 179.359C1233.41 181.066 1234.79 182.451 1236.5 182.451C1238.2 182.451 1239.59 181.066 1239.59 179.359Z" fill="white"/>
<path fill-rule="evenodd" clip-rule="evenodd" d="M1216.25 179.359C1216.25 177.653 1214.87 176.268 1213.16 176.268C1211.46 176.268 1210.07 177.653 1210.07 179.359C1210.07 181.066 1211.46 182.451 1213.16 182.451C1214.87 182.451 1216.25 181.066 1216.25 179.359Z" fill="white"/>
<path fill-rule="evenodd" clip-rule="evenodd" d="M1137.25 248.213C1137.25 247.098 1136.35 246.192 1135.23 246.192C1134.12 246.192 1133.21 247.098 1133.21 248.213C1133.21 249.329 1134.12 250.234 1135.23 250.234C1136.35 250.234 1137.25 249.329 1137.25 248.213Z" fill="white"/>
<path fill-rule="evenodd" clip-rule="evenodd" d="M1008.96 -0.771973C1008.96 -1.88797 1009.87 -2.79297 1010.98 -2.79297C1012.1 -2.79297 1013 -1.88797 1013 -0.771973C1013 0.343027 1012.1 1.24903 1010.98 1.24903C1009.87 1.24903 1008.96 0.343027 1008.96 -0.771973Z" fill="white"/>
<path d="M895.047 313.574H942.135L988.826 266.859" stroke="white" stroke-width="0.5" stroke-miterlimit="1.5" stroke-linecap="round" stroke-linejoin="round"/>
<path fill-rule="evenodd" clip-rule="evenodd" d="M910.539 303.63C910.539 305.338 911.925 306.725 913.634 306.725C915.342 306.725 916.729 305.338 916.729 303.63C916.729 301.921 915.342 300.535 913.634 300.535C911.925 300.535 910.539 301.921 910.539 303.63Z" fill="white"/>
<path fill-rule="evenodd" clip-rule="evenodd" d="M922.336 303.63C922.336 305.338 923.723 306.725 925.431 306.725C927.139 306.725 928.526 305.338 928.526 303.63C928.526 301.921 927.139 300.535 925.431 300.535C923.723 300.535 922.336 301.921 922.336 303.63Z" fill="white"/>
<path fill-rule="evenodd" clip-rule="evenodd" d="M986.805 266.859C986.805 267.974 987.711 268.88 988.826 268.88C989.942 268.88 990.847 267.974 990.847 266.859C990.847 265.743 989.942 264.837 988.826 264.837C987.711 264.837 986.805 265.743 986.805 266.859Z" fill="white"/>
</g>
</svg>
